<svg width="696" height="283" viewBox="0 0 696 283" fill="none" xmlns="http://www.w3.org/2000/svg">
<path d="M348.184 283.421C540.481 283.421 696.369 273.11 696.369 260.39C696.369 247.671 540.481 237.361 348.184 237.361C155.887 237.361 0 247.671 0 260.39C0 273.11 155.887 283.421 348.184 283.421Z" fill="#DDDDDD"/>
<path d="M334.84 8.27264C278.111 8.27264 237.38 44.6358 237.38 129.483C237.38 225.644 278.111 251.098 334.84 251.098C391.568 251.098 434.725 223.219 434.725 129.483C434.725 29.2825 391.568 8.27264 334.84 8.27264ZM335.213 219.179C295.921 219.179 275.394 196.148 275.394 129.545C275.394 70.7781 296.761 39.7874 336.053 39.7874C375.345 39.7874 396.712 60.144 396.712 129.545C396.712 194.469 374.504 219.179 335.213 219.179Z" fill="#2F2E41"/>
<path d="M203.411 184.028H179.956V115.021C179.956 111.355 178.499 107.84 175.905 105.248C173.311 102.657 169.793 101.201 166.124 101.201H160.628C158.812 101.201 157.013 101.558 155.335 102.253C153.657 102.947 152.132 103.965 150.847 105.248C149.563 106.532 148.544 108.055 147.849 109.732C147.154 111.409 146.796 113.206 146.796 115.021V184.028H80.6375C79.2765 184.028 77.9386 183.676 76.7536 183.008C75.5686 182.339 74.5767 181.375 73.8742 180.211C73.1717 179.046 72.7824 177.72 72.7441 176.36C72.7058 175.001 73.0198 173.655 73.6556 172.453L143.677 40.0427C144.55 38.3919 145.079 36.5814 145.232 34.7207C145.386 32.8599 145.16 30.9874 144.569 29.2161C143.978 27.4449 143.034 25.8117 141.794 24.415C140.554 23.0184 139.043 21.8873 137.353 21.09L133.22 19.1398C130.01 17.6255 126.341 17.4019 122.971 18.5153C119.601 19.6287 116.788 21.9938 115.115 25.1213L29.7143 184.736C28.2601 187.454 27.4993 190.489 27.4993 193.571V193.571C27.4993 196.032 27.9844 198.468 28.927 200.742C29.8696 203.016 31.2512 205.081 32.9929 206.822C34.7345 208.562 36.8022 209.942 39.0778 210.884C41.3535 211.826 43.7925 212.31 46.2556 212.31H146.796V255.946C146.796 258.122 147.225 260.276 148.058 262.285C148.891 264.295 150.113 266.121 151.652 267.66C153.192 269.198 155.02 270.418 157.031 271.251C159.043 272.083 161.199 272.512 163.376 272.512H163.376C165.553 272.512 167.71 272.083 169.721 271.251C171.733 270.418 173.56 269.198 175.1 267.66C176.64 266.121 177.861 264.295 178.694 262.285C179.527 260.276 179.956 258.122 179.956 255.946V212.31H203.411C207.165 212.31 210.765 210.82 213.42 208.168C216.074 205.516 217.565 201.92 217.565 198.169V198.169C217.565 194.419 216.074 190.822 213.42 188.17C210.765 185.518 207.165 184.028 203.411 184.028V184.028Z" fill="#E81410"/>
<path d="M637.732 184.028H614.277V115.021C614.277 111.355 612.82 107.84 610.226 105.248C607.631 102.657 604.113 101.201 600.445 101.201H594.949C593.132 101.201 591.334 101.558 589.655 102.253C587.977 102.947 586.452 103.965 585.168 105.248C583.883 106.532 582.865 108.055 582.169 109.732C581.474 111.409 581.116 113.206 581.116 115.021V184.028H514.958C513.597 184.028 512.259 183.676 511.074 183.008C509.889 182.339 508.897 181.375 508.195 180.211C507.492 179.046 507.103 177.72 507.065 176.36C507.026 175.001 507.34 173.655 507.976 172.453L577.997 40.0427C578.87 38.3919 579.4 36.5815 579.553 34.7207C579.706 32.8599 579.481 30.9874 578.89 29.2161C578.299 27.4449 577.355 25.8117 576.114 24.415C574.874 23.0184 573.364 21.8873 571.674 21.09L567.54 19.1398C564.331 17.6255 560.661 17.4019 557.291 18.5153C553.921 19.6287 551.108 21.9938 549.435 25.1213L464.035 184.736C462.581 187.454 461.82 190.489 461.82 193.571V193.571C461.82 198.541 463.796 203.307 467.313 206.822C470.831 210.336 475.602 212.31 480.576 212.31H581.116V255.946C581.116 260.34 582.863 264.553 585.973 267.66C589.082 270.766 593.299 272.512 597.697 272.512V272.512C602.094 272.512 606.311 270.766 609.421 267.66C612.53 264.553 614.277 260.34 614.277 255.946V212.31H637.732C641.486 212.31 645.086 210.82 647.74 208.168C650.394 205.516 651.886 201.92 651.886 198.169V198.169C651.886 194.419 650.394 190.822 647.74 188.17C645.086 185.518 641.486 184.028 637.732 184.028Z" fill="#E81410"/>
<path d="M209.881 175.947H186.426V106.94C186.426 105.125 186.069 103.328 185.373 101.651C184.678 99.9745 183.659 98.451 182.375 97.1677C181.091 95.8844 179.566 94.8665 177.887 94.172C176.209 93.4774 174.411 93.12 172.594 93.12H167.098C163.43 93.12 159.911 94.576 157.317 97.1677C154.723 99.7595 153.266 103.275 153.266 106.94V175.947H87.1075C85.7465 175.947 84.4086 175.596 83.2235 174.927C82.0385 174.258 81.0467 173.295 80.3441 172.13C79.6416 170.965 79.2524 169.639 79.2141 168.28C79.1758 166.92 79.4897 165.574 80.1256 164.372L150.147 31.962C151.02 30.3112 151.549 28.5007 151.702 26.64C151.856 24.7792 151.63 22.9067 151.039 21.1354C150.448 19.3642 149.504 17.7309 148.264 16.3343C147.024 14.9377 145.513 13.8066 143.823 13.0093L139.69 11.0591C136.48 9.54482 132.811 9.32122 129.441 10.4346C126.071 11.548 123.258 13.9131 121.585 17.0406L36.1843 176.656C34.7301 179.374 33.9692 182.408 33.9692 185.49V185.49C33.9692 190.46 35.9453 195.227 39.4628 198.741C42.9803 202.255 47.7511 204.23 52.7255 204.23H153.266V247.865C153.266 250.041 153.695 252.195 154.528 254.205C155.361 256.215 156.583 258.041 158.122 259.579C159.662 261.117 161.489 262.337 163.501 263.17C165.513 264.002 167.669 264.431 169.846 264.431H169.846C174.243 264.431 178.461 262.686 181.57 259.579C184.679 256.472 186.426 252.259 186.426 247.865V204.23H209.881C211.74 204.23 213.58 203.864 215.298 203.153C217.015 202.443 218.575 201.401 219.889 200.088C221.204 198.775 222.246 197.216 222.958 195.5C223.669 193.784 224.035 191.945 224.035 190.088V190.088C224.035 188.231 223.669 186.392 222.958 184.677C222.246 182.961 221.204 181.402 219.89 180.089C218.575 178.776 217.015 177.734 215.298 177.024C213.58 176.313 211.74 175.947 209.881 175.947V175.947Z" stroke="#3F3D56" stroke-miterlimit="10"/>
<path d="M649.864 175.947H626.409V106.94C626.409 103.275 624.951 99.7595 622.357 97.1677C619.763 94.576 616.245 93.12 612.576 93.12H607.081C605.264 93.12 603.465 93.4774 601.787 94.172C600.109 94.8665 598.584 95.8844 597.3 97.1677C596.015 98.451 594.996 99.9745 594.301 101.651C593.606 103.328 593.248 105.125 593.248 106.94V175.947H527.09C525.729 175.947 524.391 175.596 523.206 174.927C522.021 174.258 521.029 173.295 520.327 172.13C519.624 170.965 519.235 169.639 519.197 168.28C519.158 166.92 519.472 165.574 520.108 164.372L590.129 31.962C591.002 30.3112 591.531 28.5007 591.685 26.64C591.838 24.7792 591.612 22.9067 591.021 21.1354C590.43 19.3642 589.486 17.7309 588.246 16.3343C587.006 14.9377 585.495 13.8066 583.806 13.0093L579.672 11.0591C576.462 9.54482 572.793 9.32122 569.423 10.4346C566.053 11.548 563.24 13.9131 561.567 17.0406L476.167 176.656C474.712 179.374 473.952 182.408 473.952 185.49C473.952 190.46 475.928 195.227 479.445 198.741C482.963 202.255 487.733 204.23 492.708 204.23H593.248V247.865C593.248 252.259 594.995 256.472 598.105 259.579C601.214 262.686 605.431 264.431 609.828 264.431V264.431C614.226 264.431 618.443 262.686 621.552 259.579C624.662 256.472 626.409 252.259 626.409 247.865V204.23H649.864C651.722 204.23 653.563 203.864 655.28 203.153C656.997 202.443 658.558 201.401 659.872 200.088C661.186 198.775 662.229 197.216 662.94 195.5C663.651 193.784 664.017 191.945 664.017 190.088V190.088C664.017 186.338 662.526 182.741 659.872 180.089C657.218 177.437 653.617 175.947 649.864 175.947V175.947Z" stroke="#3F3D56" stroke-miterlimit="10"/>
<path d="M347.78 1C291.052 1 250.321 37.3632 250.321 122.211C250.321 218.371 291.052 243.825 347.78 243.825C404.509 243.825 447.666 215.947 447.666 122.211C447.666 22.0098 404.509 1 347.78 1ZM348.153 211.906C308.862 211.906 288.334 188.876 288.334 122.273C288.334 63.5054 309.702 32.5148 348.994 32.5148C388.285 32.5148 409.653 52.8713 409.653 122.273C409.653 187.196 387.445 211.906 348.153 211.906V211.906Z" stroke="#3F3D56" stroke-miterlimit="10"/>
<path d="M308.78 123.091C314.978 123.091 320.002 116.596 320.002 108.583C320.002 100.57 314.978 94.0744 308.78 94.0744C302.583 94.0744 297.559 100.57 297.559 108.583C297.559 116.596 302.583 123.091 308.78 123.091Z" fill="#2F2E41"/>
<path d="M369.837 123.421C376.034 123.421 381.058 116.925 381.058 108.913C381.058 100.9 376.034 94.4041 369.837 94.4041C363.639 94.4041 358.615 100.9 358.615 108.913C358.615 116.925 363.639 123.421 369.837 123.421Z" fill="#2F2E41"/>
<path d="M361.256 151.779C361.256 158.334 352.094 163.649 340.794 163.649C329.493 163.649 320.332 158.334 320.332 151.779C320.332 146.101 327.203 141.352 336.384 140.192C337.846 139.999 339.319 139.904 340.794 139.908C343.264 139.9 345.728 140.166 348.14 140.699C355.81 142.408 361.256 146.727 361.256 151.779Z" fill="#2F2E41"/>
<path d="M311.421 119.794C317.618 119.794 322.642 113.298 322.642 105.286C322.642 97.2727 317.618 90.777 311.421 90.777C305.224 90.777 300.2 97.2727 300.2 105.286C300.2 113.298 305.224 119.794 311.421 119.794Z" stroke="#3F3D56" stroke-miterlimit="10"/>
<path d="M372.477 120.124C378.674 120.124 383.698 113.628 383.698 105.615C383.698 97.6024 378.674 91.1068 372.477 91.1068C366.28 91.1068 361.256 97.6024 361.256 105.615C361.256 113.628 366.28 120.124 372.477 120.124Z" stroke="#3F3D56" stroke-miterlimit="10"/>
<path d="M343.434 160.352C354.735 160.352 363.896 155.037 363.896 148.481C363.896 141.925 354.735 136.611 343.434 136.611C332.133 136.611 322.972 141.925 322.972 148.481C322.972 155.037 332.133 160.352 343.434 160.352Z" stroke="#3F3D56" stroke-miterlimit="10"/>
<path d="M348.384 141.689C348.39 142.518 348.078 143.318 347.513 143.926C347.246 144.217 346.922 144.449 346.561 144.609C346.2 144.769 345.809 144.852 345.414 144.854H338.813C338 144.826 337.231 144.477 336.674 143.884C336.118 143.291 335.819 142.501 335.843 141.689C335.84 141.046 336.028 140.416 336.384 139.881C337.845 139.675 339.319 139.574 340.794 139.578C343.267 139.57 345.733 139.854 348.14 140.423C348.303 140.825 348.386 141.255 348.384 141.689V141.689Z" fill="white"/>
<path d="M311.421 104.626C313.243 104.626 314.721 103.15 314.721 101.329C314.721 99.5076 313.243 98.0313 311.421 98.0313C309.598 98.0313 308.12 99.5076 308.12 101.329C308.12 103.15 309.598 104.626 311.421 104.626Z" fill="white"/>
<path d="M372.807 104.626C374.629 104.626 376.107 103.15 376.107 101.329C376.107 99.5076 374.629 98.0313 372.807 98.0313C370.984 98.0313 369.506 99.5076 369.506 101.329C369.506 103.15 370.984 104.626 372.807 104.626Z" fill="white"/>
<path opacity="0.3" d="M376.107 135.621C377.93 135.621 379.407 134.145 379.407 132.324C379.407 130.503 377.93 129.027 376.107 129.027C374.284 129.027 372.807 130.503 372.807 132.324C372.807 134.145 374.284 135.621 376.107 135.621Z" fill="#E81410"/>
<path opacity="0.3" d="M295.579 135.621C297.402 135.621 298.879 134.145 298.879 132.324C298.879 130.503 297.402 129.027 295.579 129.027C293.756 129.027 292.279 130.503 292.279 132.324C292.279 134.145 293.756 135.621 295.579 135.621Z" fill="#E81410"/>
</svg>
