<?xml version="1.0" encoding="UTF-8"?>
<svg xmlns="http://www.w3.org/2000/svg" xmlns:xlink="http://www.w3.org/1999/xlink" width="24pt" height="24pt" viewBox="0 0 24 24" version="1.1">
<g id="surface1">
<path style=" stroke:none;fill-rule:nonzero;fill:rgb(100%,75.686275%,2.745098%);fill-opacity:1;" d="M 21.804688 10.042969 L 21 10.042969 L 21 10 L 12 10 L 12 14 L 17.652344 14 C 16.828125 16.328125 14.613281 18 12 18 C 8.6875 18 6 15.3125 6 12 C 6 8.6875 8.6875 6 12 6 C 13.53125 6 14.921875 6.578125 15.980469 7.519531 L 18.808594 4.691406 C 17.023438 3.027344 14.632812 2 12 2 C 6.476562 2 2 6.476562 2 12 C 2 17.523438 6.476562 22 12 22 C 17.523438 22 22 17.523438 22 12 C 22 11.328125 21.929688 10.675781 21.804688 10.042969 Z M 21.804688 10.042969 "/>
<path style=" stroke:none;fill-rule:nonzero;fill:rgb(100%,23.921569%,0%);fill-opacity:1;" d="M 3.152344 7.34375 L 6.4375 9.753906 C 7.328125 7.554688 9.480469 6 12 6 C 13.53125 6 14.921875 6.578125 15.980469 7.519531 L 18.808594 4.691406 C 17.023438 3.027344 14.632812 2 12 2 C 8.160156 2 4.828125 4.167969 3.152344 7.34375 Z M 3.152344 7.34375 "/>
<path style=" stroke:none;fill-rule:nonzero;fill:rgb(29.803922%,68.627451%,31.372549%);fill-opacity:1;" d="M 12 22 C 14.582031 22 16.929688 21.011719 18.703125 19.402344 L 15.609375 16.785156 C 14.605469 17.546875 13.359375 18 12 18 C 9.398438 18 7.191406 16.339844 6.359375 14.027344 L 3.097656 16.539062 C 4.753906 19.777344 8.113281 22 12 22 Z M 12 22 "/>
<path style=" stroke:none;fill-rule:nonzero;fill:rgb(9.803922%,46.27451%,82.352941%);fill-opacity:1;" d="M 21.804688 10.042969 L 21 10.042969 L 21 10 L 12 10 L 12 14 L 17.652344 14 C 17.253906 15.117188 16.535156 16.082031 15.609375 16.785156 L 18.703125 19.402344 C 18.484375 19.601562 22 17 22 12 C 22 11.328125 21.929688 10.675781 21.804688 10.042969 Z M 21.804688 10.042969 "/>
</g>
</svg>
