<svg width="291" height="261" viewBox="0 0 291 261" fill="none" xmlns="http://www.w3.org/2000/svg">
<path d="M180.337 151.668H74.022C70.4167 151.664 66.9602 150.233 64.4109 147.69C61.8616 145.148 60.4276 141.7 60.4235 138.104V13.5638C60.4276 9.96769 61.8616 6.52005 64.4109 3.97723C66.9602 1.4344 70.4167 0.00406214 74.022 0H172.931L193.936 16.6994V138.104C193.932 141.7 192.498 145.148 189.948 147.69C187.399 150.233 183.943 151.664 180.337 151.668V151.668Z" fill="#E6E6E6"/>
<path d="M74.022 3.90472C71.4546 3.90761 68.9931 4.92618 67.1777 6.73698C65.3623 8.54778 64.3411 11.0029 64.3382 13.5638V138.104C64.3411 140.665 65.3623 143.12 67.1777 144.931C68.9931 146.742 71.4546 147.76 74.022 147.763H180.337C182.905 147.76 185.366 146.742 187.182 144.931C188.997 143.12 190.018 140.665 190.021 138.104V18.5806L171.562 3.90472H74.022Z" fill="white"/>
<path d="M159.659 40.1176H111.255C110.958 40.1176 110.663 40.0592 110.389 39.9457C110.114 39.8322 109.864 39.6658 109.654 39.4561C109.444 39.2463 109.277 38.9973 109.163 38.7233C109.049 38.4493 108.991 38.1555 108.991 37.8589C108.991 37.5623 109.049 37.2686 109.163 36.9945C109.277 36.7205 109.444 36.4715 109.654 36.2618C109.864 36.052 110.114 35.8856 110.389 35.7721C110.663 35.6586 110.958 35.6002 111.255 35.6002H159.659C159.956 35.6002 160.251 35.6586 160.526 35.7721C160.8 35.8856 161.05 36.052 161.26 36.2618C161.471 36.4715 161.637 36.7205 161.751 36.9945C161.865 37.2686 161.923 37.5623 161.923 37.8589C161.923 38.1555 161.865 38.4493 161.751 38.7233C161.637 38.9973 161.471 39.2463 161.26 39.4561C161.05 39.6658 160.8 39.8322 160.526 39.9457C160.251 40.0592 159.956 40.1176 159.659 40.1176V40.1176Z" fill="#CCCCCC"/>
<path d="M169 47.7409H111.255C110.655 47.7409 110.079 47.5029 109.654 47.0793C109.229 46.6557 108.991 46.0812 108.991 45.4822C108.991 44.8831 109.229 44.3086 109.654 43.885C110.079 43.4614 110.655 43.2234 111.255 43.2234H169C169.601 43.2234 170.177 43.4614 170.601 43.885C171.026 44.3086 171.265 44.8831 171.265 45.4822C171.265 46.0812 171.026 46.6557 170.601 47.0793C170.177 47.5029 169.601 47.7409 169 47.7409Z" fill="#CCCCCC"/>
<path d="M159.659 74.281H111.255C110.655 74.281 110.079 74.043 109.654 73.6194C109.229 73.1958 108.991 72.6213 108.991 72.0222C108.991 71.4232 109.229 70.8487 109.654 70.4251C110.079 70.0015 110.655 69.7635 111.255 69.7635H159.659C160.26 69.7635 160.836 70.0015 161.26 70.4251C161.685 70.8487 161.923 71.4232 161.923 72.0222C161.923 72.6213 161.685 73.1958 161.26 73.6194C160.836 74.043 160.26 74.281 159.659 74.281Z" fill="#CCCCCC"/>
<path d="M169 81.9042H111.255C110.655 81.9042 110.079 81.6662 109.654 81.2426C109.229 80.819 108.991 80.2445 108.991 79.6455C108.991 79.0464 109.229 78.4719 109.654 78.0483C110.079 77.6247 110.655 77.3867 111.255 77.3867H169C169.601 77.3867 170.177 77.6247 170.601 78.0483C171.026 78.4719 171.265 79.0464 171.265 79.6455C171.265 80.2445 171.026 80.819 170.601 81.2426C170.177 81.6662 169.601 81.9042 169 81.9042Z" fill="#CCCCCC"/>
<path d="M159.659 108.444H111.255C110.655 108.444 110.079 108.206 109.654 107.783C109.229 107.359 108.991 106.785 108.991 106.186C108.991 105.587 109.229 105.012 109.654 104.588C110.079 104.165 110.655 103.927 111.255 103.927H159.659C160.26 103.927 160.836 104.165 161.26 104.588C161.685 105.012 161.923 105.587 161.923 106.186C161.923 106.785 161.685 107.359 161.26 107.783C160.836 108.206 160.26 108.444 159.659 108.444Z" fill="#CCCCCC"/>
<path d="M169 116.068H111.255C110.655 116.068 110.079 115.83 109.654 115.406C109.229 114.982 108.991 114.408 108.991 113.809C108.991 113.21 109.229 112.635 109.654 112.212C110.079 111.788 110.655 111.55 111.255 111.55H169C169.601 111.55 170.177 111.788 170.601 112.212C171.026 112.635 171.265 113.21 171.265 113.809C171.265 114.408 171.026 114.982 170.601 115.406C170.177 115.83 169.601 116.068 169 116.068V116.068Z" fill="#CCCCCC"/>
<path d="M91.0985 49.6539C95.5189 49.6539 99.1023 46.0796 99.1023 41.6705C99.1023 37.2614 95.5189 33.6872 91.0985 33.6872C86.6781 33.6872 83.0947 37.2614 83.0947 41.6705C83.0947 46.0796 86.6781 49.6539 91.0985 49.6539Z" fill="#FFD11F"/>
<path d="M90.3054 44.7159C90.1253 44.7162 89.95 44.6581 89.806 44.5504L89.797 44.5437L87.916 43.1085C87.7403 42.9739 87.6254 42.7752 87.5964 42.556C87.5675 42.3369 87.627 42.1153 87.7618 41.9399C87.8966 41.7646 88.0957 41.6497 88.3154 41.6207C88.535 41.5916 88.7572 41.6508 88.9332 41.7851L90.1516 42.717L93.0306 38.9705C93.0974 38.8837 93.1806 38.8108 93.2756 38.756C93.3706 38.7013 93.4755 38.6657 93.5843 38.6514C93.6931 38.637 93.8036 38.6442 93.9096 38.6725C94.0156 38.7008 94.115 38.7496 94.2021 38.8162L94.2023 38.8164L94.1845 38.8411L94.2028 38.8164C94.3785 38.9511 94.4935 39.1498 94.5224 39.3689C94.5514 39.588 94.4921 39.8096 94.3574 39.9851L90.971 44.3898C90.8926 44.4913 90.7919 44.5734 90.6766 44.6298C90.5613 44.6862 90.4345 44.7153 90.3061 44.715L90.3054 44.7159Z" fill="white"/>
<path d="M91.9227 83.8172C96.3431 83.8172 99.9265 80.243 99.9265 75.8339C99.9265 71.4248 96.3431 67.8505 91.9227 67.8505C87.5023 67.8505 83.9189 71.4248 83.9189 75.8339C83.9189 80.243 87.5023 83.8172 91.9227 83.8172Z" fill="#CCCCCC"/>
<path d="M91.0985 117.981C95.5189 117.981 99.1023 114.406 99.1023 109.997C99.1023 105.588 95.5189 102.014 91.0985 102.014C86.6781 102.014 83.0947 105.588 83.0947 109.997C83.0947 114.406 86.6781 117.981 91.0985 117.981Z" fill="#CCCCCC"/>
<path d="M193.527 17.2369H177.073C175.872 17.2369 174.72 16.7609 173.871 15.9137C173.021 15.0665 172.544 13.9175 172.544 12.7194V0.597898C172.544 0.544829 172.559 0.49283 172.587 0.447872C172.616 0.402915 172.656 0.366815 172.704 0.343712C172.752 0.320609 172.805 0.311437 172.858 0.317251C172.911 0.323065 172.961 0.343628 173.003 0.376582L193.703 16.7332C193.749 16.7696 193.782 16.8194 193.799 16.8757C193.815 16.932 193.814 16.992 193.794 17.0473C193.775 17.1027 193.739 17.1507 193.691 17.1846C193.643 17.2186 193.586 17.2369 193.527 17.2369Z" fill="#E6E6E6"/>
<path d="M82.1462 175.002L19.2447 188.227C17.4269 188.607 15.5323 188.253 13.9763 187.241C12.4204 186.229 11.3303 184.643 10.9452 182.831L0.151421 131.753C-0.229599 129.94 0.125991 128.05 1.14018 126.499C2.15436 124.947 3.74432 123.859 5.56123 123.475L68.4628 110.25C70.2805 109.87 72.1752 110.225 73.7311 111.237C75.2871 112.248 76.3771 113.834 76.7623 115.646L87.5561 166.724C87.9371 168.537 87.5815 170.427 86.5673 171.979C85.5531 173.531 83.9632 174.618 82.1462 175.002Z" fill="white"/>
<path d="M82.1462 175.002L19.2447 188.227C17.4269 188.607 15.5323 188.253 13.9763 187.241C12.4204 186.229 11.3303 184.643 10.9452 182.831L0.151421 131.753C-0.229599 129.94 0.125991 128.05 1.14018 126.499C2.15436 124.947 3.74432 123.859 5.56123 123.475L68.4628 110.25C70.2805 109.87 72.1752 110.225 73.7311 111.237C75.2871 112.248 76.3771 113.834 76.7623 115.646L87.5561 166.724C87.9371 168.537 87.5815 170.427 86.5673 171.979C85.5531 173.531 83.9632 174.618 82.1462 175.002ZM5.73121 124.28C4.12806 124.618 2.72517 125.578 1.8303 126.947C0.935428 128.317 0.621664 129.984 0.957845 131.584L11.7517 182.662C12.0915 184.261 13.0533 185.66 14.4262 186.553C15.7991 187.445 17.4708 187.758 19.0747 187.423L81.9763 174.198C83.5794 173.859 84.9823 172.9 85.8772 171.53C86.7721 170.161 87.0858 168.494 86.7496 166.894L75.9558 115.816C75.616 114.217 74.6542 112.818 73.2813 111.925C71.9084 111.032 70.2367 110.72 68.6328 111.055L5.73121 124.28Z" fill="#3F3D56"/>
<path d="M64.5545 127.092L32.8089 133.767C32.5311 133.831 32.2392 133.788 31.9922 133.645C31.7452 133.503 31.5615 133.273 31.4782 133.001C31.4401 132.859 31.4315 132.711 31.4527 132.565C31.4739 132.42 31.5246 132.281 31.6017 132.155C31.6787 132.03 31.7806 131.922 31.9009 131.837C32.0213 131.753 32.1577 131.694 32.3018 131.663L64.6168 124.869C65.8786 125.578 65.4798 126.898 64.5541 127.092L64.5545 127.092Z" fill="#CCCCCC"/>
<path d="M65.7282 132.646L33.9826 139.321C33.7048 139.385 33.4129 139.342 33.1659 139.2C32.9189 139.057 32.7352 138.827 32.6519 138.555C32.6139 138.413 32.6052 138.265 32.6264 138.12C32.6476 137.974 32.6983 137.835 32.7754 137.71C32.8525 137.584 32.9543 137.476 33.0746 137.392C33.195 137.307 33.3314 137.248 33.4755 137.217L65.7905 130.423C67.0523 131.133 66.6535 132.452 65.7278 132.646L65.7282 132.646Z" fill="#CCCCCC"/>
<path d="M27.7883 143.926L18.0998 145.963C17.7834 146.029 17.4536 145.967 17.1828 145.791C16.912 145.615 16.7222 145.339 16.6552 145.024L14.2453 133.62C14.179 133.304 14.2408 132.975 14.4174 132.705C14.5939 132.435 14.8707 132.246 15.187 132.179L24.8754 130.142C25.1918 130.076 25.5215 130.138 25.7924 130.314C26.0632 130.49 26.2529 130.766 26.32 131.081L28.7299 142.485C28.7963 142.801 28.7344 143.13 28.5578 143.4C28.3813 143.67 28.1045 143.859 27.7883 143.926V143.926Z" fill="#CCCCCC"/>
<path d="M68.0391 144.038L19.5895 154.224C19.3117 154.289 19.0198 154.245 18.7728 154.103C18.5258 153.961 18.342 153.731 18.2588 153.459C18.2207 153.317 18.212 153.169 18.2333 153.023C18.2545 152.878 18.3052 152.738 18.3823 152.613C18.4593 152.488 18.5611 152.38 18.6815 152.295C18.8019 152.211 18.9383 152.151 19.0824 152.121L68.1018 141.815C69.3636 142.524 68.9648 143.843 68.0391 144.038V144.038Z" fill="#CCCCCC"/>
<path d="M69.2132 149.594L20.7636 159.78C20.4858 159.844 20.1939 159.801 19.9468 159.659C19.6998 159.517 19.5161 159.286 19.4329 159.014C19.3948 158.872 19.3861 158.724 19.4073 158.579C19.4286 158.434 19.4793 158.294 19.5563 158.169C19.6334 158.044 19.7352 157.936 19.8556 157.851C19.976 157.766 20.1124 157.707 20.2564 157.677L69.2759 147.371C70.5377 148.08 70.1388 149.399 69.2132 149.594Z" fill="#CCCCCC"/>
<path d="M70.3864 155.146L21.9369 165.332C21.6591 165.397 21.3671 165.353 21.1201 165.211C20.8731 165.069 20.6894 164.839 20.6062 164.566C20.5681 164.425 20.5594 164.276 20.5806 164.131C20.6019 163.986 20.6525 163.846 20.7296 163.721C20.8067 163.596 20.9085 163.488 21.0289 163.403C21.1492 163.319 21.2856 163.259 21.4297 163.229L70.4491 152.923C71.7109 153.632 71.3121 154.951 70.3864 155.146V155.146Z" fill="#CCCCCC"/>
<path d="M71.5604 160.701L23.1109 170.888C22.833 170.952 22.5411 170.909 22.2941 170.767C22.0471 170.624 21.8634 170.394 21.7801 170.122C21.7421 169.98 21.7334 169.832 21.7546 169.687C21.7758 169.541 21.8265 169.402 21.9036 169.277C21.9807 169.151 22.0825 169.043 22.2028 168.959C22.3232 168.874 22.4596 168.815 22.6037 168.784L71.6231 158.478C72.8849 159.188 72.4861 160.507 71.5604 160.701V160.701Z" fill="#CCCCCC"/>
<path d="M72.7338 166.254L24.2842 176.44C24.0064 176.505 23.7145 176.461 23.4675 176.319C23.2205 176.177 23.0368 175.947 22.9535 175.674C22.9155 175.533 22.9068 175.384 22.928 175.239C22.9492 175.094 22.9999 174.954 23.077 174.829C23.1541 174.704 23.2559 174.596 23.3762 174.511C23.4966 174.426 23.633 174.367 23.7771 174.337L72.7965 164.031C74.0583 164.74 73.6595 166.059 72.7338 166.254V166.254Z" fill="#CCCCCC"/>
<path d="M81.2862 140.825C81.1762 141.024 81.082 141.232 81.0047 141.446L61.1701 146.355L57.7196 142.795L51.6519 147.287L57.1461 154.182C57.59 154.739 58.2031 155.137 58.8932 155.317C59.5834 155.497 60.3135 155.449 60.9739 155.18L82.4963 146.408C83.2037 146.927 84.0529 147.219 84.9309 147.246C85.8089 147.272 86.6741 147.031 87.4115 146.555C88.1488 146.079 88.7233 145.39 89.0586 144.58C89.3939 143.77 89.4741 142.878 89.2885 142.021C89.1028 141.165 88.6602 140.385 88.0195 139.786C87.3788 139.187 86.5703 138.796 85.7016 138.666C84.8329 138.536 83.9451 138.673 83.1564 139.059C82.3677 139.445 81.7154 140.061 81.2863 140.825L81.2862 140.825Z" fill="#A0616A"/>
<path d="M13.5837 184.514C14.2021 184.323 14.771 184 15.2505 183.567C15.73 183.133 16.1084 182.6 16.359 182.005C16.6096 181.41 16.7263 180.767 16.7009 180.122C16.6755 179.477 16.5086 178.845 16.212 178.271L29.8617 140.43L20.3825 138.754L9.94601 176.478C9.01272 177.039 8.31813 177.922 7.99384 178.959C7.66956 179.997 7.7381 181.117 8.1865 182.108C8.6349 183.098 9.43199 183.89 10.4267 184.334C11.4215 184.777 12.5448 184.841 13.5837 184.514V184.514Z" fill="#A0616A"/>
<path d="M28.1282 147.147L18.7689 143.564C18.5026 143.462 18.2615 143.304 18.0619 143.101C17.8624 142.898 17.7091 142.654 17.6125 142.386C17.5159 142.118 17.4783 141.833 17.5022 141.55C17.5262 141.266 17.6111 140.991 17.7512 140.743L22.6611 132.06C23.1918 130.704 24.2399 129.614 25.5755 129.027C26.9112 128.441 28.4254 128.407 29.7862 128.932C31.1471 129.458 32.2435 130.5 32.8351 131.831C33.4268 133.161 33.4653 134.672 32.9423 136.03L30.7767 145.73C30.7146 146.007 30.5932 146.268 30.4208 146.495C30.2485 146.722 30.0291 146.909 29.7778 147.043C29.5265 147.178 29.249 147.257 28.9643 147.274C28.6797 147.292 28.3945 147.249 28.1282 147.147V147.147Z" fill="#FFD11F"/>
<path d="M49.2532 255.561L54.3053 255.56L56.7085 236.124L49.2524 236.124L49.2532 255.561Z" fill="#A0616A"/>
<path d="M47.9645 253.915L57.9136 253.915H57.914C58.7466 253.915 59.5711 254.078 60.3403 254.396C61.1096 254.714 61.8086 255.18 62.3973 255.767C62.9861 256.354 63.4531 257.052 63.7717 257.819C64.0904 258.586 64.2544 259.409 64.2544 260.239V260.445L47.9648 260.445L47.9645 253.915Z" fill="#2F2E41"/>
<path d="M20.8201 255.561L25.8721 255.56L28.2753 236.124L20.8192 236.124L20.8201 255.561Z" fill="#A0616A"/>
<path d="M19.5313 253.915L29.4804 253.915H29.4808C30.3134 253.915 31.1379 254.078 31.9072 254.396C32.6764 254.714 33.3754 255.18 33.9641 255.767C34.5529 256.354 35.0199 257.052 35.3386 257.819C35.6572 258.586 35.8212 259.409 35.8212 260.239V260.445L19.5317 260.445L19.5313 253.915Z" fill="#2F2E41"/>
<path d="M26.1162 247.738H19.723C19.4721 247.737 19.2238 247.687 18.9931 247.588C18.7624 247.49 18.5542 247.345 18.381 247.164C18.2079 246.983 18.0734 246.769 17.9857 246.534C17.898 246.3 17.8589 246.05 17.8708 245.8L20.9075 180.722L21.0989 180.717L51.9712 179.914L58.0124 245.029C58.0356 245.273 58.0099 245.52 57.9369 245.754C57.8638 245.988 57.7448 246.205 57.5868 246.393C57.4288 246.581 57.2349 246.736 57.0165 246.848C56.798 246.96 56.5593 247.028 56.3143 247.048L49.1333 247.621C48.6822 247.657 48.2335 247.527 47.8718 247.255C47.51 246.984 47.26 246.591 47.1689 246.148L37.9837 199.795C37.9586 199.654 37.8837 199.527 37.7727 199.436C37.6616 199.346 37.5217 199.298 37.3783 199.302H37.3758C37.232 199.299 37.0918 199.347 36.9809 199.438C36.8699 199.53 36.7956 199.658 36.7716 199.799L27.9356 246.245C27.8519 246.665 27.625 247.044 27.2933 247.316C26.9616 247.588 26.5456 247.737 26.1162 247.738V247.738Z" fill="#2F2E41"/>
<path d="M37.8273 122.68C43.4169 122.68 47.9482 118.161 47.9482 112.585C47.9482 107.01 43.4169 102.49 37.8273 102.49C32.2376 102.49 27.7063 107.01 27.7063 112.585C27.7063 118.161 32.2376 122.68 37.8273 122.68Z" fill="#A0616A"/>
<path d="M34.4335 188.348C29.6097 188.348 24.6549 187.083 20.5474 183.344C20.3288 183.146 20.1601 182.9 20.0549 182.625C19.9497 182.35 19.911 182.054 19.9419 181.762C20.3815 177.822 22.5141 157.478 21.3131 143.889C21.0788 141.35 21.439 138.792 22.3655 136.417C23.292 134.041 24.7594 131.913 26.6518 130.2C28.5111 128.49 30.7431 127.236 33.1719 126.534C35.6006 125.833 38.1595 125.704 40.6468 126.158H40.6469C40.7729 126.18 40.8989 126.204 41.025 126.228C49.1279 127.792 54.7578 135.272 54.1208 143.627C53.1912 155.818 52.3579 172.308 53.6663 181.633C53.7206 182.015 53.6538 182.404 53.4753 182.745C53.2969 183.087 53.0157 183.365 52.6713 183.539C49.6941 185.04 42.235 188.348 34.4335 188.348Z" fill="#FFD11F"/>
<path d="M47.6402 147.873C47.4028 147.716 47.2022 147.509 47.0521 147.267C46.9021 147.025 46.8062 146.753 46.771 146.471L45.5379 136.611C45.1465 135.208 45.3285 133.709 46.044 132.44C46.7596 131.171 47.9502 130.238 49.355 129.843C50.7598 129.449 52.264 129.626 53.5378 130.336C54.8117 131.047 55.7513 132.232 56.1505 133.632L60.2121 142.74C60.328 143 60.3863 143.282 60.3832 143.567C60.38 143.851 60.3154 144.132 60.1938 144.389C60.0722 144.646 59.8964 144.874 59.6784 145.058C59.4604 145.241 59.2053 145.376 58.9305 145.452L49.2726 148.133C48.9978 148.209 48.7097 148.226 48.428 148.181C48.1463 148.136 47.8776 148.031 47.6402 147.873V147.873Z" fill="#FFD11F"/>
<path d="M34.2941 122.538C33.3361 122.555 32.3841 122.384 31.4931 122.032C31.1011 121.882 30.6941 121.758 30.3028 121.607C26.8468 120.275 24.5703 116.604 24.4888 112.909C24.4072 109.215 26.3254 105.629 29.1737 103.266C32.022 100.903 35.7113 99.6894 39.4055 99.4089C43.3847 99.1067 47.8655 100.113 50.089 103.419C50.6809 104.299 51.0948 105.366 50.7441 106.428C50.6391 106.749 50.4515 107.036 50.2001 107.262C49.2071 108.143 48.2171 107.481 47.2048 107.422C45.8134 107.342 44.5637 108.465 44.1145 109.781C43.6654 111.097 43.8631 112.546 44.2258 113.888C44.5021 114.696 44.6762 115.535 44.7443 116.385C44.7735 116.812 44.6931 117.239 44.5106 117.626C44.3281 118.013 44.0495 118.347 43.7013 118.596C42.8319 119.12 41.6901 118.817 40.8201 118.293C39.9502 117.77 39.1985 117.042 38.2588 116.657C37.319 116.272 36.0566 116.358 35.5096 117.212C35.3358 117.522 35.2181 117.861 35.162 118.212C34.6717 120.441 34.7844 120.309 34.2941 122.538V122.538Z" fill="#2F2E41"/>
<path d="M78.9815 261H0.687282C0.577993 261 0.47318 260.957 0.395901 260.88C0.318622 260.803 0.275208 260.698 0.275208 260.589C0.275208 260.48 0.318622 260.375 0.395901 260.298C0.47318 260.221 0.577993 260.178 0.687282 260.178H78.9815C79.0908 260.178 79.1956 260.221 79.2729 260.298C79.3502 260.375 79.3936 260.48 79.3936 260.589C79.3936 260.698 79.3502 260.803 79.2729 260.88C79.1956 260.957 79.0908 261 78.9815 261Z" fill="#CCCCCC"/>
<path d="M279.392 176.177L223.326 207.545C221.705 208.45 219.791 208.676 218.003 208.174C216.215 207.672 214.699 206.484 213.789 204.869L188.187 159.342C187.28 157.726 187.053 155.816 187.556 154.033C188.059 152.249 189.251 150.738 190.869 149.83L246.935 118.462C248.556 117.557 250.471 117.331 252.258 117.832C254.046 118.334 255.562 119.523 256.472 121.137L282.074 166.664C282.981 168.281 283.208 170.191 282.705 171.974C282.202 173.757 281.011 175.269 279.392 176.177V176.177Z" fill="white"/>
<path d="M279.392 176.177L223.326 207.545C221.705 208.45 219.791 208.676 218.003 208.174C216.215 207.672 214.699 206.484 213.789 204.869L188.187 159.342C187.28 157.726 187.053 155.816 187.556 154.033C188.059 152.249 189.251 150.738 190.869 149.83L246.935 118.462C248.556 117.557 250.471 117.331 252.258 117.832C254.046 118.334 255.562 119.523 256.472 121.137L282.074 166.664C282.981 168.281 283.208 170.191 282.705 171.974C282.202 173.757 281.011 175.269 279.392 176.177V176.177ZM191.273 150.547C189.844 151.348 188.793 152.682 188.349 154.255C187.905 155.829 188.105 157.514 188.906 158.94L214.508 204.467C215.311 205.892 216.648 206.941 218.226 207.383C219.803 207.826 221.493 207.626 222.923 206.828L278.989 175.46C280.417 174.659 281.468 173.325 281.912 171.751C282.356 170.178 282.156 168.493 281.356 167.066L255.753 121.54C254.95 120.115 253.613 119.066 252.035 118.623C250.458 118.181 248.769 118.38 247.339 119.179L191.273 150.547Z" fill="#3F3D56"/>
<path d="M248.251 135.699L219.955 151.53C219.71 151.674 219.418 151.72 219.14 151.658C218.861 151.596 218.617 151.43 218.456 151.196C218.377 151.072 218.325 150.933 218.301 150.788C218.278 150.643 218.285 150.494 218.321 150.352C218.357 150.21 218.421 150.076 218.511 149.959C218.6 149.843 218.713 149.746 218.841 149.674L247.645 133.559C249.061 133.859 249.076 135.237 248.251 135.699L248.251 135.699Z" fill="#CCCCCC"/>
<path d="M251.035 140.649L222.739 156.48C222.493 156.625 222.202 156.67 221.924 156.608C221.645 156.546 221.401 156.381 221.24 156.146C221.161 156.022 221.108 155.883 221.085 155.738C221.062 155.593 221.069 155.445 221.105 155.303C221.141 155.16 221.205 155.027 221.295 154.91C221.384 154.793 221.497 154.696 221.625 154.624L250.429 138.509C251.845 138.81 251.86 140.188 251.035 140.649L251.035 140.649Z" fill="#CCCCCC"/>
<path d="M218.208 162.721L209.572 167.553C209.29 167.71 208.957 167.75 208.645 167.663C208.334 167.575 208.07 167.368 207.912 167.087L202.196 156.923C202.038 156.641 201.998 156.309 202.086 155.998C202.174 155.688 202.381 155.425 202.663 155.267L211.298 150.435C211.581 150.278 211.914 150.239 212.225 150.326C212.536 150.413 212.8 150.62 212.958 150.901L218.675 161.066C218.832 161.347 218.872 161.68 218.784 161.99C218.697 162.3 218.489 162.563 218.208 162.721L218.208 162.721Z" fill="#CCCCCC"/>
<path d="M256.653 150.832L213.469 174.993C213.223 175.137 212.931 175.183 212.653 175.121C212.375 175.059 212.13 174.894 211.969 174.659C211.89 174.535 211.838 174.396 211.814 174.251C211.791 174.106 211.798 173.958 211.834 173.815C211.87 173.673 211.935 173.539 212.024 173.423C212.114 173.306 212.226 173.209 212.354 173.137L256.047 148.691C257.463 148.992 257.478 150.37 256.653 150.832Z" fill="#CCCCCC"/>
<path d="M259.438 155.784L216.253 179.945C216.008 180.089 215.716 180.135 215.438 180.073C215.159 180.011 214.915 179.846 214.754 179.611C214.675 179.487 214.623 179.348 214.599 179.203C214.576 179.058 214.583 178.91 214.619 178.767C214.655 178.625 214.719 178.491 214.809 178.375C214.898 178.258 215.011 178.161 215.139 178.089L258.832 153.644C260.248 153.944 260.263 155.322 259.438 155.784V155.784Z" fill="#CCCCCC"/>
<path d="M262.221 160.733L219.036 184.894C218.79 185.038 218.499 185.084 218.221 185.022C217.942 184.96 217.698 184.794 217.537 184.56C217.458 184.436 217.406 184.297 217.382 184.152C217.359 184.007 217.366 183.858 217.402 183.716C217.438 183.574 217.502 183.44 217.592 183.323C217.681 183.207 217.794 183.11 217.922 183.038L261.615 158.592C263.031 158.893 263.046 160.271 262.221 160.733V160.733Z" fill="#CCCCCC"/>
<path d="M265.005 165.684L221.821 189.845C221.575 189.99 221.284 190.035 221.005 189.973C220.727 189.911 220.483 189.746 220.322 189.511C220.243 189.387 220.19 189.248 220.167 189.103C220.144 188.958 220.15 188.81 220.186 188.668C220.222 188.525 220.287 188.392 220.377 188.275C220.466 188.158 220.578 188.061 220.707 187.989L264.399 163.544C265.816 163.845 265.831 165.223 265.005 165.684H265.005Z" fill="#CCCCCC"/>
<path d="M267.789 170.633L224.604 194.795C224.358 194.939 224.067 194.985 223.788 194.922C223.51 194.86 223.266 194.695 223.105 194.461C223.026 194.336 222.973 194.198 222.95 194.053C222.927 193.908 222.933 193.759 222.969 193.617C223.005 193.475 223.07 193.341 223.16 193.224C223.249 193.108 223.362 193.01 223.49 192.939L267.182 168.493C268.599 168.794 268.614 170.172 267.789 170.633V170.633Z" fill="#CCCCCC"/>
<path d="M260.255 189.18C260.49 188.663 260.608 188.1 260.602 187.532C260.595 186.964 260.464 186.404 260.218 185.892C259.971 185.38 259.615 184.929 259.174 184.569C258.733 184.209 258.219 183.95 257.667 183.81L256.492 170.051L250.844 174.495L252.825 186.88C252.651 187.82 252.829 188.792 253.324 189.61C253.82 190.429 254.6 191.038 255.516 191.321C256.431 191.605 257.42 191.543 258.293 191.149C259.166 190.754 259.864 190.054 260.255 189.18V189.18Z" fill="#FFB8B8"/>
<path d="M256.599 182.369L251.908 182.927C251.67 182.955 251.428 182.934 251.199 182.865C250.969 182.796 250.756 182.68 250.573 182.525C250.39 182.37 250.241 182.179 250.136 181.964C250.03 181.749 249.971 181.515 249.96 181.275L249.276 165.491L240.385 141.263C240.028 140.511 239.866 139.683 239.912 138.852C239.958 138.022 240.211 137.216 240.649 136.509C240.867 136.167 241.116 135.845 241.394 135.55C241.941 134.962 242.623 134.515 243.381 134.246C244.138 133.978 244.95 133.896 245.746 134.008C246.567 134.117 247.349 134.42 248.029 134.891C248.709 135.362 249.266 135.988 249.654 136.717L255.453 148.836C257.878 153.906 259.023 159.49 258.788 165.102L258.134 180.716C258.117 181.124 257.956 181.514 257.68 181.816C257.403 182.117 257.029 182.312 256.622 182.366L256.599 182.369Z" fill="#FFD11F"/>
<path d="M273.258 250.586L268.909 252.49L259.476 236.665L265.895 233.854L273.258 250.586Z" fill="#FFB8B8"/>
<path d="M276.217 254.306L262.194 260.445L262.117 260.268C261.802 259.553 261.632 258.784 261.615 258.003C261.599 257.222 261.737 256.446 262.021 255.719C262.305 254.991 262.731 254.327 263.272 253.763C263.814 253.2 264.462 252.748 265.179 252.434L265.179 252.434L273.744 248.684L276.217 254.306Z" fill="#2F2E41"/>
<path d="M214.871 255.853H210.122L207.862 237.58L214.872 237.58L214.871 255.853Z" fill="#FFB8B8"/>
<path d="M216.082 260.445L200.768 260.445V260.251C200.768 259.471 200.922 258.697 201.222 257.976C201.521 257.255 201.96 256.599 202.514 256.047C203.067 255.495 203.724 255.057 204.448 254.758C205.171 254.46 205.946 254.306 206.729 254.306H206.729L216.082 254.306L216.082 260.445Z" fill="#2F2E41"/>
<path d="M261.112 249.606L234.654 190.713C234.607 190.603 234.526 190.51 234.423 190.448C234.32 190.385 234.2 190.356 234.08 190.365C233.959 190.373 233.845 190.419 233.752 190.495C233.658 190.571 233.591 190.675 233.56 190.791L217.439 247.674C217.333 248.072 217.087 248.419 216.747 248.653C216.407 248.887 215.994 248.991 215.583 248.948L206.779 248.07C206.326 248.023 205.908 247.801 205.616 247.451C205.324 247.102 205.18 246.653 205.214 246.199C208.014 211.458 212.429 178.669 225.654 157.205L225.724 157.09L245.728 161.003L272.433 245.827C272.565 246.264 272.521 246.735 272.309 247.14C272.097 247.544 271.735 247.85 271.3 247.991L263.246 250.573C262.834 250.707 262.386 250.682 261.991 250.503C261.596 250.324 261.283 250.004 261.112 249.606V249.606Z" fill="#2F2E41"/>
<path d="M235.393 127.037C240.648 127.037 244.908 122.788 244.908 117.546C244.908 112.304 240.648 108.055 235.393 108.055C230.137 108.055 225.877 112.304 225.877 117.546C225.877 122.788 230.137 127.037 235.393 127.037Z" fill="#FFB8B8"/>
<path d="M224.424 158.848L224.303 158.823L224.274 158.703C222.992 153.304 222.962 147.412 224.183 141.191C224.803 138.011 226.528 135.152 229.054 133.116C231.579 131.081 234.744 129.999 237.991 130.063V130.063C241.514 130.134 244.876 131.545 247.39 134.008C249.904 136.47 251.38 139.798 251.515 143.31C251.923 154.01 247.539 163.286 247.494 163.379L247.429 163.514L224.424 158.848Z" fill="#FFD11F"/>
<path d="M198.917 176.903C199.48 176.82 200.019 176.615 200.494 176.302C200.969 175.989 201.37 175.576 201.668 175.092C201.966 174.608 202.153 174.064 202.218 173.5C202.282 172.935 202.222 172.364 202.041 171.825L213.001 163.388L206.196 161.06L196.832 169.428C195.945 169.791 195.222 170.466 194.801 171.325C194.38 172.185 194.289 173.168 194.546 174.089C194.803 175.011 195.39 175.806 196.195 176.325C197.001 176.843 197.969 177.049 198.917 176.903V176.903Z" fill="#FFB8B8"/>
<path d="M204.903 170.541C204.546 170.751 204.126 170.827 203.718 170.756C203.309 170.684 202.94 170.469 202.677 170.149L199.667 166.518C199.514 166.334 199.4 166.12 199.334 165.89C199.268 165.66 199.25 165.418 199.282 165.181C199.313 164.944 199.394 164.716 199.518 164.511C199.642 164.306 199.807 164.129 200.003 163.99L212.935 154.868L228.539 134.29C228.979 133.584 229.59 132.999 230.315 132.588C231.039 132.177 231.856 131.954 232.689 131.937C233.095 131.935 233.501 131.97 233.901 132.042V132.042C234.692 132.183 235.438 132.512 236.075 133.002C236.712 133.492 237.22 134.129 237.557 134.857C237.91 135.604 238.078 136.424 238.049 137.249C238.021 138.074 237.795 138.88 237.391 139.6L225.837 158.264L225.812 158.304L204.903 170.541Z" fill="#FFD11F"/>
<path d="M237.094 116.957C236.393 115.806 234.845 115.481 233.502 115.613C232.158 115.744 230.851 116.215 229.501 116.204C225.753 116.175 222.859 111.618 224.435 108.226C225.728 105.443 228.956 104.222 231.876 103.263C237.999 101.252 245.032 99.3206 250.588 102.58C252.358 103.65 253.81 105.172 254.794 106.988C255.778 108.805 256.257 110.85 256.184 112.914C256.059 115.479 255.074 118.114 255.907 120.545C256.868 123.349 259.915 124.853 262.795 125.581C267.843 126.856 273.165 126.651 278.245 127.795C283.325 128.939 288.53 131.977 289.899 136.988C290.799 140.28 289.86 143.824 288.306 146.863C286.72 149.964 284.517 152.71 281.83 154.931C279.144 157.153 276.031 158.804 272.682 159.784C269.333 160.764 265.819 161.051 262.355 160.629C258.891 160.207 255.55 159.084 252.536 157.328C246.395 153.752 241.961 147.707 239.318 141.122C237.819 137.281 236.764 133.282 236.173 129.202C235.581 125.384 236.084 121.525 237.156 117.811C237.207 117.673 237.227 117.525 237.217 117.378C237.206 117.23 237.164 117.087 237.094 116.957Z" fill="#2F2E41"/>
<path d="M271.42 261H193.126C193.017 261 192.912 260.957 192.835 260.88C192.758 260.803 192.714 260.698 192.714 260.589C192.714 260.48 192.758 260.375 192.835 260.298C192.912 260.221 193.017 260.178 193.126 260.178H271.42C271.53 260.178 271.635 260.221 271.712 260.298C271.789 260.375 271.832 260.48 271.832 260.589C271.832 260.698 271.789 260.803 271.712 260.88C271.635 260.957 271.53 261 271.42 261Z" fill="#CCCCCC"/>
</svg>
