<svg width="221" height="40" viewBox="0 0 221 40" fill="none" xmlns="http://www.w3.org/2000/svg">
<path d="M63.7646 9.485C62.5513 9.08833 61.6646 8.83167 61.1046 8.715C60.2646 8.55167 59.1913 8.47 57.8846 8.47C56.6013 8.47 55.2829 8.73833 53.9296 9.275C52.7629 9.74167 51.7596 10.4067 50.9196 11.27C50.1263 12.0633 49.5079 13.0667 49.0646 14.28C48.6213 15.47 48.3996 16.8233 48.3996 18.34C48.3996 21.3033 49.2746 23.695 51.0246 25.515C51.8646 26.355 52.9029 27.0317 54.1396 27.545C55.3763 28.0583 56.7296 28.315 58.1996 28.315C60.3463 28.315 62.2713 27.895 63.9746 27.055L63.4146 25.235C61.7579 25.865 60.2529 26.18 58.8996 26.18C57.2663 26.18 55.8313 25.8417 54.5946 25.165C53.4746 24.5117 52.5879 23.6017 51.9346 22.435C51.2813 21.245 50.9546 19.8683 50.9546 18.305C50.9546 16.695 51.2346 15.3067 51.7946 14.14C52.3779 12.95 53.2063 12.04 54.2796 11.41C55.3063 10.85 56.7296 10.57 58.5496 10.57C59.4596 10.57 60.2296 10.64 60.8596 10.78C61.5129 10.8967 62.2596 11.095 63.0996 11.375L63.7646 9.485ZM72.7585 28.315C70.7285 28.315 69.1418 27.685 67.9985 26.425C66.8785 25.165 66.3185 23.4733 66.3185 21.35C66.3185 19.2033 66.8902 17.5117 68.0335 16.275C69.2002 15.015 70.8102 14.385 72.8635 14.385C74.9168 14.385 76.5035 15.0033 77.6235 16.24C78.7435 17.4767 79.3035 19.1683 79.3035 21.315C79.3035 23.415 78.7202 25.1067 77.5535 26.39C76.3868 27.6733 74.7885 28.315 72.7585 28.315ZM72.8635 16.17C71.5335 16.17 70.4952 16.66 69.7485 17.64C69.0252 18.62 68.6635 19.8567 68.6635 21.35C68.6635 22.8433 69.0252 24.0683 69.7485 25.025C70.4952 25.9817 71.5335 26.46 72.8635 26.46C74.1702 26.46 75.1852 25.9817 75.9085 25.025C76.6318 24.045 76.9935 22.82 76.9935 21.35C76.9935 19.8567 76.6202 18.62 75.8735 17.64C75.1502 16.66 74.1468 16.17 72.8635 16.17ZM86.5791 26.215C86.9291 26.215 87.3258 26.145 87.7691 26.005L88.1891 27.65C88.1191 27.6733 87.8391 27.79 87.3491 28C86.8591 28.21 86.2291 28.315 85.4591 28.315C84.5958 28.315 83.9075 28.0233 83.3941 27.44C82.8808 26.8333 82.6125 26.0517 82.5891 25.095V9.345H84.7941V24.29C84.7941 24.92 84.8991 25.3983 85.1091 25.725C85.3191 26.0517 85.8091 26.215 86.5791 26.215ZM94.2901 26.215C94.6401 26.215 95.0367 26.145 95.4801 26.005L95.9001 27.65C95.8301 27.6733 95.5501 27.79 95.0601 28C94.5701 28.21 93.9401 28.315 93.1701 28.315C92.3067 28.315 91.6184 28.0233 91.1051 27.44C90.5917 26.8333 90.3234 26.0517 90.3001 25.095V9.345H92.5051V24.29C92.5051 24.92 92.6101 25.3983 92.8201 25.725C93.0301 26.0517 93.5201 26.215 94.2901 26.215ZM102.351 16.345C101.861 16.345 101.266 16.4033 100.566 16.52C99.8893 16.6133 99.2827 16.7417 98.746 16.905L98.291 15.225C99.8543 14.6883 101.313 14.42 102.666 14.42C104.183 14.42 105.338 14.6533 106.131 15.12C106.831 15.6333 107.309 16.1817 107.566 16.765C107.846 17.3483 107.986 18.2 107.986 19.32V28H106.271L105.781 26.74C104.451 27.8133 103.086 28.35 101.686 28.35C100.473 28.35 99.446 28 98.606 27.3C97.7893 26.6 97.381 25.7133 97.381 24.64C97.381 23.59 97.696 22.7267 98.326 22.05C98.9793 21.35 99.7727 20.8833 100.706 20.65C101.896 20.3467 103.564 20.1717 105.711 20.125V20.02C105.711 19.0633 105.618 18.3633 105.431 17.92C105.058 16.87 104.031 16.345 102.351 16.345ZM102.001 26.53C102.771 26.53 103.448 26.4017 104.031 26.145C104.614 25.865 105.174 25.48 105.711 24.99V21.77C104.101 21.7933 102.911 21.8867 102.141 22.05C101.278 22.2367 100.636 22.5167 100.216 22.89C99.796 23.24 99.586 23.7417 99.586 24.395C99.586 25.0717 99.8193 25.5967 100.286 25.97C100.776 26.3433 101.348 26.53 102.001 26.53ZM111.835 28V9.38H114.11V14.91C115.02 14.49 116.105 14.28 117.365 14.28C119.255 14.28 120.795 14.84 121.985 15.96C123.222 17.1967 123.84 19.0167 123.84 21.42C123.84 23.4967 123.303 25.165 122.23 26.425C121.18 27.6617 119.663 28.28 117.68 28.28C116.373 28.28 115.102 27.8717 113.865 27.055L113.445 28H111.835ZM117.12 26.355C118.613 26.355 119.71 25.9467 120.41 25.13C121.11 24.3133 121.46 23.03 121.46 21.28C121.46 19.7167 121.087 18.4683 120.34 17.535C119.617 16.6017 118.532 16.135 117.085 16.135C115.988 16.135 114.997 16.31 114.11 16.66V25.55C114.647 25.83 115.125 26.04 115.545 26.18C115.988 26.2967 116.513 26.355 117.12 26.355ZM132.942 28.315C130.912 28.315 129.325 27.685 128.182 26.425C127.062 25.165 126.502 23.4733 126.502 21.35C126.502 19.2033 127.074 17.5117 128.217 16.275C129.384 15.015 130.994 14.385 133.047 14.385C135.1 14.385 136.687 15.0033 137.807 16.24C138.927 17.4767 139.487 19.1683 139.487 21.315C139.487 23.415 138.904 25.1067 137.737 26.39C136.57 27.6733 134.972 28.315 132.942 28.315ZM133.047 16.17C131.717 16.17 130.679 16.66 129.932 17.64C129.209 18.62 128.847 19.8567 128.847 21.35C128.847 22.8433 129.209 24.0683 129.932 25.025C130.679 25.9817 131.717 26.46 133.047 26.46C134.354 26.46 135.369 25.9817 136.092 25.025C136.815 24.045 137.177 22.82 137.177 21.35C137.177 19.8567 136.804 18.62 136.057 17.64C135.334 16.66 134.33 16.17 133.047 16.17Z" fill="#373FBF"/>
<path d="M158.173 10.15C157.216 9.59 156.224 9.17 155.198 8.89C154.194 8.61 153.074 8.47 151.838 8.47C150.041 8.47 148.431 8.90167 147.008 9.765C145.608 10.5817 144.476 11.7483 143.613 13.265C142.773 14.7817 142.353 16.5317 142.353 18.515C142.353 20.2883 142.761 21.9333 143.578 23.45C144.348 24.92 145.444 26.0983 146.868 26.985C148.291 27.8483 149.878 28.28 151.628 28.28C153.354 28.28 154.906 27.965 156.283 27.335C157.356 26.8683 158.254 26.2733 158.978 25.55V17.815H151.313V19.705H156.843V24.815C156.306 25.2583 155.629 25.6083 154.813 25.865C154.019 26.1217 153.238 26.25 152.468 26.25C151.721 26.25 151.044 26.1683 150.438 26.005C149.831 25.8183 149.189 25.5383 148.513 25.165C147.416 24.535 146.541 23.6367 145.888 22.47C145.234 21.28 144.908 19.9033 144.908 18.34C144.908 16.8933 145.176 15.5983 145.713 14.455C146.249 13.3117 147.089 12.3667 148.233 11.62C149.399 10.8733 150.671 10.5 152.048 10.5C152.864 10.5 153.751 10.6283 154.708 10.885C155.688 11.1417 156.539 11.4567 157.263 11.83L158.173 10.15ZM168.298 14.385C168.811 14.385 169.219 14.42 169.523 14.49C169.849 14.5367 170.164 14.63 170.468 14.77L169.663 16.8C169.056 16.52 168.391 16.38 167.668 16.38C166.688 16.38 165.719 16.7067 164.763 17.36V28H162.488V14.56H164.133L164.623 15.715C165.789 14.8283 167.014 14.385 168.298 14.385ZM178.131 14.385C179.905 14.385 181.27 14.9217 182.226 15.995C183.183 17.045 183.661 18.5383 183.661 20.475V21.7L183.521 21.98H174.316C174.316 23.1233 174.748 24.185 175.611 25.165C176.428 25.9817 177.7 26.39 179.426 26.39C180.57 26.39 181.655 26.215 182.681 25.865L183.101 27.545C181.678 28.035 180.243 28.28 178.796 28.28C176.626 28.28 174.97 27.6967 173.826 26.53C172.683 25.3633 172.111 23.695 172.111 21.525C172.111 19.4717 172.613 17.78 173.616 16.45C174.69 15.0733 176.195 14.385 178.131 14.385ZM181.351 20.16C181.351 18.9933 181.095 18.0367 180.581 17.29C180.091 16.5433 179.356 16.17 178.376 16.17C177.14 16.17 176.195 16.5433 175.541 17.29C174.888 18.0367 174.491 18.9933 174.351 20.16H181.351ZM191.218 16.345C190.728 16.345 190.133 16.4033 189.433 16.52C188.757 16.6133 188.15 16.7417 187.613 16.905L187.158 15.225C188.722 14.6883 190.18 14.42 191.533 14.42C193.05 14.42 194.205 14.6533 194.998 15.12C195.698 15.6333 196.177 16.1817 196.433 16.765C196.713 17.3483 196.853 18.2 196.853 19.32V28H195.138L194.648 26.74C193.318 27.8133 191.953 28.35 190.553 28.35C189.34 28.35 188.313 28 187.473 27.3C186.657 26.6 186.248 25.7133 186.248 24.64C186.248 23.59 186.563 22.7267 187.193 22.05C187.847 21.35 188.64 20.8833 189.573 20.65C190.763 20.3467 192.432 20.1717 194.578 20.125V20.02C194.578 19.0633 194.485 18.3633 194.298 17.92C193.925 16.87 192.898 16.345 191.218 16.345ZM190.868 26.53C191.638 26.53 192.315 26.4017 192.898 26.145C193.482 25.865 194.042 25.48 194.578 24.99V21.77C192.968 21.7933 191.778 21.8867 191.008 22.05C190.145 22.2367 189.503 22.5167 189.083 22.89C188.663 23.24 188.453 23.7417 188.453 24.395C188.453 25.0717 188.687 25.5967 189.153 25.97C189.643 26.3433 190.215 26.53 190.868 26.53ZM205.252 28.28C203.899 28.28 202.93 27.9183 202.347 27.195C201.787 26.4483 201.507 25.3283 201.507 23.835V16.45H199.232V14.56H201.507V11.27L203.782 11.095V14.56H208.192V16.45H203.782V23.695C203.782 24.6283 203.922 25.305 204.202 25.725C204.505 26.145 205.077 26.355 205.917 26.355C206.71 26.355 207.422 26.285 208.052 26.145L208.437 27.685C207.387 28.0817 206.325 28.28 205.252 28.28Z" fill="#21BF54"/>
<g clip-path="url(#clip0)">
<ellipse cx="14.0878" cy="3.31497" rx="3.25085" ry="3.20856" fill="#E81410"/>
<ellipse cx="37.0729" cy="13.9027" rx="3.25084" ry="3.20856" fill="#FFD11F"/>
<ellipse cx="3.35866" cy="26.0029" rx="3.25085" ry="3.20856" fill="#373FBF"/>
<ellipse cx="26.3456" cy="36.5906" rx="3.25085" ry="3.20855" fill="#21BF54"/>
<rect width="6.45954" height="12.9191" rx="3.22977" transform="matrix(0.711721 -0.702462 0.711721 0.702462 15.6184 9.36508)" fill="#E81410"/>
<rect width="6.45954" height="12.9191" rx="3.22977" transform="matrix(0.711721 0.702462 -0.711721 0.702462 30.943 15.4152)" fill="#FFD11F"/>
<rect width="6.45954" height="12.9191" rx="3.22977" transform="matrix(-0.711721 -0.702462 0.711721 -0.702462 9.48852 24.4904)" fill="#373FBF"/>
<rect width="6.45954" height="12.9191" rx="3.22977" transform="matrix(-0.711721 0.702462 -0.711721 -0.702462 24.8132 30.5405)" fill="#21BF54"/>
</g>
<defs>
<clipPath id="clip0">
<rect width="40.5272" height="40" fill="white"/>
</clipPath>
</defs>
</svg>
