<svg width="221" height="41" viewBox="0 0 221 41" fill="none" xmlns="http://www.w3.org/2000/svg">
<g clip-path="url(#clip0)">
<path d="M64.8133 10.0734C63.5247 9.65214 62.583 9.3795 61.9883 9.25562C61.0962 9.08213 59.9562 8.99542 58.5685 8.99542C57.2056 8.99542 55.8055 9.28042 54.3682 9.85036C53.1292 10.346 52.0636 11.0522 51.1714 11.9691C50.3289 12.8117 49.6722 13.8772 49.2014 15.1659C48.7305 16.4297 48.4951 17.867 48.4951 19.4777C48.4951 22.6249 49.4244 25.1649 51.283 27.0978C52.1751 27.9899 53.2778 28.7086 54.5912 29.2538C55.9046 29.799 57.3419 30.0715 58.9031 30.0715C61.1829 30.0715 63.2273 29.6255 65.0363 28.7334L64.4416 26.8005C62.6822 27.4695 61.0838 27.8041 59.6465 27.8041C57.9118 27.8041 56.3878 27.4447 55.0744 26.7261C53.8849 26.0322 52.9433 25.0658 52.2494 23.8268C51.5555 22.5629 51.2086 21.1009 51.2086 19.4405C51.2086 17.7307 51.506 16.2562 52.1007 15.0172C52.7203 13.7533 53.5999 12.7869 54.7399 12.1178C55.8302 11.5231 57.3419 11.2257 59.2748 11.2257C60.2412 11.2257 61.059 11.3 61.7281 11.4487C62.422 11.5726 63.2149 11.7833 64.107 12.0806L64.8133 10.0734ZM74.3648 30.0715C72.2089 30.0715 70.524 29.4024 69.3095 28.0643C68.1201 26.7261 67.5256 24.9295 67.5256 22.6744C67.5256 20.3946 68.1329 18.598 69.3467 17.2846C70.5862 15.9464 72.2961 15.2774 74.4763 15.2774C76.6573 15.2774 78.3421 15.9341 79.5316 17.2474C80.7211 18.5608 81.3158 20.3575 81.3158 22.6373C81.3158 24.8675 80.6968 26.6641 79.4573 28.0271C78.2185 29.3901 76.5208 30.0715 74.3648 30.0715ZM74.4763 17.1731C73.0638 17.1731 71.9615 17.6935 71.1681 18.7343C70.4003 19.7751 70.0158 21.0884 70.0158 22.6744C70.0158 24.2604 70.4003 25.5614 71.1681 26.5774C71.9615 27.5934 73.0638 28.1014 74.4763 28.1014C75.8645 28.1014 76.9425 27.5934 77.7102 26.5774C78.4787 25.5366 78.8625 24.2356 78.8625 22.6744C78.8625 21.0884 78.4665 19.7751 77.6731 18.7343C76.9053 17.6935 75.8395 17.1731 74.4763 17.1731ZM89.0434 27.8412C89.4151 27.8412 89.8362 27.7669 90.3072 27.6182L90.7533 29.3653C90.6789 29.3901 90.3816 29.514 89.8612 29.737C89.3408 29.96 88.6717 30.0715 87.8539 30.0715C86.9368 30.0715 86.2056 29.7618 85.6608 29.1422C85.1154 28.498 84.8302 27.6678 84.8059 26.6518V9.9247H87.1477V25.7968C87.1477 26.4659 87.2592 26.9739 87.4822 27.3208C87.7052 27.6678 88.2256 27.8412 89.0434 27.8412ZM97.2326 27.8412C97.6043 27.8412 98.0253 27.7669 98.4964 27.6182L98.9425 29.3653C98.8681 29.3901 98.5707 29.514 98.0503 29.737C97.5299 29.96 96.8609 30.0715 96.0431 30.0715C95.126 30.0715 94.3947 29.7618 93.85 29.1422C93.3046 28.498 93.0194 27.6678 92.9951 26.6518V9.9247H95.3368V25.7968C95.3368 26.4659 95.4484 26.9739 95.6714 27.3208C95.8944 27.6678 96.4148 27.8412 97.2326 27.8412ZM105.793 17.359C105.273 17.359 104.641 17.4209 103.898 17.5448C103.179 17.644 102.535 17.7802 101.965 17.9537L101.482 16.1695C103.142 15.5995 104.69 15.3145 106.128 15.3145C107.739 15.3145 108.965 15.5624 109.808 16.058C110.551 16.6032 111.06 17.1855 111.332 17.805C111.629 18.4246 111.778 19.329 111.778 20.5185V29.737H109.957L109.436 28.3988C108.024 29.5388 106.574 30.1087 105.087 30.1087C103.798 30.1087 102.708 29.737 101.816 28.9936C100.949 28.2501 100.515 27.3085 100.515 26.1685C100.515 25.0534 100.85 24.1365 101.519 23.4179C102.213 22.6744 103.055 22.1788 104.046 21.931C105.31 21.6088 107.082 21.423 109.362 21.3734V21.2619C109.362 20.2459 109.263 19.5025 109.065 19.0317C108.668 17.9165 107.578 17.359 105.793 17.359ZM105.422 28.1758C106.24 28.1758 106.958 28.0395 107.578 27.7669C108.197 27.4695 108.792 27.0607 109.362 26.5403V23.1205C107.652 23.1453 106.388 23.2444 105.57 23.4179C104.653 23.6161 103.972 23.9135 103.526 24.31C103.08 24.6817 102.857 25.2145 102.857 25.9083C102.857 26.627 103.105 27.1845 103.6 27.581C104.121 27.9776 104.728 28.1758 105.422 28.1758ZM115.866 29.737V9.96187H118.282V15.8349C119.248 15.3889 120.4 15.1659 121.739 15.1659C123.746 15.1659 125.381 15.7606 126.645 16.9501C127.959 18.2634 128.615 20.1963 128.615 22.7488C128.615 24.9543 128.046 26.7261 126.905 28.0643C125.79 29.3776 124.18 30.0344 122.073 30.0344C120.686 30.0344 119.335 29.6007 118.021 28.7334L117.575 29.737H115.866ZM121.478 27.9899C123.065 27.9899 124.229 27.5562 124.972 26.6889C125.716 25.8216 126.088 24.4587 126.088 22.6001C126.088 20.9398 125.692 19.614 124.898 18.6228C124.13 17.6315 122.978 17.1359 121.441 17.1359C120.277 17.1359 119.224 17.3218 118.282 17.6935V27.135C118.852 27.4324 119.36 27.6554 119.806 27.8041C120.277 27.928 120.834 27.9899 121.478 27.9899ZM138.282 30.0715C136.127 30.0715 134.441 29.4024 133.227 28.0643C132.038 26.7261 131.443 24.9295 131.443 22.6744C131.443 20.3946 132.05 18.598 133.264 17.2846C134.503 15.9464 136.213 15.2774 138.394 15.2774C140.574 15.2774 142.26 15.9341 143.449 17.2474C144.639 18.5608 145.234 20.3575 145.234 22.6373C145.234 24.8675 144.614 26.6641 143.375 28.0271C142.135 29.3901 140.438 30.0715 138.282 30.0715ZM138.394 17.1731C136.981 17.1731 135.879 17.6935 135.086 18.7343C134.317 19.7751 133.933 21.0884 133.933 22.6744C133.933 24.2604 134.317 25.5614 135.086 26.5774C135.879 27.5934 136.981 28.1014 138.394 28.1014C139.782 28.1014 140.859 27.5934 141.628 26.5774C142.396 25.5366 142.78 24.2356 142.78 22.6744C142.78 21.0884 142.383 19.7751 141.591 18.7343C140.822 17.6935 139.756 17.1731 138.394 17.1731Z" fill="#0995E3"/>
<path d="M165.078 10.7796C164.062 10.1849 163.009 9.73885 161.919 9.44148C160.853 9.14411 159.663 8.99542 158.35 8.99542C156.442 8.99542 154.732 9.45385 153.221 10.3708C151.734 11.2381 150.531 12.4772 149.615 14.0879C148.723 15.6986 148.277 17.5572 148.277 19.6636C148.277 21.5469 148.71 23.294 149.578 24.9047C150.395 26.4659 151.56 27.7174 153.072 28.659C154.583 29.5759 156.269 30.0344 158.127 30.0344C159.961 30.0344 161.608 29.6998 163.071 29.0307C164.21 28.5351 165.165 27.9032 165.933 27.135V18.9201H157.793V20.9274H163.666V26.3544C163.095 26.8253 162.377 27.197 161.51 27.4695C160.667 27.7421 159.837 27.8784 159.019 27.8784C158.226 27.8784 157.507 27.7917 156.863 27.6182C156.219 27.42 155.537 27.1226 154.819 26.7261C153.654 26.057 152.724 25.1029 152.031 23.8639C151.337 22.6001 150.99 21.1381 150.99 19.4777C150.99 17.9413 151.275 16.566 151.845 15.3517C152.415 14.1374 153.307 13.1338 154.522 12.3408C155.76 11.5479 157.111 11.1514 158.573 11.1514C159.44 11.1514 160.382 11.2877 161.398 11.5602C162.439 11.8328 163.343 12.1673 164.112 12.5639L165.078 10.7796ZM175.831 15.2774C176.376 15.2774 176.81 15.3145 177.132 15.3889C177.479 15.4384 177.814 15.5376 178.135 15.6862L177.28 17.8422C176.636 17.5448 175.93 17.3961 175.162 17.3961C174.121 17.3961 173.093 17.743 172.076 18.4369V29.737H169.66V15.4632H171.407L171.928 16.6899C173.167 15.7482 174.468 15.2774 175.831 15.2774ZM186.275 15.2774C188.158 15.2774 189.608 15.8473 190.624 16.9872C191.64 18.1024 192.148 19.6884 192.148 21.7452V23.0462L192 23.3435H182.224C182.224 24.5578 182.682 25.6853 183.599 26.7261C184.466 27.5934 185.816 28.0271 187.651 28.0271C188.864 28.0271 190.017 27.8412 191.107 27.4695L191.554 29.2538C190.042 29.7742 188.518 30.0344 186.981 30.0344C184.677 30.0344 182.917 29.4148 181.703 28.1758C180.489 26.9368 179.882 25.1649 179.882 22.8603C179.882 20.6796 180.414 18.883 181.48 17.4705C182.62 16.0084 184.218 15.2774 186.275 15.2774ZM189.695 21.4106C189.695 20.1716 189.422 19.1555 188.877 18.3626C188.357 17.5696 187.576 17.1731 186.535 17.1731C185.222 17.1731 184.218 17.5696 183.525 18.3626C182.83 19.1555 182.409 20.1716 182.261 21.4106H189.695ZM200.173 17.359C199.653 17.359 199.021 17.4209 198.277 17.5448C197.559 17.644 196.915 17.7802 196.345 17.9537L195.861 16.1695C197.522 15.5995 199.071 15.3145 200.508 15.3145C202.119 15.3145 203.346 15.5624 204.188 16.058C204.931 16.6032 205.439 17.1855 205.712 17.805C206.009 18.4246 206.158 19.329 206.158 20.5185V29.737H204.336L203.816 28.3988C202.404 29.5388 200.954 30.1087 199.467 30.1087C198.179 30.1087 197.088 29.737 196.196 28.9936C195.329 28.2501 194.895 27.3085 194.895 26.1685C194.895 25.0534 195.229 24.1365 195.899 23.4179C196.593 22.6744 197.435 22.1788 198.426 21.931C199.69 21.6088 201.462 21.423 203.742 21.3734V21.2619C203.742 20.2459 203.643 19.5025 203.444 19.0317C203.048 17.9165 201.957 17.359 200.173 17.359ZM199.802 28.1758C200.619 28.1758 201.338 28.0395 201.957 27.7669C202.577 27.4695 203.172 27.0607 203.742 26.5403V23.1205C202.032 23.1453 200.768 23.2444 199.95 23.4179C199.034 23.6161 198.352 23.9135 197.906 24.31C197.46 24.6817 197.237 25.2145 197.237 25.9083C197.237 26.627 197.485 27.1845 197.98 27.581C198.501 27.9776 199.108 28.1758 199.802 28.1758ZM215.078 30.0344C213.641 30.0344 212.612 29.6503 211.993 28.882C211.398 28.0891 211.101 26.8996 211.101 25.3136V17.4705H208.685V15.4632H211.101V11.9691L213.517 11.7833V15.4632H218.201V17.4705H213.517V25.1649C213.517 26.1562 213.666 26.8748 213.963 27.3208C214.285 27.7669 214.892 27.9899 215.784 27.9899C216.627 27.9899 217.383 27.9156 218.052 27.7669L218.461 29.4024C217.346 29.8237 216.218 30.0344 215.078 30.0344Z" fill="#21BF54"/>
<path d="M14.0879 6.61326C15.8833 6.61326 17.3387 5.15698 17.3387 3.36056C17.3387 1.56414 15.8833 0.107849 14.0879 0.107849C12.2925 0.107849 10.837 1.56414 10.837 3.36056C10.837 5.15698 12.2925 6.61326 14.0879 6.61326Z" fill="#E81410"/>
<path d="M37.0729 17.3467C38.8683 17.3467 40.3237 15.8904 40.3237 14.094C40.3237 12.2975 38.8683 10.8412 37.0729 10.8412C35.2775 10.8412 33.822 12.2975 33.822 14.094C33.822 15.8904 35.2775 17.3467 37.0729 17.3467Z" fill="#FFD11F"/>
<path d="M3.35864 29.6134C5.15403 29.6134 6.60949 28.1571 6.60949 26.3607C6.60949 24.5643 5.15403 23.108 3.35864 23.108C1.56324 23.108 0.107788 24.5643 0.107788 26.3607C0.107788 28.1571 1.56324 29.6134 3.35864 29.6134Z" fill="#0995E3"/>
<path d="M26.3456 40.3468C28.141 40.3468 29.5964 38.8906 29.5964 37.0941C29.5964 35.2977 28.141 33.8414 26.3456 33.8414C24.5502 33.8414 23.0947 35.2977 23.0947 37.0941C23.0947 38.8906 24.5502 40.3468 26.3456 40.3468Z" fill="#21BF54"/>
<path d="M22.5144 7.19401C21.2448 5.92375 19.1865 5.92375 17.917 7.19401C16.6474 8.46427 16.6474 10.5238 17.917 11.794L22.5144 16.394C23.7839 17.6643 25.8422 17.6643 27.1118 16.394C28.3813 15.1238 28.3813 13.0643 27.1117 11.794L22.5144 7.19401Z" fill="#E81410"/>
<path d="M33.2417 22.5274C34.5112 21.2571 34.5112 19.1976 33.2417 17.9273C31.9722 16.6571 29.9138 16.6571 28.6443 17.9273L24.0469 22.5273C22.7774 23.7976 22.7774 25.8571 24.0469 27.1274C25.3164 28.3976 27.3748 28.3976 28.6443 27.1274L33.2417 22.5274Z" fill="#FFD11F"/>
<path d="M7.18983 17.9274C5.9203 19.1976 5.9203 21.2571 7.18983 22.5274C8.45936 23.7976 10.5177 23.7976 11.7872 22.5274L16.3846 17.9274C17.6541 16.6571 17.6541 14.5976 16.3846 13.3273C15.1151 12.0571 13.0567 12.0571 11.7872 13.3273L7.18983 17.9274Z" fill="#0995E3"/>
<path d="M17.917 33.2608C19.1866 34.531 21.2449 34.531 22.5144 33.2608C23.7839 31.9905 23.7839 29.931 22.5144 28.6607L17.917 24.0607C16.6475 22.7905 14.5892 22.7905 13.3196 24.0607C12.0501 25.331 12.0501 27.3905 13.3196 28.6608L17.917 33.2608Z" fill="#21BF54"/>
</g>
<defs>
<clipPath id="clip0">
<rect width="221" height="40.5505" fill="white"/>
</clipPath>
</defs>
</svg>
