<svg width="150" height="81" viewBox="0 0 150 81" fill="none" xmlns="http://www.w3.org/2000/svg">
<path d="M13.73 73.8598C13.7322 75.192 13.3441 76.4957 12.6137 77.6102C12.4607 77.8452 12.2929 78.0703 12.1115 78.2842C11.6861 78.7879 11.1906 79.2279 10.6401 79.5909C10.4904 79.69 10.3365 79.7829 10.1784 79.8694C9.35567 80.3242 8.44756 80.6037 7.51135 80.6903C7.29856 80.711 7.08222 80.7209 6.86398 80.7209C6.26582 80.7215 5.67016 80.6437 5.09226 80.4894C4.76469 80.4034 4.44425 80.2922 4.13382 80.1568C3.97515 80.0883 3.82008 80.0138 3.66859 79.9334C3.3042 79.7422 2.95804 79.5181 2.63441 79.2639C2.48386 79.1468 2.3387 79.0233 2.19895 78.8935C1.36278 78.1191 0.732725 77.1489 0.365648 76.0702C-0.00142898 74.9916 -0.0939677 73.8386 0.0963824 72.7153C0.286733 71.592 0.75398 70.5338 1.45595 69.6361C2.15792 68.7384 3.07252 68.0296 4.11718 67.5736C5.16184 67.1176 6.30369 66.9287 7.43966 67.0241C8.57562 67.1195 9.66994 67.496 10.6238 68.1198C11.5777 68.7437 12.3612 69.5951 12.9035 70.5972C13.4458 71.5993 13.7298 72.7206 13.73 73.8599V73.8598Z" fill="#FFD11F"/>
<path d="M7.28523 70.6568H6.44357V77.061H7.28523V70.6568Z" fill="white"/>
<path d="M10.0683 74.2795V73.4384H3.66031V74.2795H10.0683Z" fill="white"/>
<path d="M6.86667 13.7333C10.659 13.7333 13.7333 10.659 13.7333 6.86667C13.7333 3.07431 10.659 0 6.86667 0C3.07431 0 0 3.07431 0 6.86667C0 10.659 3.07431 13.7333 6.86667 13.7333Z" fill="#FFD11F"/>
<path d="M33.7552 3.1386C33.1219 3.15478 32.518 3.55858 32.0738 4.26293C31.6297 4.96728 31.3807 5.91573 31.3807 6.90377C31.3807 7.89181 31.6297 8.84027 32.0738 9.54461C32.518 10.249 33.1219 10.6528 33.7552 10.6689H147.546C148.187 10.6853 148.805 10.3044 149.265 9.60986C149.725 8.91534 149.989 7.96417 150 6.96558C150.01 5.967 149.766 5.0028 149.321 4.2851C148.876 3.5674 148.266 3.15499 147.626 3.1386C147.599 3.1379 147.573 3.1379 147.546 3.1386H33.7552Z" fill="#FFD11F"/>
<path d="M6.86667 47.0857C10.659 47.0857 13.7333 44.0114 13.7333 40.2191C13.7333 36.4267 10.659 33.3524 6.86667 33.3524C3.07431 33.3524 0 36.4267 0 40.2191C0 44.0114 3.07431 47.0857 6.86667 47.0857Z" fill="#FFD11F"/>
<path d="M33.7551 36.4022C33.1218 36.4184 32.518 36.8223 32.0738 37.5266C31.6297 38.231 31.3807 39.1794 31.3807 40.1674C31.3807 41.1554 31.6297 42.1038 32.0738 42.8082C32.518 43.5125 33.1218 43.9164 33.7551 43.9326H147.548C148.188 43.9482 148.806 43.5669 149.265 42.8724C149.725 42.178 149.989 41.2272 150 40.2292C150.01 39.2311 149.766 38.2673 149.321 37.5497C148.877 36.8321 148.267 36.4193 147.627 36.4022C147.601 36.4015 147.575 36.4015 147.548 36.4022H33.7551Z" fill="#FFD11F"/>
<path d="M33.7551 70.2934C33.1218 70.3083 32.518 70.6784 32.0738 71.3241C31.6297 71.9697 31.3807 72.8391 31.3807 73.7448C31.3807 74.6505 31.6297 75.5199 32.0738 76.1655C32.518 76.8112 33.1218 77.1814 33.7551 77.1963H147.548C148.188 77.2106 148.806 76.861 149.265 76.2244C149.725 75.5879 149.989 74.7164 150 73.8014C150.01 72.8865 149.766 72.0031 149.321 71.3453C148.877 70.6875 148.267 70.3091 147.627 70.2934C147.601 70.2927 147.575 70.2927 147.548 70.2934H33.7551Z" fill="#E6E6E6"/>
</svg>
