<svg width="150" height="84" viewBox="0 0 150 84" fill="none" xmlns="http://www.w3.org/2000/svg">
<path d="M1 2.5L0.5 4V77.5L1 81L3 82.5L5 83H145L147.5 82L149 80.5L149.5 79.5V78V7V3.5L148.5 2L147.5 1L146 0.5H145H18H4L2.5 1L1 2.5Z" fill="white"/>
<path d="M145 0.25H5C2.37665 0.25 0.25 2.37665 0.25 5V78.1933C0.25 80.8167 2.37665 82.9433 5 82.9433H145C147.623 82.9433 149.75 80.8167 149.75 78.1933V5C149.75 2.37665 147.623 0.25 145 0.25Z" stroke="black" stroke-width="0.5"/>
<path d="M143.877 12.1491H4.66028C4.59926 12.1491 4.54073 12.1249 4.49758 12.0819C4.45442 12.0389 4.43018 11.9805 4.43018 11.9196C4.43018 11.8588 4.45442 11.8004 4.49758 11.7574C4.54073 11.7144 4.59926 11.6902 4.66028 11.6902H143.877C143.938 11.6902 143.996 11.7144 144.039 11.7574C144.082 11.8004 144.107 11.8588 144.107 11.9196C144.107 11.9805 144.082 12.0389 144.039 12.0819C143.996 12.1249 143.938 12.1491 143.877 12.1491Z" fill="#3F3D56"/>
<path d="M44.009 79.9867C43.948 79.9867 43.8895 79.9625 43.8463 79.9195C43.8031 79.8765 43.7789 79.8181 43.7789 79.7573V4.26243C43.7789 4.20157 43.8031 4.1432 43.8463 4.10017C43.8895 4.05713 43.948 4.03296 44.009 4.03296C44.07 4.03296 44.1286 4.05713 44.1717 4.10017C44.2149 4.1432 44.2391 4.20157 44.2391 4.26243V79.7573C44.2391 79.8181 44.2149 79.8765 44.1717 79.9195C44.1286 79.9625 44.07 79.9867 44.009 79.9867Z" fill="#3F3D56"/>
<path d="M78.7556 79.9867C78.6946 79.9867 78.6361 79.9625 78.5929 79.9195C78.5498 79.8765 78.5255 79.8181 78.5255 79.7573V4.26243C78.5255 4.20157 78.5498 4.1432 78.5929 4.10017C78.6361 4.05713 78.6946 4.03296 78.7556 4.03296C78.8166 4.03296 78.8751 4.05713 78.9183 4.10017C78.9614 4.1432 78.9857 4.20157 78.9857 4.26243V79.7573C78.9857 79.8181 78.9614 79.8765 78.9183 79.9195C78.8751 79.9625 78.8166 79.9867 78.7556 79.9867Z" fill="#3F3D56"/>
<path d="M113.502 79.9867C113.441 79.9867 113.383 79.9625 113.339 79.9195C113.296 79.8765 113.272 79.8181 113.272 79.7573V4.26243C113.272 4.20157 113.296 4.1432 113.339 4.10017C113.383 4.05713 113.441 4.03296 113.502 4.03296C113.563 4.03296 113.622 4.05713 113.665 4.10017C113.708 4.1432 113.732 4.20157 113.732 4.26243V79.7573C113.732 79.8181 113.708 79.8765 113.665 79.9195C113.622 79.9625 113.563 79.9867 113.502 79.9867Z" fill="#3F3D56"/>
<path d="M21.6689 35.8342H13.2608C12.9862 35.8339 12.723 35.7251 12.5289 35.5315C12.3348 35.3379 12.2256 35.0754 12.2253 34.8016V24.9071C12.2256 24.6333 12.3348 24.3708 12.5289 24.1773C12.723 23.9837 12.9862 23.8748 13.2608 23.8745H21.6689C21.9435 23.8748 22.2067 23.9837 22.4008 24.1773C22.5949 24.3708 22.7041 24.6333 22.7044 24.9071V34.8017C22.7041 35.0754 22.5949 35.3379 22.4008 35.5315C22.2067 35.7251 21.9435 35.8339 21.6689 35.8342Z" fill="#0995E3"/>
<path d="M33.6347 64.0589H25.2265C24.952 64.0586 24.6888 63.9497 24.4946 63.7561C24.3005 63.5625 24.1913 63.3 24.191 63.0263V53.1317C24.1913 52.8579 24.3005 52.5955 24.4946 52.4019C24.6888 52.2083 24.952 52.0994 25.2265 52.0991H33.6347C33.9092 52.0994 34.1724 52.2083 34.3666 52.4019C34.5607 52.5955 34.6699 52.8579 34.6702 53.1317V63.0263C34.6699 63.3 34.5607 63.5625 34.3666 63.7561C34.1724 63.9497 33.9092 64.0586 33.6347 64.0589Z" fill="#0995E3"/>
<path d="M60.7877 41.8005H52.3794C52.1049 41.8002 51.8417 41.6913 51.6476 41.4977C51.4534 41.3041 51.3442 41.0417 51.3439 40.7679V30.8734C51.3442 30.5996 51.4534 30.3371 51.6476 30.1435C51.8417 29.9499 52.1049 29.8411 52.3794 29.8408H60.7877C61.0622 29.8411 61.3254 29.9499 61.5195 30.1435C61.7136 30.3371 61.8228 30.5996 61.8232 30.8734V40.7679C61.8228 41.0417 61.7136 41.3041 61.5195 41.4977C61.3254 41.6913 61.0622 41.8002 60.7877 41.8005Z" fill="#0995E3"/>
<path d="M95.9944 31.0154H87.5862C87.3117 31.0151 87.0485 30.9062 86.8543 30.7126C86.6602 30.5191 86.551 30.2566 86.5507 29.9828V20.0883C86.551 19.8145 86.6602 19.552 86.8543 19.3584C87.0485 19.1649 87.3117 19.056 87.5862 19.0557H95.9944C96.2689 19.056 96.5321 19.1649 96.7263 19.3584C96.9204 19.552 97.0296 19.8145 97.0299 20.0883V29.9828C97.0296 30.2566 96.9204 30.5191 96.7263 30.7126C96.5321 30.9062 96.2689 31.0151 95.9944 31.0154Z" fill="#0995E3"/>
<path d="M128.44 31.0154H120.032C119.757 31.0151 119.494 30.9062 119.3 30.7126C119.106 30.5191 118.996 30.2566 118.996 29.9828V20.0883C118.996 19.8145 119.106 19.552 119.3 19.3584C119.494 19.1649 119.757 19.056 120.032 19.0557H128.44C128.714 19.056 128.978 19.1649 129.172 19.3584C129.366 19.552 129.475 19.8145 129.475 20.0883V29.9828C129.475 30.2566 129.366 30.5191 129.172 30.7126C128.978 30.9062 128.714 31.0151 128.44 31.0154Z" fill="#0995E3"/>
<path d="M143.397 33.769H134.989C134.714 33.7687 134.451 33.6598 134.257 33.4663C134.063 33.2727 133.954 33.0102 133.953 32.7364V22.8419C133.954 22.5681 134.063 22.3056 134.257 22.1121C134.451 21.9185 134.714 21.8096 134.989 21.8093H143.397C143.672 21.8096 143.935 21.9185 144.129 22.1121C144.323 22.3056 144.432 22.5681 144.432 22.8419V32.7364C144.432 33.0102 144.323 33.2727 144.129 33.4663C143.935 33.6598 143.672 33.7687 143.397 33.769Z" fill="#E6E6E6"/>
<path d="M136.724 51.438H128.316C128.041 51.4377 127.778 51.3288 127.584 51.1353C127.39 50.9417 127.28 50.6792 127.28 50.4054V40.5109C127.28 40.2371 127.39 39.9747 127.584 39.7811C127.778 39.5875 128.041 39.4786 128.316 39.4783H136.724C136.998 39.4786 137.262 39.5875 137.456 39.7811C137.65 39.9747 137.759 40.2371 137.759 40.5109V50.4054C137.759 50.6792 137.65 50.9417 137.456 51.1353C137.262 51.3288 136.998 51.4377 136.724 51.438Z" fill="#E6E6E6"/>
<path d="M108.19 47.7667H99.782C99.5075 47.7664 99.2443 47.6575 99.0502 47.4639C98.856 47.2703 98.7469 47.0078 98.7466 46.7341V36.8395C98.7469 36.5657 98.856 36.3033 99.0502 36.1097C99.2443 35.9161 99.5075 35.8072 99.782 35.8069H108.19C108.465 35.8072 108.728 35.9161 108.922 36.1097C109.116 36.3033 109.225 36.5657 109.226 36.8395V46.7341C109.225 47.0078 109.116 47.2703 108.922 47.4639C108.728 47.6575 108.465 47.7664 108.19 47.7667Z" fill="#FFD11F"/>
<path d="M91.8524 51.438H83.4442C83.1697 51.4377 82.9065 51.3288 82.7123 51.1353C82.5182 50.9417 82.409 50.6792 82.4087 50.4054V40.5109C82.409 40.2371 82.5182 39.9747 82.7123 39.7811C82.9065 39.5875 83.1697 39.4786 83.4442 39.4783H91.8524C92.127 39.4786 92.3902 39.5875 92.5843 39.7811C92.7784 39.9747 92.8876 40.2371 92.8879 40.5109V50.4054C92.8876 50.6792 92.7784 50.9417 92.5843 51.1353C92.3902 51.3288 92.127 51.4377 91.8524 51.438Z" fill="#E6E6E6"/>
<path d="M56.6457 67.0418H48.2375C47.9629 67.0414 47.6997 66.9326 47.5056 66.739C47.3115 66.5454 47.2023 66.2829 47.202 66.0092V56.1146C47.2023 55.8408 47.3115 55.5784 47.5056 55.3848C47.6997 55.1912 47.9629 55.0823 48.2375 55.082H56.6457C56.9202 55.0823 57.1834 55.1912 57.3775 55.3848C57.5716 55.5784 57.6808 55.8408 57.6812 56.1146V66.0092C57.6808 66.2829 57.5716 66.5454 57.3775 66.739C57.1834 66.9326 56.9202 67.0414 56.6457 67.0418Z" fill="#E6E6E6"/>
<path d="M14.0753 53.9622H5.66709C5.39255 53.9619 5.12935 53.853 4.93522 53.6594C4.74109 53.4658 4.6319 53.2034 4.63159 52.9296V43.035C4.6319 42.7613 4.74109 42.4988 4.93522 42.3052C5.12935 42.1116 5.39255 42.0027 5.66709 42.0024H14.0753C14.3498 42.0027 14.613 42.1116 14.8071 42.3052C15.0012 42.4988 15.1104 42.7613 15.1107 43.035V52.9296C15.1104 53.2034 15.0012 53.4658 14.8071 53.6594C14.613 53.853 14.3498 53.9619 14.0753 53.9622Z" fill="#FFD11F"/>
<path d="M37.7767 35.8342H29.3685C29.0939 35.8339 28.8307 35.7251 28.6366 35.5315C28.4425 35.3379 28.3333 35.0754 28.333 34.8016V24.9071C28.3333 24.6333 28.4425 24.3708 28.6366 24.1773C28.8307 23.9837 29.0939 23.8748 29.3685 23.8745H37.7767C38.0512 23.8748 38.3144 23.9837 38.5085 24.1773C38.7027 24.3708 38.8119 24.6333 38.8122 24.9071V34.8017C38.8119 35.0754 38.7027 35.3379 38.5085 35.5315C38.3144 35.7251 38.0512 35.8339 37.7767 35.8342Z" fill="#E6E6E6"/>
<path d="M30.8928 8.39287H17.7765C17.5324 8.39287 17.2983 8.29617 17.1257 8.12403C16.9531 7.9519 16.8561 7.71843 16.8561 7.475C16.8561 7.23156 16.9531 6.9981 17.1257 6.82597C17.2983 6.65383 17.5324 6.55713 17.7765 6.55713H30.8928C31.1369 6.55713 31.371 6.65383 31.5436 6.82597C31.7163 6.9981 31.8132 7.23156 31.8132 7.475C31.8132 7.71843 31.7163 7.9519 31.5436 8.12403C31.371 8.29617 31.1369 8.39287 30.8928 8.39287Z" fill="#CCCCCC"/>
<path d="M67.9404 8.39287H54.8242C54.58 8.39287 54.3459 8.29617 54.1733 8.12403C54.0007 7.9519 53.9037 7.71843 53.9037 7.475C53.9037 7.23156 54.0007 6.9981 54.1733 6.82597C54.3459 6.65383 54.58 6.55713 54.8242 6.55713H67.9404C68.1845 6.55713 68.4186 6.65383 68.5912 6.82597C68.7638 6.9981 68.8608 7.23156 68.8608 7.475C68.8608 7.71843 68.7638 7.9519 68.5912 8.12403C68.4186 8.29617 68.1845 8.39287 67.9404 8.39287Z" fill="#CCCCCC"/>
<path d="M102.687 8.39287H89.5707C89.3266 8.39287 89.0925 8.29617 88.9199 8.12403C88.7472 7.9519 88.6503 7.71843 88.6503 7.475C88.6503 7.23156 88.7472 6.9981 88.9199 6.82597C89.0925 6.65383 89.3266 6.55713 89.5707 6.55713H102.687C102.931 6.55713 103.165 6.65383 103.338 6.82597C103.51 6.9981 103.607 7.23156 103.607 7.475C103.607 7.71843 103.51 7.9519 103.338 8.12403C103.165 8.29617 102.931 8.39287 102.687 8.39287Z" fill="#CCCCCC"/>
<path d="M135.132 8.39287H122.016C121.772 8.39287 121.538 8.29617 121.365 8.12403C121.193 7.9519 121.096 7.71843 121.096 7.475C121.096 7.23156 121.193 6.9981 121.365 6.82597C121.538 6.65383 121.772 6.55713 122.016 6.55713H135.132C135.377 6.55713 135.611 6.65383 135.783 6.82597C135.956 6.9981 136.053 7.23156 136.053 7.475C136.053 7.71843 135.956 7.9519 135.783 8.12403C135.611 8.29617 135.377 8.39287 135.132 8.39287Z" fill="#CCCCCC"/>
</svg>
