<svg width="150" height="84" viewBox="0 0 150 84" fill="none" xmlns="http://www.w3.org/2000/svg">
<rect x="0.25" y="0.25" width="149.5" height="82.6933" rx="4.75" stroke="black" stroke-width="0.5"/>
<path d="M143.877 12.1491H4.66025C4.59923 12.1491 4.5407 12.1249 4.49755 12.0819C4.45439 12.0389 4.43015 11.9805 4.43015 11.9196C4.43015 11.8588 4.45439 11.8004 4.49755 11.7574C4.5407 11.7144 4.59923 11.6902 4.66025 11.6902H143.877C143.938 11.6902 143.996 11.7144 144.039 11.7574C144.082 11.8004 144.107 11.8588 144.107 11.9196C144.107 11.9805 144.082 12.0389 144.039 12.0819C143.996 12.1249 143.938 12.1491 143.877 12.1491Z" fill="#3F3D56"/>
<path d="M44.009 79.9867C43.948 79.9867 43.8895 79.9625 43.8463 79.9195C43.8031 79.8765 43.7789 79.8181 43.7789 79.7573V4.2624C43.7789 4.20154 43.8031 4.14317 43.8463 4.10014C43.8895 4.0571 43.948 4.03293 44.009 4.03293C44.07 4.03293 44.1286 4.0571 44.1717 4.10014C44.2149 4.14317 44.2391 4.20154 44.2391 4.2624V79.7573C44.2391 79.8181 44.2149 79.8765 44.1717 79.9195C44.1286 79.9625 44.07 79.9867 44.009 79.9867V79.9867Z" fill="#3F3D56"/>
<path d="M78.7556 79.9867C78.6946 79.9867 78.6361 79.9625 78.5929 79.9195C78.5498 79.8765 78.5255 79.8181 78.5255 79.7573V4.2624C78.5255 4.20154 78.5498 4.14317 78.5929 4.10014C78.6361 4.0571 78.6946 4.03293 78.7556 4.03293C78.8166 4.03293 78.8751 4.0571 78.9183 4.10014C78.9614 4.14317 78.9857 4.20154 78.9857 4.2624V79.7573C78.9857 79.8181 78.9614 79.8765 78.9183 79.9195C78.8751 79.9625 78.8166 79.9867 78.7556 79.9867V79.9867Z" fill="#3F3D56"/>
<path d="M113.502 79.9867C113.441 79.9867 113.383 79.9625 113.339 79.9195C113.296 79.8765 113.272 79.8181 113.272 79.7573V4.2624C113.272 4.20154 113.296 4.14317 113.339 4.10014C113.383 4.0571 113.441 4.03293 113.502 4.03293C113.563 4.03293 113.622 4.0571 113.665 4.10014C113.708 4.14317 113.732 4.20154 113.732 4.2624V79.7573C113.732 79.8181 113.708 79.8765 113.665 79.9195C113.622 79.9625 113.563 79.9867 113.502 79.9867V79.9867Z" fill="#3F3D56"/>
<path d="M21.6689 35.8342H13.2608C12.9862 35.8339 12.723 35.7251 12.5289 35.5315C12.3348 35.3379 12.2256 35.0754 12.2253 34.8016V24.9071C12.2256 24.6333 12.3348 24.3708 12.5289 24.1773C12.723 23.9837 12.9862 23.8748 13.2608 23.8745H21.6689C21.9435 23.8748 22.2067 23.9837 22.4008 24.1773C22.5949 24.3708 22.7041 24.6333 22.7044 24.9071V34.8017C22.7041 35.0754 22.5949 35.3379 22.4008 35.5315C22.2067 35.7251 21.9435 35.8339 21.6689 35.8342V35.8342Z" fill="#373FBF"/>
<path d="M33.6347 64.0588H25.2265C24.952 64.0585 24.6888 63.9496 24.4946 63.756C24.3005 63.5624 24.1913 63.2999 24.191 63.0262V53.1316C24.1913 52.8578 24.3005 52.5954 24.4946 52.4018C24.6888 52.2082 24.952 52.0993 25.2265 52.099H33.6347C33.9092 52.0993 34.1724 52.2082 34.3666 52.4018C34.5607 52.5954 34.6699 52.8578 34.6702 53.1316V63.0262C34.6699 63.2999 34.5607 63.5624 34.3666 63.756C34.1724 63.9496 33.9092 64.0585 33.6347 64.0588V64.0588Z" fill="#373FBF"/>
<path d="M60.7877 41.8004H52.3794C52.1049 41.8001 51.8417 41.6912 51.6476 41.4976C51.4534 41.304 51.3442 41.0416 51.3439 40.7678V30.8733C51.3442 30.5995 51.4534 30.337 51.6476 30.1434C51.8417 29.9498 52.1049 29.841 52.3794 29.8407H60.7877C61.0622 29.841 61.3254 29.9498 61.5195 30.1434C61.7136 30.337 61.8228 30.5995 61.8232 30.8733V40.7678C61.8228 41.0416 61.7136 41.304 61.5195 41.4976C61.3254 41.6912 61.0622 41.8001 60.7877 41.8004V41.8004Z" fill="#373FBF"/>
<path d="M95.9944 31.0154H87.5862C87.3117 31.0151 87.0485 30.9062 86.8543 30.7126C86.6602 30.5191 86.551 30.2566 86.5507 29.9828V20.0883C86.551 19.8145 86.6602 19.552 86.8543 19.3584C87.0485 19.1649 87.3117 19.056 87.5862 19.0557H95.9944C96.2689 19.056 96.5321 19.1649 96.7263 19.3584C96.9204 19.552 97.0296 19.8145 97.0299 20.0883V29.9828C97.0296 30.2566 96.9204 30.5191 96.7263 30.7126C96.5321 30.9062 96.2689 31.0151 95.9944 31.0154V31.0154Z" fill="#373FBF"/>
<path d="M128.44 31.0154H120.032C119.757 31.0151 119.494 30.9062 119.3 30.7126C119.106 30.5191 118.996 30.2566 118.996 29.9828V20.0883C118.996 19.8145 119.106 19.552 119.3 19.3584C119.494 19.1649 119.757 19.056 120.032 19.0557H128.44C128.714 19.056 128.978 19.1649 129.172 19.3584C129.366 19.552 129.475 19.8145 129.475 20.0883V29.9828C129.475 30.2566 129.366 30.5191 129.172 30.7126C128.978 30.9062 128.714 31.0151 128.44 31.0154V31.0154Z" fill="#373FBF"/>
<path d="M143.397 33.769H134.989C134.714 33.7687 134.451 33.6598 134.257 33.4663C134.063 33.2727 133.954 33.0102 133.953 32.7364V22.8419C133.954 22.5681 134.063 22.3056 134.257 22.1121C134.451 21.9185 134.714 21.8096 134.989 21.8093H143.397C143.672 21.8096 143.935 21.9185 144.129 22.1121C144.323 22.3056 144.432 22.5681 144.432 22.8419V32.7364C144.432 33.0102 144.323 33.2727 144.129 33.4663C143.935 33.6598 143.672 33.7687 143.397 33.769Z" fill="#E6E6E6"/>
<path d="M136.724 51.438H128.316C128.041 51.4377 127.778 51.3288 127.584 51.1353C127.39 50.9417 127.28 50.6792 127.28 50.4054V40.5109C127.28 40.2371 127.39 39.9747 127.584 39.7811C127.778 39.5875 128.041 39.4786 128.316 39.4783H136.724C136.998 39.4786 137.262 39.5875 137.456 39.7811C137.65 39.9747 137.759 40.2371 137.759 40.5109V50.4054C137.759 50.6792 137.65 50.9417 137.456 51.1353C137.262 51.3288 136.998 51.4377 136.724 51.438Z" fill="#E6E6E6"/>
<path d="M108.19 47.7666H99.782C99.5075 47.7663 99.2443 47.6574 99.0502 47.4638C98.856 47.2702 98.7469 47.0077 98.7466 46.734V36.8394C98.7469 36.5656 98.856 36.3032 99.0502 36.1096C99.2443 35.916 99.5075 35.8071 99.782 35.8068H108.19C108.465 35.8071 108.728 35.916 108.922 36.1096C109.116 36.3032 109.225 36.5656 109.226 36.8394V46.734C109.225 47.0077 109.116 47.2702 108.922 47.4638C108.728 47.6574 108.465 47.7663 108.19 47.7666Z" fill="#FF6584"/>
<path d="M91.8524 51.438H83.4442C83.1697 51.4377 82.9065 51.3288 82.7123 51.1353C82.5182 50.9417 82.409 50.6792 82.4087 50.4054V40.5109C82.409 40.2371 82.5182 39.9747 82.7123 39.7811C82.9065 39.5875 83.1697 39.4786 83.4442 39.4783H91.8524C92.127 39.4786 92.3902 39.5875 92.5843 39.7811C92.7784 39.9747 92.8876 40.2371 92.8879 40.5109V50.4054C92.8876 50.6792 92.7784 50.9417 92.5843 51.1353C92.3902 51.3288 92.127 51.4377 91.8524 51.438V51.438Z" fill="#E6E6E6"/>
<path d="M56.6457 67.0419H48.2375C47.9629 67.0415 47.6997 66.9327 47.5056 66.7391C47.3115 66.5455 47.2023 66.283 47.202 66.0093V56.1147C47.2023 55.8409 47.3115 55.5785 47.5056 55.3849C47.6997 55.1913 47.9629 55.0824 48.2375 55.0821H56.6457C56.9202 55.0824 57.1834 55.1913 57.3775 55.3849C57.5716 55.5785 57.6808 55.8409 57.6812 56.1147V66.0093C57.6808 66.283 57.5716 66.5455 57.3775 66.7391C57.1834 66.9327 56.9202 67.0415 56.6457 67.0419Z" fill="#E6E6E6"/>
<path d="M14.0754 53.9622H5.66715C5.39261 53.9619 5.12941 53.853 4.93528 53.6594C4.74115 53.4658 4.63196 53.2034 4.63165 52.9296V43.035C4.63196 42.7613 4.74115 42.4988 4.93528 42.3052C5.12941 42.1116 5.39261 42.0027 5.66715 42.0024H14.0754C14.3499 42.0027 14.6131 42.1116 14.8072 42.3052C15.0013 42.4988 15.1105 42.7613 15.1108 43.035V52.9296C15.1105 53.2034 15.0013 53.4658 14.8072 53.6594C14.6131 53.853 14.3499 53.9619 14.0754 53.9622V53.9622Z" fill="#FF6584"/>
<path d="M37.7767 35.8342H29.3685C29.0939 35.8339 28.8307 35.7251 28.6366 35.5315C28.4425 35.3379 28.3333 35.0754 28.333 34.8016V24.9071C28.3333 24.6333 28.4425 24.3708 28.6366 24.1773C28.8307 23.9837 29.0939 23.8748 29.3685 23.8745H37.7767C38.0512 23.8748 38.3144 23.9837 38.5085 24.1773C38.7027 24.3708 38.8119 24.6333 38.8122 24.9071V34.8017C38.8119 35.0754 38.7027 35.3379 38.5085 35.5315C38.3144 35.7251 38.0512 35.8339 37.7767 35.8342V35.8342Z" fill="#E6E6E6"/>
<path d="M30.8928 8.39281H17.7765C17.5324 8.39281 17.2983 8.29611 17.1257 8.12397C16.9531 7.95184 16.8561 7.71837 16.8561 7.47494C16.8561 7.2315 16.9531 6.99804 17.1257 6.82591C17.2983 6.65377 17.5324 6.55707 17.7765 6.55707H30.8928C31.1369 6.55707 31.371 6.65377 31.5436 6.82591C31.7163 6.99804 31.8132 7.2315 31.8132 7.47494C31.8132 7.71837 31.7163 7.95184 31.5436 8.12397C31.371 8.29611 31.1369 8.39281 30.8928 8.39281Z" fill="#CCCCCC"/>
<path d="M67.9404 8.39281H54.8242C54.58 8.39281 54.3459 8.29611 54.1733 8.12397C54.0007 7.95184 53.9037 7.71837 53.9037 7.47494C53.9037 7.2315 54.0007 6.99804 54.1733 6.82591C54.3459 6.65377 54.58 6.55707 54.8242 6.55707H67.9404C68.1845 6.55707 68.4186 6.65377 68.5912 6.82591C68.7638 6.99804 68.8608 7.2315 68.8608 7.47494C68.8608 7.71837 68.7638 7.95184 68.5912 8.12397C68.4186 8.29611 68.1845 8.39281 67.9404 8.39281Z" fill="#CCCCCC"/>
<path d="M102.687 8.39281H89.5707C89.3266 8.39281 89.0925 8.29611 88.9199 8.12397C88.7472 7.95184 88.6503 7.71837 88.6503 7.47494C88.6503 7.2315 88.7472 6.99804 88.9199 6.82591C89.0925 6.65377 89.3266 6.55707 89.5707 6.55707H102.687C102.931 6.55707 103.165 6.65377 103.338 6.82591C103.51 6.99804 103.607 7.2315 103.607 7.47494C103.607 7.71837 103.51 7.95184 103.338 8.12397C103.165 8.29611 102.931 8.39281 102.687 8.39281Z" fill="#CCCCCC"/>
<path d="M135.132 8.39281H122.016C121.772 8.39281 121.538 8.29611 121.365 8.12397C121.193 7.95184 121.096 7.71837 121.096 7.47494C121.096 7.2315 121.193 6.99804 121.365 6.82591C121.538 6.65377 121.772 6.55707 122.016 6.55707H135.132C135.377 6.55707 135.611 6.65377 135.783 6.82591C135.956 6.99804 136.053 7.2315 136.053 7.47494C136.053 7.71837 135.956 7.95184 135.783 8.12397C135.611 8.29611 135.377 8.39281 135.132 8.39281Z" fill="#CCCCCC"/>
</svg>
