<svg width="150" height="95" viewBox="0 0 150 95" fill="none" xmlns="http://www.w3.org/2000/svg">
<g id="new-team">
<g id="Group 31">
<path id="Rectangle 250" d="M150 3.55279H43.5745V8.29325H150V3.55279Z" fill="#E6E6E6"/>
<path id="Rectangle 251" d="M81.5201 15.4038H43.5745V20.1442H81.5201V15.4038Z" fill="#E6E6E6"/>
<path id="Rectangle 252" d="M119.169 27.2548H43.5745V31.9952H119.169V27.2548Z" fill="#E6E6E6"/>
</g>
<g id="Group 30">
<path id="Path 944" d="M36.4348 17.764C36.4405 21.2131 35.4359 24.5883 33.5449 27.4735C33.1487 28.0819 32.7145 28.6647 32.2448 29.2185C31.1435 30.5224 29.8606 31.6616 28.4355 32.6013C28.0481 32.858 27.6497 33.0984 27.2404 33.3228C25.1104 34.5001 22.7594 35.2237 20.3357 35.4479C19.7848 35.5016 19.2246 35.5272 18.6596 35.5272C17.111 35.5287 15.569 35.3272 14.0729 34.9277C13.2248 34.7051 12.3952 34.4172 11.5915 34.0669C11.1806 33.8896 10.7791 33.6967 10.3869 33.4884C9.44354 32.9933 8.5474 32.4131 7.7096 31.7552C7.31977 31.4519 6.94394 31.1323 6.58211 30.7963C4.4165 28.7916 2.78455 26.2794 1.83359 23.4866C0.88263 20.6938 0.642601 17.7083 1.13518 14.7995C1.62776 11.8908 2.83743 9.15048 4.65499 6.82595C6.47255 4.50142 8.84076 2.66589 11.5458 1.48507C14.2509 0.30425 17.2076 -0.184678 20.1491 0.0624321C23.0905 0.309542 25.9241 1.28491 28.3939 2.90047C30.8638 4.51603 32.8922 6.72092 34.296 9.31607C35.6997 11.9112 36.4347 14.8149 36.4345 17.765L36.4348 17.764Z" fill="#E6E6E6"/>
<path id="Path 945" d="M14.3521 19.3687C14.3521 19.3687 15.9701 23.8615 14.713 26.3762C13.4559 28.8909 16.6907 31.7666 16.6907 31.7666C16.6907 31.7666 25.141 27.4542 24.062 25.2979C22.9831 23.1417 21.1856 20.2669 21.5449 18.4701L14.3521 19.3687Z" fill="#FFB8B8"/>
<path id="Ellipse 185" d="M17.4986 21.0757C20.6761 21.0757 23.2519 18.5014 23.2519 15.3258C23.2519 12.1502 20.6761 9.5759 17.4986 9.5759C14.3212 9.5759 11.7454 12.1502 11.7454 15.3258C11.7454 18.5014 14.3212 21.0757 17.4986 21.0757Z" fill="#FFB8B8"/>
<path id="Path 946" d="M14.0729 34.9268C13.2248 34.7041 12.3952 34.4163 11.5915 34.0659L11.7457 29.701L13.3634 26.106C13.7271 26.3907 14.1163 26.6414 14.526 26.8547C14.6245 26.9085 14.7229 26.9596 14.8319 27.0111C16.3492 27.7438 18.8279 28.3885 21.2306 26.5914C22.1134 25.9045 22.8627 25.0616 23.4412 24.1046L27.9275 26.6451L28.1631 29.3979L28.4362 32.601C28.0487 32.8576 27.6504 33.0981 27.2411 33.3225C25.1111 34.4998 22.7601 35.2234 20.3364 35.4475C19.7854 35.5013 19.2253 35.5269 18.6602 35.5269C17.1114 35.5283 15.5692 35.3265 14.0729 34.9268Z" fill="#D87C7C"/>
<path id="Path 947" d="M15.177 23.4165V23.4234L14.9506 25.7702L14.8315 27.0111L14.6566 28.8565L14.0731 34.9267C13.2251 34.7041 12.3955 34.4163 11.5917 34.0659C11.1809 33.8886 10.7794 33.6957 10.3872 33.4874C9.44381 32.9923 8.54766 32.4121 7.70986 31.7542L7.07033 28.8027L7.11922 28.7699L15.177 23.4165Z" fill="#D87C7C"/>
<path id="Path 948" d="M27.2401 33.3218C25.1101 34.4992 22.7591 35.2227 20.3354 35.4469C20.4666 33.2634 20.6576 31.1544 20.8745 29.2766C20.9864 28.3131 21.1042 27.4125 21.2292 26.5914C21.6191 23.953 22.0391 22.1611 22.3403 21.9188L24.3292 23.2306L32.4197 26.1047L32.2445 29.2169C31.1432 30.5208 29.8603 31.66 28.4352 32.5996C28.0477 32.8572 27.6494 33.0979 27.2401 33.3218Z" fill="#D87C7C"/>
<path id="Path 949" d="M7.70961 31.7542C7.31978 31.4509 6.94395 31.1313 6.58212 30.7953L6.89024 28.803L7.11995 28.7702L8.14931 28.6233L10.3879 33.4874C9.44453 32.9923 8.54838 32.4121 7.71059 31.7542H7.70961Z" fill="#D87C7C"/>
<path id="Path 950" d="M33.5452 27.4732C33.149 28.0816 32.7147 28.6644 32.2451 29.2182C31.1438 30.5221 29.8609 31.6613 28.4358 32.601C28.0483 32.8576 27.65 33.0981 27.2407 33.3224L27.0284 32.3963L28.1627 29.3986L29.5445 25.7476L32.4203 26.1083C32.819 26.5432 33.1944 26.9989 33.5452 27.4732V27.4732Z" fill="#D87C7C"/>
<path id="Path 951" d="M22.9848 10.1255C22.1149 8.71378 20.7535 7.67338 19.1623 7.20452L17.9935 8.13917L18.4479 7.04907C18.0657 6.99118 17.6789 6.96922 17.2925 6.98348L16.2409 8.33495L16.6763 7.02973C15.7637 7.14309 14.8844 7.44421 14.094 7.9141C13.3036 8.38399 12.6193 9.01246 12.084 9.75987C10.7455 11.6889 10.5194 14.3714 11.8363 16.3155C12.1972 15.2054 12.6363 14.1639 12.9979 13.0538C13.2819 13.0925 13.5699 13.0939 13.8543 13.058L14.294 12.0325L14.4167 13.0144C15.7795 12.8957 17.8012 12.6353 19.093 12.3966L18.9674 11.6423L19.7191 12.2683C20.1149 12.1772 20.3501 12.0945 20.3304 12.0316C21.2912 13.5798 22.2435 14.5685 23.2043 16.1168C23.5682 13.934 24.212 12.1178 22.9848 10.1255Z" fill="#2F2E41"/>
<path id="Ellipse 186" d="M22.6662 15.9239C22.8813 15.9239 23.0557 15.5754 23.0557 15.1454C23.0557 14.7154 22.8813 14.3668 22.6662 14.3668C22.451 14.3668 22.2767 14.7154 22.2767 15.1454C22.2767 15.5754 22.451 15.9239 22.6662 15.9239Z" fill="#FFB8B8"/>
</g>
<path id="Path 952" d="M35.5702 76.7353C35.5758 80.1866 34.5705 83.5642 32.6783 86.4513C32.2818 87.0602 31.8472 87.6434 31.3773 88.1976C30.2751 89.5024 28.9914 90.6424 27.5653 91.5827C27.1774 91.8396 26.7787 92.0801 26.3692 92.3042C24.2377 93.4824 21.8851 94.2065 19.4596 94.4309C18.9083 94.4847 18.3479 94.5103 17.7825 94.5103C16.2328 94.5118 14.6896 94.3102 13.1925 93.9104C12.3439 93.6876 11.5137 93.3996 10.7095 93.0489C10.2984 92.8714 9.89665 92.6785 9.5042 92.4701C8.56017 91.9746 7.66337 91.394 6.82496 90.7356C6.43491 90.4321 6.05886 90.1123 5.69681 89.776C3.53055 87.7699 1.89827 85.2562 0.947282 82.4618C-0.00370205 79.6675 -0.243442 76.6804 0.249697 73.7703C0.742836 70.8601 1.95333 68.1185 3.77192 65.7929C5.59051 63.4674 7.95995 61.631 10.6664 60.4496C13.3728 59.2682 16.3309 58.7789 19.2739 59.026C22.2168 59.2731 25.0519 60.2487 27.5231 61.8648C29.9944 63.4809 32.0241 65.6866 33.429 68.2828C34.8339 70.879 35.5698 73.784 35.5702 76.7356V76.7353Z" fill="#E81410"/>
<g id="Group 32">
<path id="Rectangle 273" d="M18.8738 68.4372H16.6933V85.0286H18.8738V68.4372Z" fill="white"/>
<path id="Rectangle 274" d="M26.0839 77.8227V75.6435H9.48276V77.8227H26.0839Z" fill="white"/>
</g>
<g id="Group 33">
<path id="Rectangle 250_2" d="M147.332 62.808H40.9064V67.5485H147.332V62.808Z" fill="#E6E6E6"/>
<path id="Rectangle 251_2" d="M78.852 74.659H40.9064V79.3995H78.852V74.659Z" fill="#E6E6E6"/>
<path id="Rectangle 252_2" d="M116.501 86.51H40.9064V91.2505H116.501V86.51Z" fill="#E6E6E6"/>
</g>
</g>
</svg>
