<svg width="190" height="171" viewBox="0 0 190 171" fill="none" xmlns="http://www.w3.org/2000/svg">
<path d="M188.333 65.3939C188.265 65.3939 188.199 65.373 188.143 65.334L95.9566 0.96654C95.676 0.77157 95.3427 0.667374 95.0013 0.667958C94.6599 0.668542 94.3269 0.773875 94.047 0.969804L2.52479 65.3333C2.45239 65.3842 2.3628 65.4042 2.27571 65.3889C2.18862 65.3736 2.11116 65.3242 2.06039 65.2516C2.00961 65.179 1.98967 65.0892 2.00496 65.0019C2.02024 64.9146 2.0695 64.8369 2.14189 64.786L93.6642 0.422491C94.0561 0.148233 94.5223 0.000805842 95.0002 1.84295e-05C95.4781 -0.000768982 95.9448 0.14512 96.3376 0.418085L188.524 64.7854C188.582 64.826 188.626 64.8843 188.649 64.9517C188.672 65.019 188.673 65.0919 188.651 65.1598C188.63 65.2277 188.588 65.287 188.53 65.3291C188.473 65.3712 188.404 65.3939 188.333 65.3939L188.333 65.3939Z" fill="#3F3D56"/>
<path d="M7.75466 67.6755L95.092 2.78018L183.092 72.2931L99.592 121.921L54.2587 111.561L7.75466 67.6755Z" fill="#E6E6E6"/>
<path d="M58.0852 152.575H14.9384C14.6735 152.575 14.4111 152.523 14.1662 152.421C13.9213 152.32 13.6988 152.171 13.5114 151.983C13.3239 151.796 13.1752 151.573 13.0737 151.328C12.9723 151.082 12.92 150.819 12.92 150.553C12.92 150.288 12.9723 150.025 13.0737 149.779C13.1752 149.534 13.3239 149.311 13.5114 149.123C13.6988 148.936 13.9213 148.787 14.1662 148.686C14.4111 148.584 14.6735 148.532 14.9384 148.532H58.0852C58.3501 148.532 58.6125 148.584 58.8574 148.686C59.1023 148.787 59.3248 148.936 59.5122 149.123C59.6997 149.311 59.8484 149.534 59.9499 149.779C60.0513 150.025 60.1036 150.288 60.1036 150.553C60.1036 150.819 60.0513 151.082 59.9499 151.328C59.8484 151.573 59.6997 151.796 59.5122 151.983C59.3248 152.171 59.1023 152.32 58.8574 152.421C58.6125 152.523 58.3501 152.575 58.0852 152.575V152.575Z" fill="#21BF54"/>
<path d="M30.4185 143.885H14.9384C14.6735 143.886 14.4111 143.834 14.1662 143.732C13.9213 143.631 13.6988 143.482 13.5114 143.294C13.3239 143.107 13.1752 142.884 13.0737 142.638C12.9723 142.393 12.92 142.13 12.92 141.864C12.92 141.599 12.9723 141.336 13.0737 141.09C13.1752 140.845 13.3239 140.622 13.5114 140.434C13.6988 140.247 13.9213 140.098 14.1662 139.996C14.4111 139.895 14.6735 139.843 14.9384 139.843H30.4185C30.6834 139.843 30.9458 139.895 31.1907 139.996C31.4356 140.098 31.6581 140.247 31.8456 140.434C32.033 140.622 32.1817 140.845 32.2832 141.09C32.3847 141.336 32.4369 141.599 32.4369 141.864C32.4369 142.13 32.3847 142.393 32.2832 142.638C32.1817 142.884 32.033 143.107 31.8456 143.294C31.6581 143.482 31.4356 143.631 31.1907 143.732C30.9458 143.834 30.6834 143.886 30.4185 143.885Z" fill="#21BF54"/>
<path d="M96.32 103.821C95.9921 103.822 95.6672 103.758 95.3637 103.634L41.5001 81.226V11.0868C41.5008 10.4666 41.7468 9.87201 42.1843 9.43345C42.6217 8.99489 43.2148 8.74819 43.8334 8.74747H147.167C147.785 8.74819 148.378 8.99489 148.816 9.43345C149.253 9.87201 149.499 10.4666 149.5 11.0868V81.275L149.399 81.3184L97.3054 103.623C96.9934 103.754 96.6584 103.822 96.32 103.821Z" fill="white"/>
<path d="M96.32 103.988C95.9704 103.989 95.6239 103.921 95.3002 103.788L41.3334 81.3376V11.0868C41.3342 10.4223 41.5978 9.78522 42.0665 9.31533C42.5351 8.84544 43.1706 8.58112 43.8334 8.58037H147.167C147.83 8.58112 148.465 8.84544 148.934 9.31533C149.402 9.78522 149.666 10.4223 149.667 11.0868V81.3853L97.3708 103.776C97.0382 103.916 96.6809 103.989 96.32 103.988V103.988ZM42.0001 80.8912L95.5544 103.17C96.0539 103.373 96.6134 103.37 97.1104 103.161L149 80.9441V11.0868C149 10.5995 148.806 10.1323 148.462 9.78776C148.119 9.44318 147.653 9.24934 147.167 9.24876H43.8334C43.3474 9.24934 42.8814 9.44318 42.5377 9.78776C42.194 10.1323 42.0007 10.5995 42.0001 11.0868L42.0001 80.8912Z" fill="#3F3D56"/>
<path d="M187.667 64.7255H187.6L149.333 81.1078L96.9767 103.522C96.7721 103.609 96.5526 103.654 96.3307 103.655C96.1087 103.656 95.8887 103.613 95.6833 103.529L41.6667 81.061L2.45996 64.7522L2.40007 64.7255H2.33333C1.71471 64.7262 1.12161 64.9728 0.684174 65.4114C0.246737 65.85 0.000686417 66.4446 0 67.0648V168.661C0.000687297 169.281 0.246738 169.875 0.684174 170.314C1.12161 170.753 1.71471 170.999 2.33333 171H187.667C188.285 170.999 188.878 170.753 189.316 170.314C189.753 169.875 189.999 169.281 190 168.661V67.0648C189.999 66.4446 189.753 65.85 189.316 65.4114C188.878 64.9728 188.285 64.7262 187.667 64.7255V64.7255ZM189.333 168.661C189.333 169.104 189.158 169.529 188.845 169.842C188.532 170.155 188.109 170.331 187.667 170.332H2.33333C1.89136 170.331 1.46754 170.155 1.15502 169.842C0.842497 169.529 0.666843 169.104 0.666667 168.661V67.0648C0.667271 66.6327 0.834454 66.2176 1.13326 65.9062C1.43207 65.5947 1.83937 65.4112 2.27002 65.3939L41.6667 81.7829L95.4268 104.147C96.0087 104.385 96.6608 104.381 97.2401 104.137L149.333 81.833L187.733 65.3939C188.163 65.4125 188.57 65.5965 188.867 65.9078C189.165 66.219 189.332 66.6334 189.333 67.0648V168.661Z" fill="#3F3D56"/>
<path d="M95.7817 83.9325C93.7932 83.9362 91.8574 83.2915 90.2664 82.0957L90.1677 82.0215L69.3974 66.0778C68.4355 65.3388 67.6282 64.4172 67.0215 63.3654C66.4149 62.3137 66.0208 61.1524 65.8618 59.948C65.7027 58.7435 65.7819 57.5195 66.0947 56.3457C66.4075 55.172 66.9479 54.0714 67.6849 53.107C68.4219 52.1426 69.3412 51.3332 70.3902 50.725C71.4392 50.1168 72.5975 49.7217 73.7988 49.5622C75.0001 49.4028 76.221 49.4822 77.3918 49.7958C78.5625 50.1094 79.6602 50.6511 80.6221 51.3901L94.0755 61.7327L125.868 20.1631C126.606 19.1989 127.525 18.3898 128.574 17.782C129.624 17.1741 130.782 16.7794 131.983 16.6204C133.185 16.4614 134.406 16.5412 135.576 16.8553C136.747 17.1693 137.844 17.7115 138.806 18.4508L138.608 18.7199L138.811 18.4547C140.751 19.9494 142.02 22.1546 142.34 24.5863C142.66 27.0181 142.005 29.4779 140.519 31.4261L103.123 80.3219C102.258 81.4486 101.146 82.3605 99.8729 82.9866C98.5997 83.6128 97.1998 83.9364 95.7817 83.9325V83.9325Z" fill="#21BF54"/>
</svg>
