<svg width="781" height="493" viewBox="0 0 781 493" fill="none" xmlns="http://www.w3.org/2000/svg">
<g opacity="0.5">
<path opacity="0.5" d="M116.656 237.98C180.625 237.98 232.482 186.094 232.482 122.09C232.482 58.0857 180.625 6.20001 116.656 6.20001C52.6868 6.20001 0.82959 58.0857 0.82959 122.09C0.82959 186.094 52.6868 237.98 116.656 237.98Z" fill="url(#paint0_linear)"/>
</g>
<path d="M116.656 234.9C179.272 234.9 230.033 184.111 230.033 121.46C230.033 58.8088 179.272 8.02002 116.656 8.02002C54.039 8.02002 3.27808 58.8088 3.27808 121.46C3.27808 184.111 54.039 234.9 116.656 234.9Z" fill="#F5F5F5"/>
<path d="M116.976 235.22C139.131 235.257 160.807 228.767 179.301 216.56C175.123 193.72 159.222 192.41 159.222 192.41H71.5605C71.5605 192.41 56.5688 193.64 51.8713 214.66C70.9309 228.074 93.6731 235.256 116.976 235.22V235.22Z" fill="#0995E3"/>
<path d="M115.786 169.25C143.545 169.25 166.049 146.734 166.049 118.96C166.049 91.1856 143.545 68.67 115.786 68.67C88.0271 68.67 65.5239 91.1856 65.5239 118.96C65.5239 146.734 88.0271 169.25 115.786 169.25Z" fill="#333333"/>
<path opacity="0.1" d="M98.126 164.57H133.197V192.64C133.197 197.292 131.35 201.753 128.062 205.043C124.775 208.332 120.316 210.18 115.666 210.18C111.017 210.18 106.558 208.332 103.27 205.043C99.9829 201.753 98.136 197.292 98.136 192.64V164.57H98.126Z" fill="black"/>
<path d="M101.474 163.27H129.849C130.737 163.27 131.588 163.623 132.216 164.251C132.844 164.879 133.197 165.732 133.197 166.62V191.34C133.197 195.992 131.35 200.453 128.062 203.743C124.775 207.032 120.316 208.88 115.666 208.88C111.017 208.88 106.558 207.032 103.271 203.743C99.9829 200.453 98.136 195.992 98.136 191.34V166.62C98.136 165.733 98.4874 164.883 99.1131 164.255C99.7388 163.627 100.588 163.273 101.474 163.27Z" fill="#BE7C5E"/>
<path opacity="0.1" d="M98.196 177.82C109.499 182.047 121.94 182.082 133.267 177.92V173.61H98.196V177.82Z" fill="black"/>
<path d="M115.786 180.17C143.545 180.17 166.049 157.654 166.049 129.88C166.049 102.106 143.545 79.59 115.786 79.59C88.0271 79.59 65.5239 102.106 65.5239 129.88C65.5239 157.654 88.0271 180.17 115.786 180.17Z" fill="#BE7C5E"/>
<path d="M85.3329 109.14C85.9226 106.97 86.6622 104.58 88.6111 103.45C90.1503 102.55 92.0592 102.69 93.8383 102.78C107.731 103.54 121.503 100.37 135.016 97.06C142.741 95.17 151.007 92.87 156.004 86.64C161.001 80.41 154.485 60.83 146.879 58.52C141.882 56.99 136.085 59.84 131.348 57.6C129.239 56.6 127.69 54.73 125.871 53.27C122.143 50.27 117.355 49.06 112.718 47.92C107.301 46.58 101.444 45.27 96.2969 47.42C92.2991 49.08 89.3807 52.59 85.5928 54.67C78.3868 58.67 69.6016 56.81 61.3461 56.79C58.5577 56.79 55.2295 57.35 54.1201 59.91C53.3705 61.65 53.9702 63.63 54.0501 65.52C54.29 71.52 49.3427 76.19 45.195 80.52C41.0473 84.85 37.1295 91.03 39.748 96.41C40.7475 98.46 42.5765 100.01 43.6159 102.04C45.4049 105.56 44.5054 109.81 45.155 113.7C45.8055 116.652 46.9079 119.485 48.4232 122.1C51.5016 128.1 66.963 160.4 74.0691 152.19C77.5072 148.19 78.0669 136.63 79.4562 131.43C81.3751 123.957 83.334 116.527 85.3329 109.14Z" fill="#333333"/>
<path d="M80.0261 136.82C82.6093 136.82 84.7035 132.894 84.7035 128.05C84.7035 123.206 82.6093 119.28 80.0261 119.28C77.4428 119.28 75.3486 123.206 75.3486 128.05C75.3486 132.894 77.4428 136.82 80.0261 136.82Z" fill="#BE7C5E"/>
<g opacity="0.5">
<path opacity="0.5" d="M384.868 490.21C448.837 490.21 500.694 438.324 500.694 374.32C500.694 310.316 448.837 258.43 384.868 258.43C320.899 258.43 269.042 310.316 269.042 374.32C269.042 438.324 320.899 490.21 384.868 490.21Z" fill="url(#paint1_linear)"/>
</g>
<path d="M385.088 487.02C447.705 487.02 498.466 436.231 498.466 373.58C498.466 310.929 447.705 260.14 385.088 260.14C322.471 260.14 271.71 310.929 271.71 373.58C271.71 436.231 322.471 487.02 385.088 487.02Z" fill="#F5F5F5"/>
<path d="M385.188 487.47C407.33 487.499 428.991 481.009 447.474 468.81C443.296 445.97 427.395 444.66 427.395 444.66H339.763C339.763 444.66 324.771 445.89 320.074 466.91C339.136 480.326 361.882 487.508 385.188 487.47V487.47Z" fill="#E81410"/>
<path d="M383.989 425.95C414.215 425.95 438.719 401.433 438.719 371.19C438.719 340.947 414.215 316.43 383.989 316.43C353.762 316.43 329.259 340.947 329.259 371.19C329.259 401.433 353.762 425.95 383.989 425.95Z" fill="#F55F44"/>
<path opacity="0.1" d="M366.328 416.8H401.399V444.87C401.399 449.522 399.552 453.983 396.265 457.273C392.977 460.562 388.518 462.41 383.869 462.41C379.219 462.41 374.76 460.562 371.473 457.273C368.185 453.983 366.338 449.522 366.338 444.87V416.8H366.328Z" fill="black"/>
<path d="M369.677 415.5H398.051C398.491 415.5 398.926 415.587 399.332 415.755C399.738 415.923 400.108 416.17 400.418 416.481C400.729 416.792 400.976 417.162 401.144 417.568C401.312 417.974 401.399 418.41 401.399 418.85V443.57C401.399 445.873 400.946 448.154 400.065 450.282C399.184 452.41 397.892 454.344 396.265 455.973C394.637 457.601 392.704 458.893 390.577 459.775C388.45 460.656 386.171 461.11 383.869 461.11V461.11C381.567 461.11 379.287 460.656 377.16 459.775C375.033 458.893 373.101 457.601 371.473 455.973C369.845 454.344 368.554 452.41 367.673 450.282C366.792 448.154 366.338 445.873 366.338 443.57V418.85C366.338 417.962 366.691 417.109 367.319 416.481C367.947 415.853 368.799 415.5 369.687 415.5H369.677Z" fill="#FDA57D"/>
<path opacity="0.1" d="M366.398 430.05C377.701 434.277 390.142 434.312 401.469 430.15V425.84H366.398V430.05Z" fill="black"/>
<path d="M383.989 432.4C411.748 432.4 434.251 409.884 434.251 382.11C434.251 354.336 411.748 331.82 383.989 331.82C356.23 331.82 333.726 354.336 333.726 382.11C333.726 409.884 356.23 432.4 383.989 432.4Z" fill="#FDA57D"/>
<path d="M383.919 335.73C395.091 335.73 404.147 326.668 404.147 315.49C404.147 304.312 395.091 295.25 383.919 295.25C372.746 295.25 363.69 304.312 363.69 315.49C363.69 326.668 372.746 335.73 383.919 335.73Z" fill="#F55F44"/>
<path d="M383.919 308.85C391.254 308.85 397.201 302.9 397.201 295.56C397.201 288.22 391.254 282.27 383.919 282.27C376.583 282.27 370.636 288.22 370.636 295.56C370.636 302.9 376.583 308.85 383.919 308.85Z" fill="#F55F44"/>
<path d="M375.144 326.59C370.398 324.46 366.654 320.583 364.691 315.763C362.727 310.944 362.694 305.553 364.599 300.71C364.459 300.99 364.32 301.28 364.19 301.57C363.102 303.996 362.503 306.612 362.426 309.269C362.349 311.926 362.796 314.572 363.741 317.057C364.686 319.541 366.111 321.815 367.935 323.749C369.759 325.682 371.945 327.237 374.369 328.325C376.793 329.413 379.408 330.013 382.064 330.09C384.719 330.167 387.364 329.719 389.847 328.774C392.33 327.828 394.603 326.402 396.535 324.578C398.468 322.753 400.022 320.566 401.109 318.14C401.239 317.85 401.359 317.56 401.479 317.26C399.131 321.905 395.084 325.467 390.18 327.204C385.275 328.942 379.89 328.722 375.144 326.59Z" fill="#F55F44"/>
<path opacity="0.1" d="M348.198 336.37C348.198 336.37 369.377 379.37 429.154 354.37L415.241 332.54L390.585 323.68L348.198 336.37Z" fill="black"/>
<path d="M348.198 335.73C348.198 335.73 369.377 378.73 429.154 353.73L415.241 331.9L390.585 323.04L348.198 335.73Z" fill="#F55F44"/>
<path d="M364.519 320.07C377.552 319.044 390.645 319.044 403.678 320.07C403.678 320.07 374.754 322.76 364.519 320.07Z" fill="#333333"/>
<path d="M386.957 281.46C385.952 281.423 384.946 281.5 383.958 281.69H384.728C387.999 281.795 391.117 283.105 393.481 285.369C395.845 287.634 397.29 290.692 397.538 293.957C397.786 297.223 396.82 300.464 394.824 303.06C392.829 305.656 389.945 307.422 386.727 308.02C390.247 308.052 393.636 306.683 396.147 304.215C398.659 301.747 400.088 298.382 400.12 294.86C400.151 291.338 398.784 287.947 396.317 285.434C393.85 282.922 390.487 281.492 386.967 281.46H386.957Z" fill="#F55F44"/>
<path d="M333.716 390.83C336.3 390.83 338.394 386.904 338.394 382.06C338.394 377.216 336.3 373.29 333.716 373.29C331.133 373.29 329.039 377.216 329.039 382.06C329.039 386.904 331.133 390.83 333.716 390.83Z" fill="#FDA57D"/>
<path d="M434.251 390.83C436.834 390.83 438.928 386.904 438.928 382.06C438.928 377.216 436.834 373.29 434.251 373.29C431.668 373.29 429.573 377.216 429.573 382.06C429.573 386.904 431.668 390.83 434.251 390.83Z" fill="#FDA57D"/>
<path d="M345.03 337L354.835 331.94L357.043 340.05L351.037 344.14L345.03 337Z" fill="#F55F44"/>
<g opacity="0.5">
<path opacity="0.5" d="M384.758 232.29C448.727 232.29 500.584 180.404 500.584 116.4C500.584 52.3957 448.727 0.51001 384.758 0.51001C320.789 0.51001 268.932 52.3957 268.932 116.4C268.932 180.404 320.789 232.29 384.758 232.29Z" fill="url(#paint2_linear)"/>
</g>
<path d="M384.758 229.21C447.375 229.21 498.136 178.421 498.136 115.77C498.136 53.1188 447.375 2.33002 384.758 2.33002C322.141 2.33002 271.381 53.1188 271.381 115.77C271.381 178.421 322.141 229.21 384.758 229.21Z" fill="#F5F5F5"/>
<path d="M340.533 116.78C340.533 116.78 327.68 180.14 320.664 176.63C320.664 176.63 388.326 235.11 448.073 176.63C448.073 176.63 437.549 131.98 422.358 116.78H340.533Z" fill="#333333"/>
<path d="M385.078 229.55C407.234 229.586 428.91 223.097 447.404 210.89C443.226 188.05 427.325 186.74 427.325 186.74H339.653C339.653 186.74 324.661 187.97 319.964 208.99C339.026 222.406 361.772 229.588 385.078 229.55V229.55Z" fill="#21BF54"/>
<path d="M383.879 163.56C411.638 163.56 434.141 141.044 434.141 113.27C434.141 85.4956 411.638 62.98 383.879 62.98C356.119 62.98 333.616 85.4956 333.616 113.27C333.616 141.044 356.119 163.56 383.879 163.56Z" fill="#333333"/>
<path opacity="0.1" d="M366.218 158.88H401.289V186.95C401.289 191.597 399.446 196.054 396.165 199.342C392.884 202.631 388.433 204.482 383.789 204.49C379.139 204.49 374.68 202.642 371.393 199.353C368.105 196.063 366.258 191.602 366.258 186.95V158.88H366.218Z" fill="black"/>
<path d="M369.566 157.58H397.941C398.829 157.58 399.68 157.933 400.308 158.561C400.936 159.189 401.289 160.042 401.289 160.93V185.65C401.289 190.297 399.446 194.754 396.165 198.042C392.884 201.331 388.433 203.182 383.789 203.19C379.139 203.19 374.68 201.342 371.393 198.053C368.105 194.763 366.258 190.302 366.258 185.65V160.92C366.261 160.04 366.609 159.197 367.228 158.572C367.847 157.947 368.687 157.591 369.566 157.58Z" fill="#BE7C5E"/>
<path opacity="0.1" d="M366.288 172.13C377.591 176.357 390.033 176.392 401.359 172.23V167.92H366.288V172.13Z" fill="black"/>
<path d="M383.879 174.47C411.638 174.47 434.141 151.954 434.141 124.18C434.141 96.4056 411.638 73.89 383.879 73.89C356.119 73.89 333.616 96.4056 333.616 124.18C333.616 151.954 356.119 174.47 383.879 174.47Z" fill="#BE7C5E"/>
<path d="M335.835 105.08H431.682C431.682 105.08 423.497 66.36 387.267 68.83C351.037 71.3 335.835 105.08 335.835 105.08Z" fill="#333333"/>
<path d="M334.656 130.81C337.239 130.81 339.333 126.884 339.333 122.04C339.333 117.196 337.239 113.27 334.656 113.27C332.072 113.27 329.978 117.196 329.978 122.04C329.978 126.884 332.072 130.81 334.656 130.81Z" fill="#BE7C5E"/>
<path d="M432.842 130.81C435.425 130.81 437.519 126.884 437.519 122.04C437.519 117.196 435.425 113.27 432.842 113.27C430.258 113.27 428.164 117.196 428.164 122.04C428.164 126.884 430.258 130.81 432.842 130.81Z" fill="#BE7C5E"/>
<path opacity="0.1" d="M335.835 106.38H431.682C431.682 106.38 423.497 67.66 387.267 70.13C351.037 72.6 335.835 106.38 335.835 106.38Z" fill="black"/>
<g opacity="0.5">
<path opacity="0.5" d="M660.866 231.78C724.835 231.78 776.692 179.894 776.692 115.89C776.692 51.8857 724.835 0 660.866 0C596.897 0 545.04 51.8857 545.04 115.89C545.04 179.894 596.897 231.78 660.866 231.78Z" fill="url(#paint3_linear)"/>
</g>
<path d="M661.086 228.58C723.703 228.58 774.464 177.791 774.464 115.14C774.464 52.4888 723.703 1.70001 661.086 1.70001C598.469 1.70001 547.708 52.4888 547.708 115.14C547.708 177.791 598.469 228.58 661.086 228.58Z" fill="#F5F5F5"/>
<path d="M661.186 229.04C683.341 229.076 705.018 222.587 723.512 210.38C719.324 187.53 703.433 186.22 703.433 186.22H615.771C615.771 186.22 600.779 187.45 596.082 208.47C615.14 221.887 637.882 229.073 661.186 229.04V229.04Z" fill="#E81410"/>
<path d="M659.996 167.51C690.223 167.51 714.726 142.993 714.726 112.75C714.726 82.5069 690.223 57.99 659.996 57.99C629.77 57.99 605.267 82.5069 605.267 112.75C605.267 142.993 629.77 167.51 659.996 167.51Z" fill="#72351C"/>
<path opacity="0.1" d="M642.326 158.36H677.397V186.43C677.401 188.736 676.951 191.02 676.071 193.151C675.192 195.283 673.901 197.22 672.273 198.852C670.645 200.484 668.711 201.779 666.582 202.662C664.453 203.545 662.171 204 659.867 204V204C655.217 204 650.758 202.152 647.471 198.863C644.183 195.573 642.336 191.112 642.336 186.46V158.36H642.326Z" fill="black"/>
<path d="M645.645 157.06H674.019C674.907 157.06 675.759 157.413 676.386 158.041C677.014 158.669 677.367 159.522 677.367 160.41V185.13C677.367 189.782 675.52 194.243 672.233 197.533C668.945 200.822 664.486 202.67 659.837 202.67C655.187 202.67 650.729 200.822 647.441 197.533C644.153 194.243 642.306 189.782 642.306 185.13V160.41C642.306 159.522 642.659 158.669 643.287 158.041C643.915 157.413 644.767 157.06 645.655 157.06H645.645Z" fill="#FDA57D"/>
<path opacity="0.1" d="M642.366 171.61C653.669 175.837 666.111 175.872 677.437 171.71V167.4H642.366V171.61Z" fill="black"/>
<path d="M659.997 173.96C687.756 173.96 710.259 151.444 710.259 123.67C710.259 95.8956 687.756 73.38 659.997 73.38C632.238 73.38 609.734 95.8956 609.734 123.67C609.734 151.444 632.238 173.96 659.997 173.96Z" fill="#FDA57D"/>
<path opacity="0.1" d="M624.196 77.93C624.196 77.93 645.375 120.93 705.152 95.93L691.239 74.1L666.583 65.24L624.196 77.93Z" fill="black"/>
<path d="M624.196 77.3C624.196 77.3 645.375 120.3 705.152 95.3L691.239 73.47L666.583 64.61L624.196 77.3Z" fill="#72351C"/>
<path d="M624.006 74.39C625.434 69.9669 627.902 65.9511 631.202 62.68C641.087 52.9 657.298 50.84 665.613 39.68C666.065 40.4698 666.346 41.3456 666.439 42.251C666.532 43.1563 666.434 44.071 666.151 44.936C665.869 45.801 665.408 46.5972 664.799 47.273C664.19 47.9489 663.446 48.4895 662.615 48.86C670.611 48.81 679.816 48.11 684.313 41.55C685.426 44.1423 685.781 46.9973 685.337 49.7835C684.893 52.5697 683.668 55.1727 681.805 57.29C688.861 57.61 696.397 62.4 696.856 69.46C697.156 74.16 694.218 78.61 690.35 81.31C686.482 84.01 681.825 85.22 677.227 86.22C663.814 89.22 615.251 101.63 624.006 74.39Z" fill="#72351C"/>
<path d="M710.259 124.11H708.93L683.004 147.22C658.018 135.52 639.688 147.22 639.688 147.22L612.503 125.08L609.764 125.42C610.135 138.62 615.679 151.144 625.2 160.288C634.721 169.432 647.455 174.462 660.651 174.293C673.848 174.124 686.448 168.768 695.732 159.382C705.015 149.997 710.237 137.335 710.269 124.13L710.259 124.11ZM659.927 156.06C650.152 156.06 642.226 154.06 642.226 151.63C642.226 149.2 650.152 147.2 659.927 147.2C669.701 147.2 677.627 149.2 677.627 151.63C677.627 154.06 669.701 156.06 659.917 156.06H659.927Z" fill="#72351C"/>
<path d="M609.714 132.39C612.298 132.39 614.392 128.464 614.392 123.62C614.392 118.776 612.298 114.85 609.714 114.85C607.131 114.85 605.037 118.776 605.037 123.62C605.037 128.464 607.131 132.39 609.714 132.39Z" fill="#FDA57D"/>
<path d="M710.249 132.39C712.832 132.39 714.926 128.464 714.926 123.62C714.926 118.776 712.832 114.85 710.249 114.85C707.666 114.85 705.572 118.776 705.572 123.62C705.572 128.464 707.666 132.39 710.249 132.39Z" fill="#FDA57D"/>
<g opacity="0.5">
<path opacity="0.5" d="M115.826 482.62C179.795 482.62 231.652 430.734 231.652 366.73C231.652 302.726 179.795 250.84 115.826 250.84C51.8572 250.84 0 302.726 0 366.73C0 430.734 51.8572 482.62 115.826 482.62Z" fill="url(#paint4_linear)"/>
</g>
<path d="M116.046 479.43C178.663 479.43 229.424 428.641 229.424 365.99C229.424 303.339 178.663 252.55 116.046 252.55C53.4293 252.55 2.66846 303.339 2.66846 365.99C2.66846 428.641 53.4293 479.43 116.046 479.43Z" fill="#F5F5F5"/>
<path d="M116.146 479.88C138.298 479.914 159.971 473.425 178.462 461.22C174.284 438.38 158.383 437.07 158.383 437.07H70.6811C70.6811 437.07 55.6894 438.3 50.9919 459.32C70.0655 472.744 92.8267 479.926 116.146 479.88V479.88Z" fill="#FFB400"/>
<path d="M114.947 418.36C145.173 418.36 169.677 393.843 169.677 363.6C169.677 333.357 145.173 308.84 114.947 308.84C84.7202 308.84 60.2168 333.357 60.2168 363.6C60.2168 393.843 84.7202 418.36 114.947 418.36Z" fill="#333333"/>
<path opacity="0.1" d="M97.2864 409.21H132.357V437.28C132.357 441.932 130.51 446.393 127.223 449.683C123.935 452.972 119.476 454.82 114.827 454.82V454.82C110.177 454.82 105.718 452.972 102.431 449.683C99.1433 446.393 97.2964 441.932 97.2964 437.28V409.21H97.2864Z" fill="black"/>
<path d="M100.635 407.91H129.009C129.897 407.91 130.749 408.263 131.376 408.891C132.004 409.519 132.357 410.372 132.357 411.26V436C132.357 440.652 130.51 445.113 127.223 448.403C123.935 451.692 119.476 453.54 114.827 453.54C112.524 453.541 110.243 453.089 108.115 452.208C105.987 451.327 104.053 450.035 102.424 448.406C100.796 446.777 99.5034 444.843 98.6218 442.715C97.7401 440.586 97.2864 438.304 97.2864 436V411.25C97.2864 410.362 97.6391 409.509 98.267 408.881C98.8949 408.253 99.7466 407.9 100.635 407.9V407.91Z" fill="#FDB797"/>
<path opacity="0.1" d="M97.3564 422.46C108.659 426.687 121.101 426.722 132.427 422.56V418.22H97.3564V422.46Z" fill="black"/>
<path d="M114.947 424.81C142.706 424.81 165.209 402.294 165.209 374.52C165.209 346.746 142.706 324.23 114.947 324.23C87.1875 324.23 64.6843 346.746 64.6843 374.52C64.6843 402.294 87.1875 424.81 114.947 424.81Z" fill="#FDB797"/>
<path opacity="0.1" d="M79.1565 328.77C79.1565 328.77 100.335 371.77 160.112 346.77L146.2 324.94L121.543 316.08L79.1565 328.77Z" fill="black"/>
<path d="M79.1565 328.14C79.1565 328.14 100.335 371.14 160.112 346.14L146.2 324.31L121.543 315.45L79.1565 328.14Z" fill="#333333"/>
<path d="M78.9665 325.22C80.3943 320.797 82.862 316.781 86.1625 313.51C96.047 303.73 112.258 301.67 120.574 290.51C121.025 291.3 121.307 292.176 121.399 293.081C121.492 293.986 121.394 294.901 121.111 295.766C120.829 296.631 120.368 297.427 119.759 298.103C119.15 298.779 118.406 299.32 117.575 299.69C125.571 299.64 134.776 298.94 139.273 292.38C140.386 294.972 140.741 297.827 140.297 300.614C139.853 303.4 138.628 306.003 136.765 308.12C143.821 308.44 151.357 313.23 151.816 320.29C152.116 324.99 149.178 329.44 145.31 332.14C141.442 334.84 136.775 336.07 132.177 337.09C118.765 340.07 70.2113 352.48 78.9665 325.22Z" fill="#333333"/>
<path d="M64.6645 383.24C67.2477 383.24 69.3419 379.314 69.3419 374.47C69.3419 369.626 67.2477 365.7 64.6645 365.7C62.0812 365.7 59.9871 369.626 59.9871 374.47C59.9871 379.314 62.0812 383.24 64.6645 383.24Z" fill="#FDB797"/>
<path d="M165.199 383.24C167.782 383.24 169.877 379.314 169.877 374.47C169.877 369.626 167.782 365.7 165.199 365.7C162.616 365.7 160.522 369.626 160.522 374.47C160.522 379.314 162.616 383.24 165.199 383.24Z" fill="#FDB797"/>
<g opacity="0.5">
<path opacity="0.5" d="M665.184 495.47C729.153 495.47 781.01 443.584 781.01 379.58C781.01 315.576 729.153 263.69 665.184 263.69C601.215 263.69 549.357 315.576 549.357 379.58C549.357 443.584 601.215 495.47 665.184 495.47Z" fill="url(#paint5_linear)"/>
</g>
<path d="M665.184 492.39C727.8 492.39 778.561 441.601 778.561 378.95C778.561 316.299 727.8 265.51 665.184 265.51C602.567 265.51 551.806 316.299 551.806 378.95C551.806 441.601 602.567 492.39 665.184 492.39Z" fill="#F5F5F5"/>
<path d="M665.504 492.73C687.659 492.766 709.335 486.277 727.829 474.07C723.652 451.23 707.75 449.92 707.75 449.92H620.079C620.079 449.92 605.087 451.15 600.389 472.17C619.452 485.586 642.198 492.768 665.504 492.73V492.73Z" fill="#0995E3"/>
<path opacity="0.1" d="M646.644 422.06H681.715V450.13C681.715 454.782 679.868 459.243 676.58 462.533C673.293 465.822 668.834 467.67 664.184 467.67V467.67C661.881 467.671 659.601 467.219 657.473 466.338C655.345 465.457 653.411 464.165 651.782 462.536C650.153 460.907 648.861 458.973 647.979 456.845C647.098 454.716 646.644 452.434 646.644 450.13V422.06Z" fill="black"/>
<path d="M649.992 420.76H678.367C679.255 420.76 680.106 421.113 680.734 421.741C681.362 422.369 681.715 423.222 681.715 424.11V448.83C681.715 453.482 679.868 457.943 676.58 461.233C673.293 464.522 668.834 466.37 664.184 466.37V466.37C661.881 466.371 659.601 465.919 657.473 465.038C655.345 464.157 653.411 462.865 651.782 461.236C650.153 459.607 648.861 457.673 647.979 455.545C647.098 453.416 646.644 451.134 646.644 448.83V424.11C646.644 423.222 646.997 422.369 647.625 421.741C648.253 421.113 649.104 420.76 649.992 420.76V420.76Z" fill="#FDB797"/>
<path opacity="0.1" d="M646.714 435.31C658.016 439.537 670.458 439.572 681.785 435.41V431.1H646.714V435.31Z" fill="black"/>
<path d="M664.304 437.66C692.063 437.66 714.567 415.144 714.567 387.37C714.567 359.596 692.063 337.08 664.304 337.08C636.545 337.08 614.042 359.596 614.042 387.37C614.042 415.144 636.545 437.66 664.304 437.66Z" fill="#FDB797"/>
<path d="M615.081 393.99C617.664 393.99 619.759 390.064 619.759 385.22C619.759 380.376 617.664 376.45 615.081 376.45C612.498 376.45 610.404 380.376 610.404 385.22C610.404 390.064 612.498 393.99 615.081 393.99Z" fill="#FDB797"/>
<path d="M713.267 393.99C715.851 393.99 717.945 390.064 717.945 385.22C717.945 380.376 715.851 376.45 713.267 376.45C710.684 376.45 708.59 380.376 708.59 385.22C708.59 390.064 710.684 393.99 713.267 393.99Z" fill="#FDB797"/>
<path d="M650.832 387.61H638.029C635.628 387.61 633.681 389.558 633.681 391.96V394.02C633.681 396.422 635.628 398.37 638.029 398.37H650.832C653.233 398.37 655.179 396.422 655.179 394.02V391.96C655.179 389.558 653.233 387.61 650.832 387.61Z" stroke="#333333" stroke-width="2" stroke-miterlimit="10"/>
<path d="M677.787 398.36H690.59C692.991 398.36 694.938 396.412 694.938 394.01V391.95C694.938 389.548 692.991 387.6 690.59 387.6H677.787C675.386 387.6 673.439 389.548 673.439 391.95V394.01C673.439 396.412 675.386 398.36 677.787 398.36Z" stroke="#333333" stroke-width="2" stroke-miterlimit="10"/>
<path d="M654.36 388.65C654.36 388.65 661.176 384.95 673.849 388.65" stroke="#333333" stroke-width="2" stroke-miterlimit="10"/>
<path d="M699.055 350.92L711.388 379.59C711.388 379.59 726.47 360.57 699.055 350.92Z" fill="#858585"/>
<path d="M694.938 392.99L713.347 376.54" stroke="#333333" stroke-width="2" stroke-linecap="round" stroke-linejoin="round"/>
<path d="M629.573 350.92L617.24 379.59C617.24 379.59 602.158 360.57 629.573 350.92Z" fill="#858585"/>
<path d="M633.681 392.99L615.021 376.54" stroke="#333333" stroke-width="2" stroke-linecap="round" stroke-linejoin="round"/>
<defs>
<linearGradient id="paint0_linear" x1="116.656" y1="237.98" x2="116.656" y2="6.21001" gradientUnits="userSpaceOnUse">
<stop stop-color="#808080" stop-opacity="0.25"/>
<stop offset="0.54" stop-color="#808080" stop-opacity="0.12"/>
<stop offset="1" stop-color="#808080" stop-opacity="0.1"/>
</linearGradient>
<linearGradient id="paint1_linear" x1="89473.8" y1="113879" x2="89473.8" y2="60159.7" gradientUnits="userSpaceOnUse">
<stop stop-color="#808080" stop-opacity="0.25"/>
<stop offset="0.54" stop-color="#808080" stop-opacity="0.12"/>
<stop offset="1" stop-color="#808080" stop-opacity="0.1"/>
</linearGradient>
<linearGradient id="paint2_linear" x1="89448.2" y1="53840.7" x2="89448.2" y2="118.718" gradientUnits="userSpaceOnUse">
<stop stop-color="#808080" stop-opacity="0.25"/>
<stop offset="0.54" stop-color="#808080" stop-opacity="0.12"/>
<stop offset="1" stop-color="#808080" stop-opacity="0.1"/>
</linearGradient>
<linearGradient id="paint3_linear" x1="153721" y1="53719.6" x2="153721" y2="0" gradientUnits="userSpaceOnUse">
<stop stop-color="#808080" stop-opacity="0.25"/>
<stop offset="0.54" stop-color="#808080" stop-opacity="0.12"/>
<stop offset="1" stop-color="#808080" stop-opacity="0.1"/>
</linearGradient>
<linearGradient id="paint4_linear" x1="26846.2" y1="112113" x2="26846.2" y2="58392.9" gradientUnits="userSpaceOnUse">
<stop stop-color="#808080" stop-opacity="0.25"/>
<stop offset="0.54" stop-color="#808080" stop-opacity="0.12"/>
<stop offset="1" stop-color="#808080" stop-opacity="0.1"/>
</linearGradient>
<linearGradient id="paint5_linear" x1="154726" y1="115104" x2="154726" y2="61384.1" gradientUnits="userSpaceOnUse">
<stop stop-color="#808080" stop-opacity="0.25"/>
<stop offset="0.54" stop-color="#808080" stop-opacity="0.12"/>
<stop offset="1" stop-color="#808080" stop-opacity="0.1"/>
</linearGradient>
</defs>
</svg>
