<svg width="897" height="463" viewBox="0 0 897 463" fill="none" xmlns="http://www.w3.org/2000/svg">
<path d="M895.485 462.169H1.19066C0.875467 462.168 0.573504 462.042 0.350952 461.819C0.1284 461.595 0.00341797 461.293 0.00341797 460.978C0.00341797 460.663 0.1284 460.36 0.350952 460.137C0.573504 459.914 0.875467 459.788 1.19066 459.787H895.485C895.8 459.788 896.102 459.914 896.324 460.137C896.547 460.36 896.672 460.663 896.672 460.978C896.672 461.293 896.547 461.595 896.324 461.819C896.102 462.042 895.8 462.168 895.485 462.169Z" fill="#3F3D56"/>
<path d="M280.353 57.4471C283.925 57.4471 286.82 54.5518 286.82 50.9802C286.82 47.4087 283.925 44.5133 280.353 44.5133C276.782 44.5133 273.886 47.4087 273.886 50.9802C273.886 54.5518 276.782 57.4471 280.353 57.4471Z" fill="#F2F2F2"/>
<path d="M254.58 57.4471C258.151 57.4471 261.047 54.5518 261.047 50.9802C261.047 47.4087 258.151 44.5133 254.58 44.5133C251.008 44.5133 248.113 47.4087 248.113 50.9802C248.113 54.5518 251.008 57.4471 254.58 57.4471Z" fill="#F2F2F2"/>
<path d="M228.807 57.4471C232.378 57.4471 235.273 54.5518 235.273 50.9802C235.273 47.4087 232.378 44.5133 228.807 44.5133C225.235 44.5133 222.34 47.4087 222.34 50.9802C222.34 54.5518 225.235 57.4471 228.807 57.4471Z" fill="#F2F2F2"/>
<path d="M203.033 57.4471C206.605 57.4471 209.5 54.5518 209.5 50.9802C209.5 47.4087 206.605 44.5133 203.033 44.5133C199.462 44.5133 196.566 47.4087 196.566 50.9802C196.566 54.5518 199.462 57.4471 203.033 57.4471Z" fill="#F2F2F2"/>
<path d="M280.353 84.4471C283.925 84.4471 286.82 81.5518 286.82 77.9802C286.82 74.4087 283.925 71.5133 280.353 71.5133C276.782 71.5133 273.886 74.4087 273.886 77.9802C273.886 81.5518 276.782 84.4471 280.353 84.4471Z" fill="#F2F2F2"/>
<path d="M254.58 84.4471C258.151 84.4471 261.047 81.5518 261.047 77.9802C261.047 74.4087 258.151 71.5133 254.58 71.5133C251.008 71.5133 248.113 74.4087 248.113 77.9802C248.113 81.5518 251.008 84.4471 254.58 84.4471Z" fill="#F2F2F2"/>
<path d="M228.807 84.4471C232.378 84.4471 235.273 81.5518 235.273 77.9802C235.273 74.4087 232.378 71.5133 228.807 71.5133C225.235 71.5133 222.34 74.4087 222.34 77.9802C222.34 81.5518 225.235 84.4471 228.807 84.4471Z" fill="#F2F2F2"/>
<path d="M203.033 84.4471C206.605 84.4471 209.5 81.5518 209.5 77.9802C209.5 74.4087 206.605 71.5133 203.033 71.5133C199.462 71.5133 196.566 74.4087 196.566 77.9802C196.566 81.5518 199.462 84.4471 203.033 84.4471Z" fill="#F2F2F2"/>
<path d="M280.353 111.447C283.925 111.447 286.82 108.552 286.82 104.98C286.82 101.409 283.925 98.5133 280.353 98.5133C276.782 98.5133 273.886 101.409 273.886 104.98C273.886 108.552 276.782 111.447 280.353 111.447Z" fill="#F2F2F2"/>
<path d="M254.58 111.447C258.151 111.447 261.047 108.552 261.047 104.98C261.047 101.409 258.151 98.5133 254.58 98.5133C251.008 98.5133 248.113 101.409 248.113 104.98C248.113 108.552 251.008 111.447 254.58 111.447Z" fill="#F2F2F2"/>
<path d="M228.807 111.447C232.378 111.447 235.273 108.552 235.273 104.98C235.273 101.409 232.378 98.5133 228.807 98.5133C225.235 98.5133 222.34 101.409 222.34 104.98C222.34 108.552 225.235 111.447 228.807 111.447Z" fill="#F2F2F2"/>
<path d="M203.033 111.447C206.605 111.447 209.5 108.552 209.5 104.98C209.5 101.409 206.605 98.5133 203.033 98.5133C199.462 98.5133 196.566 101.409 196.566 104.98C196.566 108.552 199.462 111.447 203.033 111.447Z" fill="#F2F2F2"/>
<path d="M280.353 138.447C283.925 138.447 286.82 135.552 286.82 131.98C286.82 128.409 283.925 125.513 280.353 125.513C276.782 125.513 273.886 128.409 273.886 131.98C273.886 135.552 276.782 138.447 280.353 138.447Z" fill="#F2F2F2"/>
<path d="M254.58 138.447C258.151 138.447 261.047 135.552 261.047 131.98C261.047 128.409 258.151 125.513 254.58 125.513C251.008 125.513 248.113 128.409 248.113 131.98C248.113 135.552 251.008 138.447 254.58 138.447Z" fill="#F2F2F2"/>
<path d="M228.807 138.447C232.378 138.447 235.273 135.552 235.273 131.98C235.273 128.409 232.378 125.513 228.807 125.513C225.235 125.513 222.34 128.409 222.34 131.98C222.34 135.552 225.235 138.447 228.807 138.447Z" fill="#F2F2F2"/>
<path d="M203.033 138.447C206.605 138.447 209.5 135.552 209.5 131.98C209.5 128.409 206.605 125.513 203.033 125.513C199.462 125.513 196.566 128.409 196.566 131.98C196.566 135.552 199.462 138.447 203.033 138.447Z" fill="#F2F2F2"/>
<path d="M280.353 165.447C283.925 165.447 286.82 162.552 286.82 158.98C286.82 155.409 283.925 152.513 280.353 152.513C276.782 152.513 273.886 155.409 273.886 158.98C273.886 162.552 276.782 165.447 280.353 165.447Z" fill="#F2F2F2"/>
<path d="M254.58 165.447C258.151 165.447 261.047 162.552 261.047 158.98C261.047 155.409 258.151 152.513 254.58 152.513C251.008 152.513 248.113 155.409 248.113 158.98C248.113 162.552 251.008 165.447 254.58 165.447Z" fill="#F2F2F2"/>
<path d="M228.807 165.447C232.378 165.447 235.273 162.552 235.273 158.98C235.273 155.409 232.378 152.513 228.807 152.513C225.235 152.513 222.34 155.409 222.34 158.98C222.34 162.552 225.235 165.447 228.807 165.447Z" fill="#F2F2F2"/>
<path d="M203.033 165.447C206.605 165.447 209.5 162.552 209.5 158.98C209.5 155.409 206.605 152.513 203.033 152.513C199.462 152.513 196.566 155.409 196.566 158.98C196.566 162.552 199.462 165.447 203.033 165.447Z" fill="#F2F2F2"/>
<path d="M280.353 192.447C283.925 192.447 286.82 189.552 286.82 185.98C286.82 182.409 283.925 179.513 280.353 179.513C276.782 179.513 273.886 182.409 273.886 185.98C273.886 189.552 276.782 192.447 280.353 192.447Z" fill="#F2F2F2"/>
<path d="M254.58 192.447C258.151 192.447 261.047 189.552 261.047 185.98C261.047 182.409 258.151 179.513 254.58 179.513C251.008 179.513 248.113 182.409 248.113 185.98C248.113 189.552 251.008 192.447 254.58 192.447Z" fill="#F2F2F2"/>
<path d="M228.807 192.447C232.378 192.447 235.273 189.552 235.273 185.98C235.273 182.409 232.378 179.513 228.807 179.513C225.235 179.513 222.34 182.409 222.34 185.98C222.34 189.552 225.235 192.447 228.807 192.447Z" fill="#F2F2F2"/>
<path d="M203.033 192.447C206.605 192.447 209.5 189.552 209.5 185.98C209.5 182.409 206.605 179.513 203.033 179.513C199.462 179.513 196.566 182.409 196.566 185.98C196.566 189.552 199.462 192.447 203.033 192.447Z" fill="#F2F2F2"/>
<path d="M223.528 362.4V364.4C223.531 367.714 224.849 370.892 227.192 373.236C229.536 375.579 232.714 376.897 236.028 376.9H326.028C329.343 376.899 332.522 375.581 334.866 373.237C337.21 370.893 338.527 367.715 338.528 364.4V362.4C338.534 359.475 337.507 356.641 335.628 354.4C335.002 353.656 334.294 352.985 333.518 352.4C333.518 352.4 284.038 351.28 284.038 349.9H236.028C232.714 349.904 229.538 351.223 227.194 353.566C224.851 355.909 223.533 359.086 223.528 362.4V362.4Z" fill="#CCCCCC"/>
<path d="M288.252 376.403H275.252V460.403H288.252V376.403Z" fill="#CCCCCC"/>
<path d="M325.252 459.947C325.252 461.351 305.552 460.49 281.252 460.49C256.951 460.49 237.252 461.351 237.252 459.947C237.252 458.542 256.951 447.403 281.252 447.403C305.552 447.403 325.252 458.542 325.252 459.947Z" fill="#CCCCCC"/>
<path d="M307.379 360.703C308.317 359.444 308.968 357.994 309.286 356.456C309.603 354.918 309.58 353.329 309.217 351.801C308.854 350.273 308.16 348.844 307.185 347.613C306.21 346.382 304.976 345.38 303.572 344.677L276.019 250.792L255.038 261.067L288.719 350.122C287.695 352.56 287.6 355.289 288.454 357.792C289.307 360.294 291.049 362.397 293.349 363.701C295.649 365.005 298.348 365.421 300.933 364.868C303.519 364.316 305.813 362.834 307.379 360.704L307.379 360.703Z" fill="#A0616A"/>
<path d="M282.261 266.47L258.778 272.827C258.11 273.008 257.411 273.043 256.728 272.929C256.045 272.815 255.395 272.556 254.821 272.168C254.248 271.78 253.765 271.274 253.405 270.682C253.045 270.091 252.817 269.429 252.736 268.742L249.898 244.654C248.992 241.231 249.48 237.588 251.257 234.524C253.033 231.46 255.951 229.225 259.372 228.31C262.793 227.395 266.438 227.873 269.507 229.641C272.575 231.408 274.818 234.321 275.743 237.739L285.417 259.895C285.694 260.529 285.831 261.216 285.818 261.908C285.806 262.6 285.644 263.281 285.345 263.905C285.045 264.529 284.615 265.082 284.082 265.524C283.55 265.967 282.929 266.29 282.261 266.47H282.261Z" fill="#656BD3"/>
<path d="M313.516 450.101L325.776 450.1L331.609 418.304H313.514L313.516 450.101Z" fill="#A0616A"/>
<path d="M310.389 446.098L334.532 446.097H334.533C336.554 446.097 338.555 446.495 340.422 447.268C342.288 448.042 343.985 449.175 345.413 450.604C346.842 452.032 347.976 453.729 348.749 455.595C349.522 457.462 349.92 459.463 349.92 461.483V461.983L310.389 461.985L310.389 446.098Z" fill="#2F2E41"/>
<path d="M327.746 433.05C327.604 433.05 327.46 433.043 327.316 433.03L310.35 431.794C309.663 431.731 309.001 431.51 308.414 431.15C307.826 430.79 307.329 430.3 306.961 429.717C306.593 429.135 306.364 428.475 306.291 427.79C306.218 427.105 306.303 426.412 306.54 425.765L329.247 374.75C329.409 374.296 329.475 373.812 329.442 373.33C329.408 372.849 329.275 372.379 329.051 371.952C328.827 371.519 328.514 371.138 328.133 370.835C327.752 370.532 327.311 370.312 326.839 370.192C316.162 367.401 288.767 359.969 265.053 351.274C254.893 347.548 248.494 342.164 246.034 335.272C242.791 326.185 247.589 317.898 247.795 317.55L247.956 317.278L270.27 319.306L294.461 321.364L347.475 349.791C351.917 352.194 355.291 356.181 356.925 360.959C358.56 365.738 358.334 370.956 356.293 375.576L331.853 430.383C331.499 431.177 330.923 431.851 330.194 432.325C329.466 432.798 328.615 433.05 327.746 433.05V433.05Z" fill="#2F2E41"/>
<path d="M274.15 218.377C287.715 218.377 298.711 207.381 298.711 193.816C298.711 180.251 287.715 169.255 274.15 169.255C260.586 169.255 249.589 180.251 249.589 193.816C249.589 207.381 260.586 218.377 274.15 218.377Z" fill="#A0616A"/>
<path d="M306.516 449.101L318.776 449.1L324.609 417.304H306.514L306.516 449.101Z" fill="#A0616A"/>
<path d="M303.389 445.098L327.532 445.097H327.533C329.554 445.097 331.555 445.495 333.422 446.268C335.288 447.042 336.985 448.175 338.413 449.604C339.842 451.032 340.976 452.729 341.749 454.595C342.522 456.462 342.92 458.463 342.92 460.483V460.983L303.389 460.985L303.389 445.098Z" fill="#2F2E41"/>
<path d="M320.746 436.05C320.604 436.05 320.46 436.043 320.316 436.03L303.35 434.794C302.663 434.731 302.001 434.51 301.414 434.15C300.826 433.79 300.329 433.3 299.961 432.717C299.593 432.135 299.364 431.475 299.291 430.79C299.218 430.105 299.303 429.412 299.54 428.765L322.247 377.75C322.409 377.296 322.475 376.812 322.442 376.33C322.408 375.849 322.275 375.379 322.051 374.952C321.827 374.519 321.514 374.138 321.133 373.835C320.752 373.532 320.311 373.312 319.839 373.192C309.162 370.401 281.767 362.969 258.053 354.274C247.893 350.548 241.494 345.164 239.034 338.272C235.791 329.185 240.589 320.898 240.795 320.55L240.956 320.278L263.27 322.306L287.461 324.364L340.475 352.791C344.917 355.194 348.291 359.181 349.925 363.959C351.56 368.738 351.334 373.956 349.293 378.576L324.853 433.383C324.499 434.177 323.923 434.851 323.194 435.325C322.466 435.798 321.615 436.05 320.746 436.05V436.05Z" fill="#2F2E41"/>
<path d="M281.725 232.304L255.725 223.304C255.725 223.304 239.403 235.844 247.244 266.953C251.338 283.006 250.145 299.951 243.844 315.273C243.085 317.169 242.211 319.016 241.225 320.804C241.225 320.804 270.225 355.804 297.225 329.804L286.725 279.304C286.725 279.304 303.225 245.804 281.725 232.304Z" fill="#2F2E41"/>
<path d="M277.2 219.212C273.704 213.98 270.945 206.725 274.794 201.746C278.593 196.832 286.086 197.556 291.905 195.382C300.009 192.353 304.709 182.832 303.243 174.306C301.777 165.78 294.933 158.712 286.779 155.82C278.625 152.928 269.43 153.868 261.446 157.198C251.616 161.298 243.185 169.229 239.649 179.275C236.113 189.321 238.003 201.383 245.338 209.104C253.202 217.383 265.544 219.589 276.961 219.455" fill="#2F2E41"/>
<path d="M254.353 174.58C249.948 178.166 243.228 176.573 238.499 173.426C233.771 170.279 229.934 165.798 224.818 163.33C215.799 158.98 204.894 161.872 196.116 166.69C187.339 171.509 179.557 178.165 170.285 181.946C161.013 185.728 149.181 185.914 142.16 178.775C140.433 183.781 140.291 189.198 141.756 194.287C143.221 199.376 146.22 203.889 150.344 207.211C154.468 210.532 159.517 212.501 164.801 212.847C170.085 213.193 175.348 211.901 179.871 209.146C190.03 202.958 195.642 189.983 207.036 186.567C213.342 184.677 220.113 186.199 226.486 187.848C232.858 189.497 239.503 191.278 245.935 189.875C252.366 188.471 258.382 182.692 257.563 176.16L254.353 174.58Z" fill="#2F2E41"/>
<path d="M334.307 406.007C331.706 389.114 331.706 371.924 334.307 355.031C334.472 354.026 334.988 353.112 335.764 352.451C336.54 351.791 337.525 351.428 338.544 351.426H378.416C379.062 351.424 379.7 351.569 380.282 351.851C380.863 352.133 381.373 352.543 381.771 353.052C382.179 353.567 382.463 354.169 382.603 354.811C382.743 355.453 382.735 356.118 382.579 356.756C378.849 372.379 378.849 388.659 382.579 404.282C382.735 404.92 382.743 405.585 382.603 406.227C382.463 406.869 382.179 407.471 381.771 407.986C381.373 408.495 380.863 408.905 380.282 409.187C379.7 409.469 379.062 409.614 378.416 409.612H338.544C337.525 409.61 336.54 409.247 335.764 408.586C334.988 407.926 334.472 407.012 334.307 406.007V406.007Z" fill="#656BD3"/>
<path d="M366.146 376.102H345.222C344.427 376.101 343.664 375.785 343.102 375.222C342.54 374.66 342.223 373.897 342.222 373.102V371.93C342.223 371.135 342.54 370.372 343.102 369.81C343.664 369.247 344.427 368.931 345.222 368.93H366.146C366.941 368.931 367.704 369.247 368.266 369.81C368.829 370.372 369.145 371.135 369.146 371.93V373.102C369.145 373.897 368.829 374.66 368.266 375.222C367.704 375.785 366.941 376.101 366.146 376.102Z" fill="white"/>
<path d="M366.146 388.447H345.222C344.427 388.446 343.664 388.13 343.102 387.567C342.54 387.005 342.223 386.242 342.222 385.447V384.274C342.223 383.479 342.54 382.717 343.102 382.154C343.664 381.592 344.427 381.275 345.222 381.274H366.146C366.941 381.275 367.704 381.592 368.266 382.154C368.829 382.717 369.145 383.479 369.146 384.274V385.447C369.145 386.242 368.829 387.005 368.266 387.567C367.704 388.13 366.941 388.446 366.146 388.447Z" fill="white"/>
<path d="M344.792 356.204C345.386 354.75 345.654 353.184 345.577 351.615C345.5 350.047 345.081 348.514 344.347 347.125C343.614 345.736 342.585 344.525 341.333 343.577C340.081 342.629 338.637 341.966 337.101 341.637L286.966 257.613L269.218 272.805L324.08 350.621C323.697 353.237 324.288 355.903 325.739 358.113C327.191 360.323 329.403 361.924 331.956 362.612C334.509 363.3 337.226 363.028 339.591 361.847C341.957 360.666 343.807 358.658 344.792 356.204L344.792 356.204Z" fill="#A0616A"/>
<path d="M296.927 271.235L275.777 283.257C275.176 283.599 274.507 283.808 273.818 283.868C273.128 283.928 272.434 283.84 271.782 283.607C271.13 283.375 270.535 283.005 270.039 282.523C269.543 282.04 269.156 281.456 268.906 280.811L260.14 258.196C258.408 255.108 257.971 251.458 258.925 248.048C259.879 244.637 262.147 241.744 265.231 240.003C268.315 238.262 271.963 237.815 275.376 238.76C278.789 239.705 281.688 241.964 283.438 245.043L298.341 264.079C298.767 264.625 299.071 265.255 299.232 265.928C299.393 266.602 299.406 267.302 299.272 267.981C299.138 268.66 298.859 269.302 298.455 269.864C298.05 270.425 297.529 270.893 296.927 271.235V271.235Z" fill="#2F2E41"/>
<path d="M521.967 300.75H115.967C114.243 300.75 112.59 301.434 111.371 302.653C110.152 303.872 109.467 305.526 109.467 307.25C109.467 308.973 110.152 310.627 111.371 311.846C112.59 313.065 114.243 313.75 115.967 313.75H127.467V455.25C127.467 456.973 128.152 458.627 129.371 459.846C130.59 461.065 132.243 461.75 133.967 461.75C135.691 461.75 137.345 461.065 138.564 459.846C139.782 458.627 140.467 456.973 140.467 455.25V326.24L213.338 458.318C214.202 459.807 215.622 460.893 217.285 461.336C218.948 461.78 220.72 461.546 222.211 460.685C223.702 459.825 224.791 458.407 225.238 456.745C225.685 455.082 225.455 453.31 224.597 451.818L148.421 313.75H496.467V313.834L420.338 451.818C419.476 453.31 419.243 455.085 419.689 456.75C420.135 458.415 421.224 459.834 422.717 460.696C424.21 461.558 425.984 461.792 427.649 461.346C429.315 460.9 430.734 459.81 431.596 458.318L496.467 340.739V455.25C496.467 456.973 497.152 458.627 498.371 459.846C499.59 461.065 501.243 461.75 502.967 461.75C504.691 461.75 506.345 461.065 507.564 459.846C508.782 458.627 509.467 456.973 509.467 455.25V317.177L511.358 313.75H521.967C523.691 313.75 525.345 313.065 526.564 311.846C527.782 310.627 528.467 308.973 528.467 307.25C528.467 305.526 527.782 303.872 526.564 302.653C525.345 301.434 523.691 300.75 521.967 300.75V300.75Z" fill="#3F3D56"/>
<path d="M353.967 296.75H274.967C273.034 296.75 271.467 298.317 271.467 300.25C271.467 302.183 273.034 303.75 274.967 303.75H353.967C355.9 303.75 357.467 302.183 357.467 300.25C357.467 298.317 355.9 296.75 353.967 296.75Z" fill="#CCCCCC"/>
<path d="M406.967 303.75H317.967C316.244 303.748 314.592 303.062 313.373 301.844C312.155 300.625 311.469 298.973 311.467 297.25V248.25C311.469 246.526 312.155 244.874 313.373 243.656C314.592 242.437 316.244 241.752 317.967 241.75H406.967C408.691 241.752 410.343 242.437 411.561 243.656C412.78 244.874 413.465 246.526 413.467 248.25V297.25C413.465 298.973 412.78 300.625 411.561 301.844C410.343 303.062 408.691 303.748 406.967 303.75V303.75Z" fill="#CCCCCC"/>
<path d="M362.467 278.75C365.781 278.75 368.467 276.063 368.467 272.75C368.467 269.436 365.781 266.75 362.467 266.75C359.154 266.75 356.467 269.436 356.467 272.75C356.467 276.063 359.154 278.75 362.467 278.75Z" fill="white"/>
<path d="M474.888 183.021V7.52142C474.89 5.52731 475.683 3.61553 477.093 2.20547C478.503 0.795424 480.415 0.00226824 482.409 0H621.138C623.132 0.00226824 625.044 0.795424 626.454 2.20547C627.864 3.61553 628.657 5.52731 628.659 7.52142V183.021C628.657 185.016 627.864 186.927 626.454 188.337C625.044 189.747 623.132 190.541 621.138 190.543H482.409C480.415 190.541 478.503 189.747 477.093 188.337C475.683 186.927 474.89 185.016 474.888 183.021V183.021ZM482.409 1.67143C480.858 1.67317 479.371 2.29007 478.275 3.38678C477.178 4.48349 476.561 5.97044 476.559 7.52142V183.021C476.561 184.572 477.178 186.059 478.275 187.156C479.371 188.253 480.858 188.87 482.409 188.871H621.138C622.689 188.87 624.176 188.253 625.273 187.156C626.369 186.059 626.986 184.572 626.988 183.021V7.52142C626.986 5.97044 626.369 4.48349 625.273 3.38678C624.176 2.29007 622.689 1.67317 621.138 1.67143H482.409Z" fill="#E6E6E6"/>
<path d="M559.553 80.5977V44.562C559.554 43.565 559.951 42.6091 560.656 41.904C561.361 41.199 562.317 40.8024 563.314 40.8013H593.851C594.848 40.8024 595.804 41.199 596.509 41.904C597.214 42.6091 597.611 43.565 597.612 44.562V80.5977C597.611 81.5948 597.214 82.5507 596.509 83.2557C595.804 83.9608 594.848 84.3573 593.851 84.3584H563.314C562.317 84.3573 561.361 83.9608 560.656 83.2557C559.951 82.5507 559.554 81.5948 559.553 80.5977V80.5977Z" fill="#656BD3"/>
<path d="M500.217 97.312V61.2763C500.219 60.2792 500.615 59.3233 501.32 58.6183C502.025 57.9133 502.981 57.5167 503.978 57.5156H534.515C535.512 57.5167 536.468 57.9133 537.173 58.6183C537.878 59.3233 538.275 60.2792 538.276 61.2763V97.312C538.275 98.309 537.878 99.265 537.173 99.97C536.468 100.675 535.512 101.072 534.515 101.073H503.978C502.981 101.072 502.025 100.675 501.32 99.97C500.615 99.265 500.219 98.309 500.217 97.312V97.312Z" fill="#CCCCCC"/>
<path d="M547.853 148.291V112.255C547.854 111.258 548.251 110.302 548.956 109.597C549.661 108.892 550.617 108.495 551.614 108.494H582.151C583.148 108.495 584.104 108.892 584.809 109.597C585.514 110.302 585.91 111.258 585.912 112.255V148.291C585.91 149.288 585.514 150.244 584.809 150.949C584.104 151.654 583.148 152.05 582.151 152.051H551.614C550.617 152.05 549.661 151.654 548.956 150.949C548.251 150.244 547.854 149.288 547.853 148.291Z" fill="#FF6584"/>
<path d="M780.741 18.2872C784.313 18.2872 787.208 15.3918 787.208 11.8203C787.208 8.24872 784.313 5.35339 780.741 5.35339C777.17 5.35339 774.274 8.24872 774.274 11.8203C774.274 15.3918 777.17 18.2872 780.741 18.2872Z" fill="#F2F2F2"/>
<path d="M780.741 44.0605C784.313 44.0605 787.208 41.1651 787.208 37.5936C787.208 34.022 784.313 31.1267 780.741 31.1267C777.17 31.1267 774.274 34.022 774.274 37.5936C774.274 41.1651 777.17 44.0605 780.741 44.0605Z" fill="#F2F2F2"/>
<path d="M780.741 69.8338C784.313 69.8338 787.208 66.9384 787.208 63.3669C787.208 59.7953 784.313 56.9 780.741 56.9C777.17 56.9 774.274 59.7953 774.274 63.3669C774.274 66.9384 777.17 69.8338 780.741 69.8338Z" fill="#F2F2F2"/>
<path d="M780.741 95.6071C784.313 95.6071 787.208 92.7117 787.208 89.1402C787.208 85.5686 784.313 82.6733 780.741 82.6733C777.17 82.6733 774.274 85.5686 774.274 89.1402C774.274 92.7117 777.17 95.6071 780.741 95.6071Z" fill="#F2F2F2"/>
<path d="M753.741 18.2872C757.313 18.2872 760.208 15.3918 760.208 11.8203C760.208 8.24872 757.313 5.35339 753.741 5.35339C750.17 5.35339 747.274 8.24872 747.274 11.8203C747.274 15.3918 750.17 18.2872 753.741 18.2872Z" fill="#F2F2F2"/>
<path d="M753.741 44.0605C757.313 44.0605 760.208 41.1651 760.208 37.5936C760.208 34.022 757.313 31.1267 753.741 31.1267C750.17 31.1267 747.274 34.022 747.274 37.5936C747.274 41.1651 750.17 44.0605 753.741 44.0605Z" fill="#F2F2F2"/>
<path d="M753.741 69.8338C757.313 69.8338 760.208 66.9384 760.208 63.3669C760.208 59.7953 757.313 56.9 753.741 56.9C750.17 56.9 747.274 59.7953 747.274 63.3669C747.274 66.9384 750.17 69.8338 753.741 69.8338Z" fill="#F2F2F2"/>
<path d="M753.741 95.6071C757.313 95.6071 760.208 92.7117 760.208 89.1402C760.208 85.5686 757.313 82.6733 753.741 82.6733C750.17 82.6733 747.274 85.5686 747.274 89.1402C747.274 92.7117 750.17 95.6071 753.741 95.6071Z" fill="#F2F2F2"/>
<path d="M726.741 18.2872C730.313 18.2872 733.208 15.3918 733.208 11.8203C733.208 8.24872 730.313 5.35339 726.741 5.35339C723.17 5.35339 720.274 8.24872 720.274 11.8203C720.274 15.3918 723.17 18.2872 726.741 18.2872Z" fill="#F2F2F2"/>
<path d="M726.741 44.0605C730.313 44.0605 733.208 41.1651 733.208 37.5936C733.208 34.022 730.313 31.1267 726.741 31.1267C723.17 31.1267 720.274 34.022 720.274 37.5936C720.274 41.1651 723.17 44.0605 726.741 44.0605Z" fill="#F2F2F2"/>
<path d="M726.741 69.8338C730.313 69.8338 733.208 66.9384 733.208 63.3669C733.208 59.7953 730.313 56.9 726.741 56.9C723.17 56.9 720.274 59.7953 720.274 63.3669C720.274 66.9384 723.17 69.8338 726.741 69.8338Z" fill="#F2F2F2"/>
<path d="M726.741 95.6071C730.313 95.6071 733.208 92.7117 733.208 89.1402C733.208 85.5686 730.313 82.6733 726.741 82.6733C723.17 82.6733 720.274 85.5686 720.274 89.1402C720.274 92.7117 723.17 95.6071 726.741 95.6071Z" fill="#F2F2F2"/>
<path d="M699.741 18.2872C703.313 18.2872 706.208 15.3918 706.208 11.8203C706.208 8.24872 703.313 5.35339 699.741 5.35339C696.17 5.35339 693.274 8.24872 693.274 11.8203C693.274 15.3918 696.17 18.2872 699.741 18.2872Z" fill="#F2F2F2"/>
<path d="M699.741 44.0605C703.313 44.0605 706.208 41.1651 706.208 37.5936C706.208 34.022 703.313 31.1267 699.741 31.1267C696.17 31.1267 693.274 34.022 693.274 37.5936C693.274 41.1651 696.17 44.0605 699.741 44.0605Z" fill="#F2F2F2"/>
<path d="M699.741 69.8338C703.313 69.8338 706.208 66.9384 706.208 63.3669C706.208 59.7953 703.313 56.9 699.741 56.9C696.17 56.9 693.274 59.7953 693.274 63.3669C693.274 66.9384 696.17 69.8338 699.741 69.8338Z" fill="#F2F2F2"/>
<path d="M699.741 95.6071C703.313 95.6071 706.208 92.7117 706.208 89.1402C706.208 85.5686 703.313 82.6733 699.741 82.6733C696.17 82.6733 693.274 85.5686 693.274 89.1402C693.274 92.7117 696.17 95.6071 699.741 95.6071Z" fill="#F2F2F2"/>
<path d="M672.741 18.2872C676.313 18.2872 679.208 15.3918 679.208 11.8203C679.208 8.24872 676.313 5.35339 672.741 5.35339C669.17 5.35339 666.274 8.24872 666.274 11.8203C666.274 15.3918 669.17 18.2872 672.741 18.2872Z" fill="#F2F2F2"/>
<path d="M672.741 44.0605C676.313 44.0605 679.208 41.1651 679.208 37.5936C679.208 34.022 676.313 31.1267 672.741 31.1267C669.17 31.1267 666.274 34.022 666.274 37.5936C666.274 41.1651 669.17 44.0605 672.741 44.0605Z" fill="#F2F2F2"/>
<path d="M672.741 69.8338C676.313 69.8338 679.208 66.9384 679.208 63.3669C679.208 59.7953 676.313 56.9 672.741 56.9C669.17 56.9 666.274 59.7953 666.274 63.3669C666.274 66.9384 669.17 69.8338 672.741 69.8338Z" fill="#F2F2F2"/>
<path d="M672.741 95.6071C676.313 95.6071 679.208 92.7117 679.208 89.1402C679.208 85.5686 676.313 82.6733 672.741 82.6733C669.17 82.6733 666.274 85.5686 666.274 89.1402C666.274 92.7117 669.17 95.6071 672.741 95.6071Z" fill="#F2F2F2"/>
<path d="M645.741 18.2872C649.313 18.2872 652.208 15.3918 652.208 11.8203C652.208 8.24872 649.313 5.35339 645.741 5.35339C642.17 5.35339 639.274 8.24872 639.274 11.8203C639.274 15.3918 642.17 18.2872 645.741 18.2872Z" fill="#F2F2F2"/>
<path d="M645.741 44.0605C649.313 44.0605 652.208 41.1651 652.208 37.5936C652.208 34.022 649.313 31.1267 645.741 31.1267C642.17 31.1267 639.274 34.022 639.274 37.5936C639.274 41.1651 642.17 44.0605 645.741 44.0605Z" fill="#F2F2F2"/>
<path d="M645.741 69.8338C649.313 69.8338 652.208 66.9384 652.208 63.3669C652.208 59.7953 649.313 56.9 645.741 56.9C642.17 56.9 639.274 59.7953 639.274 63.3669C639.274 66.9384 642.17 69.8338 645.741 69.8338Z" fill="#F2F2F2"/>
<path d="M645.741 95.6071C649.313 95.6071 652.208 92.7117 652.208 89.1402C652.208 85.5686 649.313 82.6733 645.741 82.6733C642.17 82.6733 639.274 85.5686 639.274 89.1402C639.274 92.7117 642.17 95.6071 645.741 95.6071Z" fill="#F2F2F2"/>
<path d="M671.795 241.252C671.264 239.796 671.048 238.244 671.159 236.698C671.27 235.152 671.706 233.647 672.44 232.281C673.173 230.915 674.187 229.72 675.414 228.774C676.642 227.827 678.055 227.151 679.562 226.789C680.04 226.676 680.525 226.597 681.014 226.552L705.316 183.954L699.18 173.411L714.455 161.626L726.142 177.858C727.536 179.81 728.263 182.158 728.216 184.556C728.169 186.953 727.351 189.272 725.882 191.167L692.517 233.881C692.638 234.22 692.742 234.566 692.828 234.915C693.189 236.423 693.229 237.99 692.943 239.513C692.657 241.037 692.052 242.483 691.168 243.756C690.285 245.03 689.142 246.103 687.815 246.904C686.488 247.705 685.006 248.217 683.468 248.405C683.021 248.462 682.571 248.49 682.121 248.49C679.867 248.482 677.669 247.785 675.822 246.491C673.976 245.197 672.571 243.369 671.795 241.252V241.252Z" fill="#FFB8B8"/>
<path d="M624.38 450.888L612.12 450.887L606.288 403.599L624.382 403.6L624.38 450.888Z" fill="#FFB8B8"/>
<path d="M603.363 447.384H627.007V462.271H588.476C588.476 460.316 588.861 458.38 589.609 456.574C590.358 454.768 591.454 453.127 592.837 451.744C594.219 450.362 595.86 449.265 597.666 448.517C599.472 447.769 601.408 447.384 603.363 447.384V447.384Z" fill="#2F2E41"/>
<path d="M725.38 450.888L713.12 450.887L707.288 403.599L725.382 403.6L725.38 450.888Z" fill="#FFB8B8"/>
<path d="M704.363 447.384H728.007V462.271H689.476C689.476 460.316 689.861 458.38 690.609 456.574C691.358 454.768 692.454 453.127 693.837 451.744C695.219 450.362 696.86 449.265 698.666 448.517C700.472 447.769 702.408 447.384 704.363 447.384V447.384Z" fill="#2F2E41"/>
<path d="M717.855 163.929L690.331 174.388L683.611 155.722C682.718 153.243 682.731 150.529 683.646 148.059C684.562 145.588 686.321 143.521 688.613 142.222V142.222C690.931 140.908 693.643 140.467 696.259 140.978C698.874 141.488 701.221 142.917 702.875 145.007L717.855 163.929Z" fill="#656BD3"/>
<path d="M625.438 412.588L602.354 407.323C601.126 407.041 600.051 406.305 599.344 405.263C598.637 404.22 598.35 402.949 598.542 401.704C607.805 342.995 616.716 308.613 639.682 264.952C640.003 264.138 643.589 247.614 645.929 236.666C645.902 235.46 646.315 234.286 647.09 233.361C647.866 232.437 648.951 231.826 650.143 231.643L693.187 225.018C693.837 224.793 694.522 224.69 695.209 224.714L695.639 224.795L695.634 225.219C695.628 225.656 695.193 225.723 695.029 225.749L694.457 225.836C695.11 226.14 695.709 226.548 696.232 227.043C715.092 249.727 724.899 324.083 737.355 406.228C737.424 406.894 737.343 407.568 737.117 408.199C736.892 408.831 736.527 409.403 736.051 409.875C735.6 410.367 735.055 410.763 734.446 411.038C733.838 411.313 733.181 411.462 732.514 411.476L705.012 412.146C703.804 412.173 702.627 411.76 701.701 410.984C700.775 410.208 700.162 409.122 699.977 407.928L681.453 300.879C681.325 300.043 680.934 299.269 680.337 298.67C679.739 298.072 678.966 297.68 678.13 297.551C677.294 297.422 676.439 297.563 675.688 297.954C674.938 298.344 674.332 298.964 673.958 299.723C659.014 330.158 645.078 356.478 631.352 408.989C631.08 410.054 630.461 410.998 629.594 411.673C628.726 412.347 627.659 412.714 626.56 412.715C626.182 412.715 625.806 412.673 625.438 412.588V412.588Z" fill="#2F2E41"/>
<path d="M647.846 237.889C647.266 237.479 646.781 236.951 646.422 236.339C646.063 235.727 645.838 235.046 645.762 234.34C642.237 201.431 644.692 175.676 653.268 155.605C654.779 152.144 657.054 149.069 659.923 146.613C662.793 144.157 666.182 142.384 669.835 141.426L692.084 140.303L692.2 140.358C697.22 142.818 701.315 146.829 703.876 151.799C706.438 156.768 707.329 162.431 706.419 167.947C699.263 186.81 693.271 206.45 697.84 222.293C698.032 222.955 698.088 223.65 698.005 224.334C697.922 225.018 697.701 225.679 697.356 226.276C697.022 226.854 696.573 227.356 696.038 227.753C695.502 228.15 694.89 228.434 694.241 228.585L651.862 238.666C651.176 238.83 650.463 238.845 649.77 238.711C649.078 238.577 648.422 238.297 647.846 237.889V237.889Z" fill="#656BD3"/>
<path d="M638.268 190.662L595.594 156.996C595.254 157.115 594.908 157.217 594.557 157.301C593.051 157.654 591.488 157.685 589.969 157.394C588.449 157.102 587.009 156.495 585.74 155.61C584.462 154.725 583.389 153.577 582.591 152.243C581.793 150.909 581.289 149.421 581.113 147.876C580.827 145.408 581.383 142.915 582.692 140.803C584.001 138.69 585.985 137.082 588.322 136.238C589.781 135.715 591.334 135.506 592.88 135.624C594.425 135.743 595.928 136.187 597.29 136.927C598.652 137.667 599.842 138.686 600.783 139.918C601.724 141.15 602.393 142.567 602.748 144.076C602.858 144.554 602.935 145.039 602.977 145.528L645.459 170.035L656.031 163.949L667.742 179.281L651.328 190.98C649.406 192.338 647.098 193.041 644.745 192.984C642.393 192.926 640.121 192.112 638.268 190.662H638.268Z" fill="#FFB8B8"/>
<path d="M672.949 184.055L648.6 167.498L660.043 151.291C661.563 149.139 663.794 147.593 666.343 146.927C668.891 146.261 671.594 146.518 673.972 147.651V147.651C676.377 148.798 678.294 150.767 679.375 153.203C680.456 155.639 680.63 158.381 679.866 160.934L672.949 184.055Z" fill="#656BD3"/>
<path d="M684.659 131.992C698.224 131.992 709.22 120.996 709.22 107.431C709.22 93.8667 698.224 82.8704 684.659 82.8704C671.094 82.8704 660.098 93.8667 660.098 107.431C660.098 120.996 671.094 131.992 684.659 131.992Z" fill="#FFB8B8"/>
<path d="M675.654 103.773C669.341 108.094 661.053 112.535 654.605 107.934C650.372 104.913 649.038 99.3185 650.755 94.4091C653.842 85.5805 662.324 81.6938 670.435 78.7145C680.98 74.8415 692.461 71.7603 703.346 74.534C714.232 77.3077 723.852 87.8469 721.887 98.9069C720.307 107.801 711.917 115.202 713.108 124.156C714.307 133.169 724.442 137.912 733.389 139.523C742.337 141.134 752.35 141.651 758.78 148.078C766.983 156.277 764.935 170.931 757.216 179.588C749.497 188.244 737.849 192.168 726.562 194.835C711.608 198.37 695.433 200.227 681.23 194.362C667.027 188.496 655.974 172.707 660.089 157.902C661.827 151.648 665.921 146.363 669.877 141.217C673.834 136.072 677.84 130.691 679.35 124.378C680.607 119.118 679.677 113.01 676.188 109.064C675.553 108.373 675.154 107.499 675.047 106.567C674.94 105.635 675.132 104.694 675.593 103.877L675.654 103.773Z" fill="#2F2E41"/>
<defs>
<clipPath id="clip0">
<rect width="896.675" height="462.272" fill="white"/>
</clipPath>
</defs>
</svg>
