<svg width="716" height="510" viewBox="0 0 716 510" fill="none" xmlns="http://www.w3.org/2000/svg">
<path opacity="0.1" d="M113.359 482.404C148.11 482.404 176.281 477.646 176.281 471.778C176.281 465.91 148.11 461.153 113.359 461.153C78.6077 461.153 50.4364 465.91 50.4364 471.778C50.4364 477.646 78.6077 482.404 113.359 482.404Z" fill="black"/>
<path opacity="0.1" d="M342.551 508.424C377.302 508.424 405.473 503.667 405.473 497.799C405.473 491.931 377.302 487.174 342.551 487.174C307.8 487.174 279.629 491.931 279.629 497.799C279.629 503.667 307.8 508.424 342.551 508.424Z" fill="black"/>
<path d="M52.5155 267.474C57.0673 273.547 61.9777 280.496 66.824 288.07L67.5159 253.135L67.8978 253.379C62.7284 249.596 57.0519 246.56 51.0356 244.362L51.4174 244.575L52.5155 267.474Z" fill="#E6E6E6"/>
<path d="M50.6517 244.228C44.41 242.099 38.3538 241.392 32.818 242.38C32.5301 242.431 32.247 242.491 31.9645 242.551C33.3711 244.06 41.5679 252.975 51.7152 266.41L50.6517 244.228Z" fill="#E6E6E6"/>
<path d="M87.1742 326.255C87.9205 328.037 88.6302 329.808 89.3033 331.566L102.113 293.73L102.482 294.082C100.969 291.236 99.3654 288.469 97.6711 285.781L87.3489 326.409L87.1742 326.255Z" fill="#E6E6E6"/>
<path d="M79.694 310.3L86.3883 270.632L86.7684 270.936C81.3111 264.468 75.1071 258.669 68.2861 253.661L67.5807 289.262C72.0905 296.382 76.1283 303.394 79.694 310.3Z" fill="#E6E6E6"/>
<path d="M11.6668 282.231L11.5103 281.747C12.0902 287.747 13.2747 293.674 15.0458 299.437L76.6001 305.788C73.3867 299.86 70.0695 294.299 66.8492 289.23L11.6668 282.231Z" fill="#E6E6E6"/>
<path d="M15.3534 300.404L15.191 299.92C15.8138 301.951 16.5118 304.005 17.2852 306.082L17.1194 305.598L79.418 311.138C78.6655 309.665 77.9045 308.212 77.135 306.779L15.3534 300.404Z" fill="#E6E6E6"/>
<path d="M86.7333 325.223L96.9695 284.933L97.3441 285.264C94.2554 280.404 90.8425 275.759 87.1285 271.359L80.3438 311.564C82.6952 316.182 84.8251 320.735 86.7333 325.223Z" fill="#E6E6E6"/>
<path d="M89.3382 333.589L28.7135 327.749C32.0099 332.191 35.6001 336.407 39.4601 340.368L39.3097 339.831L94.7262 351.235C93.2845 345.251 91.4853 339.358 89.3382 333.589V333.589Z" fill="#E6E6E6"/>
<path d="M31.4645 242.934L31.6073 242.628C23.2733 244.52 17.3891 250.192 14.1515 258.402L51.237 266.784C40.2547 252.251 31.5892 243.065 31.4645 242.934Z" fill="#E6E6E6"/>
<path d="M90.4265 334.568C92.3297 339.784 93.9476 345.099 95.2731 350.491L109.71 314.271L110.062 314.625C109.148 309.585 107.6 304.681 105.453 300.031C104.602 298.207 103.71 296.411 102.779 294.643L89.8162 332.929C90.0208 333.476 90.2289 334.024 90.4265 334.568Z" fill="#E6E6E6"/>
<path d="M66.2042 288.22C61.4077 280.736 56.5528 273.87 52.0531 267.869L14.1167 259.294L13.9881 258.815C11.6199 265.054 10.754 272.718 11.4712 281.278L66.2042 288.22Z" fill="#E6E6E6"/>
<path d="M27.9773 326.74L88.9485 332.613L88.9607 332.577C86.3158 325.602 83.2971 318.774 79.9179 312.123L17.4659 306.57C18.5263 309.378 19.7246 312.217 21.061 315.086C23.0074 319.173 25.3224 323.074 27.9773 326.74V326.74Z" fill="#E6E6E6"/>
<path d="M175.331 338.57L175.47 339.002C173.9 332.79 171.464 326.831 168.232 321.299L168.39 321.706L154.635 340.044C154.269 347.625 153.62 356.111 152.523 365.036L175.331 338.57Z" fill="#E6E6E6"/>
<path d="M168.021 320.951C164.572 315.329 160.358 310.921 155.464 308.149C155.21 308.005 154.954 307.87 154.698 307.736C154.819 309.796 155.448 321.892 154.697 338.714L168.021 320.951Z" fill="#E6E6E6"/>
<path d="M143.849 407.429C143.287 409.278 142.705 411.094 142.103 412.878L176.093 391.91L176.153 392.416C176.802 389.259 177.332 386.105 177.741 382.953L143.885 407.659L143.849 407.429Z" fill="#E6E6E6"/>
<path d="M148.261 390.368L178.71 364.088L178.809 364.565C178.73 356.101 177.649 347.676 175.589 339.467L152.346 366.437C151.28 374.797 149.918 382.775 148.261 390.368Z" fill="#E6E6E6"/>
<path d="M178.816 365.12L147.956 391.756C146.822 396.813 145.559 401.679 144.167 406.353L177.741 381.853L177.819 382.347C178.538 376.634 178.871 370.878 178.816 365.12V365.12Z" fill="#E6E6E6"/>
<path d="M119.257 455.068C119.284 454.653 119.31 454.226 119.334 453.787C124.834 447.233 129.525 440.04 133.304 432.363L114.666 409.13C114.422 408.337 114.166 407.546 113.899 406.757L133.738 431.487C136.443 425.958 138.815 420.272 140.84 414.459L101.603 375.032C101.725 374.722 101.85 374.405 101.975 374.082L141.161 413.458L141.194 413.438C143.605 406.378 145.633 399.193 147.271 391.915L108.358 353.384C108.44 353.026 108.52 352.666 108.6 352.305L147.514 390.837C147.874 389.223 148.214 387.618 148.535 386.023L109.736 346.504C109.801 346.127 109.864 345.748 109.926 345.368L148.755 384.919C150.06 378.303 151.051 371.904 151.802 365.945L113.764 325.347L113.952 324.875C113.051 326.188 112.176 327.565 111.322 328.992C111.345 324.48 110.978 319.975 110.227 315.526L95.6521 352.092C96.8298 357.134 97.6736 362.248 98.1781 367.401C98.0899 368.273 98.0102 369.149 97.9468 370.034L98.4258 370.516C98.4561 370.986 98.4843 371.454 98.5078 371.921L97.8706 371.281C97.8406 371.794 97.8179 372.311 97.7957 372.828C97.4974 365.874 96.5448 358.963 94.9508 352.187L39.9398 340.866C42.7108 343.711 45.615 346.476 48.583 349.143C42.8218 347.337 36.8437 346.315 30.8098 346.105L31.2385 346.189L39.3588 367.627C45.564 371.995 52.3814 377.086 59.3307 382.791L49.334 349.815C49.7044 350.144 50.0757 350.472 50.4478 350.799L60.4187 383.69C66.9076 389.067 72.9145 394.487 78.4394 399.952L73.8572 368.998C74.1785 369.222 74.4981 369.444 74.816 369.664L79.4479 400.954C83.1112 404.619 86.5437 408.29 89.7453 411.969L87.5244 378.031C87.8396 378.229 88.149 378.421 88.4527 378.61L90.6971 412.906L90.4834 412.814C91.7439 414.278 92.9658 415.742 94.1492 417.206L94.5786 382.312C94.9091 382.506 95.2147 382.684 95.4953 382.847L95.0583 418.344C95.4218 418.801 95.7891 419.258 96.1451 419.714C99.5668 424.086 102.748 428.641 105.674 433.358L105.882 430.183C106.137 431.125 106.392 432.05 106.648 432.959L106.53 434.765C106.957 435.474 107.371 436.184 107.779 436.893C108.097 437.974 108.412 439.025 108.724 440.047C107.82 438.372 106.876 436.713 105.892 435.071L50.0768 441.314C79.4243 456.756 115.842 464.077 118.163 464.533C117.613 462.098 116.943 459.684 116.173 457.292C116.373 457.082 116.571 456.87 116.77 456.658C116.864 456.943 116.962 457.229 117.054 457.515C116.95 457.625 116.848 457.739 116.744 457.849C116.859 457.795 116.979 457.738 117.105 457.678C117.641 459.36 118.122 461.036 118.547 462.706C118.717 461.349 118.944 459.288 119.143 456.682C129.195 451.648 155.227 436.937 168.445 413.874L133.904 432.738C129.968 440.761 125.047 448.262 119.257 455.068V455.068ZM107.812 400.586L107.897 399.276L108.774 400.368L108.688 401.678L107.812 400.586Z" fill="#E6E6E6"/>
<path d="M154.069 307.712L154.374 307.568C146.749 303.708 138.6 304.322 130.872 308.58L154.09 338.697C154.898 320.497 154.081 307.893 154.069 307.712Z" fill="#E6E6E6"/>
<path d="M141.053 415.907C139.194 421.138 137.051 426.264 134.634 431.262L168.847 412.577L168.893 413.075C171.402 408.61 173.336 403.845 174.648 398.894C175.155 396.946 175.614 394.994 176.024 393.038L141.628 414.255C141.437 414.807 141.248 415.362 141.053 415.907Z" fill="#E6E6E6"/>
<path d="M154.027 340.053L130.276 309.244L130.483 308.794C124.681 312.088 119.127 317.438 114.221 324.489L151.95 364.756C153.028 355.931 153.666 347.546 154.027 340.053Z" fill="#E6E6E6"/>
<path d="M30.4032 346.096C23.8092 346.001 17.8314 347.202 12.8718 349.853C12.6138 349.99 12.3628 350.134 12.1127 350.279C13.9168 351.279 24.467 357.223 38.2689 366.863L30.4032 346.096Z" fill="#E6E6E6"/>
<path d="M59.713 383.886L5.07008 394.292L4.77161 393.88C7.17733 399.407 10.1352 404.678 13.6001 409.61L74.1026 396.618C69.2149 391.974 64.3418 387.711 59.713 383.886Z" fill="#E6E6E6"/>
<path d="M78.4358 400.835C77.2651 399.667 76.0924 398.52 74.9176 397.395L14.1918 410.435L13.8878 410.025C15.1076 411.764 16.4061 413.502 17.7833 415.237L17.4763 414.829L78.4358 400.835Z" fill="#E6E6E6"/>
<path d="M105.385 434.236C102.164 428.99 98.6323 423.942 94.8078 419.119L35.3473 432.31C39.8548 435.515 44.5719 438.415 49.4669 440.989L49.1579 440.524L105.385 434.236Z" fill="#E6E6E6"/>
<path d="M11.7557 350.798L11.7968 350.462C4.45586 354.839 0.612375 362.053 0.0700684 370.862L37.9297 367.367C22.9944 356.941 11.9148 350.884 11.7557 350.798Z" fill="#E6E6E6"/>
<path d="M39.0409 368.146L0.312587 371.72L0.0423213 371.305C-0.282239 377.97 1.2625 385.527 4.58978 393.446L58.7877 383.125C51.9133 377.49 45.1747 372.462 39.0409 368.146Z" fill="#E6E6E6"/>
<path d="M94.1361 418.274C89.4652 412.458 84.4845 406.897 79.2156 401.617L18.1061 415.646C19.9823 417.989 21.9991 420.318 24.1565 422.633C27.2705 425.919 30.6776 428.913 34.3354 431.579L94.1357 418.312L94.1361 418.274Z" fill="#E6E6E6"/>
<path d="M52.5155 267.474C57.0673 273.547 61.9777 280.496 66.824 288.07L67.5159 253.135L67.8978 253.379C62.7284 249.596 57.0519 246.56 51.0356 244.362L51.4174 244.575L52.5155 267.474Z" fill="#44DF76"/>
<path d="M50.6517 244.228C44.41 242.099 38.3538 241.392 32.818 242.38C32.5301 242.431 32.247 242.491 31.9645 242.551C33.3711 244.06 41.5679 252.975 51.7152 266.41L50.6517 244.228Z" fill="#44DF76"/>
<path d="M87.1742 326.255C87.9205 328.037 88.6302 329.808 89.3033 331.566L102.113 293.73L102.482 294.082C100.969 291.236 99.3654 288.469 97.6711 285.781L87.3489 326.409L87.1742 326.255Z" fill="#44DF76"/>
<path d="M79.694 310.3L86.3883 270.632L86.7684 270.936C81.3111 264.468 75.1071 258.669 68.2861 253.661L67.5807 289.262C72.0905 296.382 76.1283 303.394 79.694 310.3Z" fill="#44DF76"/>
<path d="M11.6668 282.231L11.5103 281.747C12.0902 287.747 13.2747 293.674 15.0458 299.437L76.6001 305.788C73.3867 299.86 70.0695 294.299 66.8492 289.23L11.6668 282.231Z" fill="#44DF76"/>
<path d="M15.3534 300.404L15.191 299.92C15.8138 301.951 16.5118 304.005 17.2852 306.082L17.1194 305.598L79.418 311.138C78.6655 309.665 77.9045 308.212 77.135 306.779L15.3534 300.404Z" fill="#44DF76"/>
<path d="M86.7333 325.223L96.9695 284.933L97.3441 285.264C94.2554 280.404 90.8425 275.759 87.1285 271.359L80.3438 311.564C82.6952 316.182 84.8251 320.735 86.7333 325.223Z" fill="#44DF76"/>
<path d="M89.3382 333.589L28.7135 327.749C32.0099 332.191 35.6001 336.407 39.4601 340.368L39.3097 339.831L94.7262 351.235C93.2845 345.251 91.4853 339.358 89.3382 333.589V333.589Z" fill="#44DF76"/>
<path d="M31.4645 242.934L31.6073 242.628C23.2733 244.52 17.3891 250.192 14.1515 258.402L51.237 266.784C40.2547 252.251 31.5892 243.065 31.4645 242.934Z" fill="#44DF76"/>
<path d="M90.4265 334.568C92.3297 339.784 93.9476 345.099 95.2731 350.491L109.71 314.271L110.062 314.625C109.148 309.585 107.6 304.681 105.453 300.031C104.602 298.207 103.71 296.411 102.779 294.643L89.8162 332.929C90.0208 333.476 90.2289 334.024 90.4265 334.568Z" fill="#44DF76"/>
<path d="M66.2042 288.22C61.4077 280.736 56.5528 273.87 52.0531 267.869L14.1167 259.294L13.9881 258.815C11.6199 265.054 10.754 272.718 11.4712 281.278L66.2042 288.22Z" fill="#44DF76"/>
<path d="M27.9773 326.74L88.9485 332.613L88.9607 332.577C86.3158 325.602 83.2971 318.774 79.9179 312.123L17.4659 306.57C18.5263 309.378 19.7246 312.217 21.061 315.086C23.0074 319.173 25.3224 323.074 27.9773 326.74V326.74Z" fill="#44DF76"/>
<path d="M175.331 338.57L175.47 339.002C173.9 332.79 171.464 326.831 168.232 321.299L168.39 321.706L154.635 340.044C154.269 347.625 153.62 356.111 152.523 365.036L175.331 338.57Z" fill="#44DF76"/>
<path d="M168.021 320.951C164.572 315.329 160.358 310.921 155.464 308.149C155.21 308.005 154.954 307.87 154.698 307.736C154.819 309.796 155.448 321.892 154.697 338.714L168.021 320.951Z" fill="#44DF76"/>
<path d="M143.849 407.429C143.287 409.278 142.705 411.094 142.103 412.878L176.093 391.91L176.153 392.416C176.802 389.259 177.332 386.105 177.741 382.953L143.885 407.659L143.849 407.429Z" fill="#44DF76"/>
<path d="M148.261 390.368L178.71 364.088L178.809 364.565C178.73 356.101 177.649 347.676 175.589 339.467L152.346 366.437C151.28 374.797 149.918 382.775 148.261 390.368Z" fill="#44DF76"/>
<path d="M178.816 365.12L147.956 391.756C146.822 396.813 145.559 401.679 144.167 406.353L177.741 381.853L177.819 382.347C178.538 376.634 178.871 370.878 178.816 365.12V365.12Z" fill="#44DF76"/>
<path d="M119.257 455.068C119.284 454.653 119.31 454.226 119.334 453.787C124.834 447.233 129.525 440.04 133.304 432.363L114.666 409.13C114.422 408.337 114.166 407.546 113.899 406.757L133.738 431.487C136.443 425.958 138.815 420.272 140.84 414.459L101.603 375.032C101.725 374.722 101.85 374.405 101.975 374.082L141.161 413.458L141.194 413.438C143.605 406.378 145.633 399.193 147.271 391.915L108.358 353.384C108.44 353.026 108.52 352.666 108.6 352.305L147.514 390.837C147.874 389.223 148.214 387.618 148.535 386.023L109.736 346.504C109.801 346.127 109.864 345.748 109.926 345.368L148.755 384.919C150.06 378.303 151.051 371.904 151.802 365.945L113.764 325.347L113.952 324.875C113.051 326.188 112.176 327.565 111.322 328.992C111.345 324.48 110.978 319.975 110.227 315.526L95.6521 352.092C96.8298 357.134 97.6736 362.248 98.1781 367.401C98.0899 368.273 98.0102 369.149 97.9468 370.034L98.4258 370.516C98.4561 370.986 98.4843 371.454 98.5078 371.921L97.8706 371.281C97.8406 371.794 97.8179 372.311 97.7957 372.828C97.4974 365.874 96.5448 358.963 94.9508 352.187L39.9398 340.866C42.7108 343.711 45.615 346.476 48.583 349.143C42.8218 347.337 36.8437 346.315 30.8098 346.105L31.2385 346.189L39.3588 367.627C45.564 371.995 52.3814 377.086 59.3307 382.791L49.334 349.815C49.7044 350.144 50.0757 350.472 50.4478 350.799L60.4187 383.69C66.9076 389.067 72.9145 394.487 78.4394 399.952L73.8572 368.998C74.1785 369.222 74.4981 369.444 74.816 369.664L79.4479 400.954C83.1112 404.619 86.5437 408.29 89.7453 411.969L87.5244 378.031C87.8396 378.229 88.149 378.421 88.4527 378.61L90.6971 412.906L90.4834 412.814C91.7439 414.278 92.9658 415.742 94.1492 417.206L94.5786 382.312C94.9091 382.506 95.2147 382.684 95.4953 382.847L95.0583 418.344C95.4218 418.801 95.7891 419.258 96.1451 419.714C99.5668 424.086 102.748 428.641 105.674 433.358L105.882 430.183C106.137 431.125 106.392 432.05 106.648 432.959L106.53 434.765C106.957 435.474 107.371 436.184 107.779 436.893C108.097 437.974 108.412 439.025 108.724 440.047C107.82 438.372 106.876 436.713 105.892 435.071L50.0768 441.314C79.4243 456.756 115.842 464.077 118.163 464.533C117.613 462.098 116.943 459.684 116.173 457.292C116.373 457.082 116.571 456.87 116.77 456.658C116.864 456.943 116.962 457.229 117.054 457.515C116.95 457.625 116.848 457.739 116.744 457.849C116.859 457.795 116.979 457.738 117.105 457.678C117.641 459.36 118.122 461.036 118.547 462.706C118.717 461.349 118.944 459.288 119.143 456.682C129.195 451.648 155.227 436.937 168.445 413.874L133.904 432.738C129.968 440.761 125.047 448.262 119.257 455.068V455.068ZM107.812 400.586L107.897 399.276L108.774 400.368L108.688 401.678L107.812 400.586Z" fill="#44DF76"/>
<path d="M154.069 307.712L154.374 307.568C146.749 303.708 138.6 304.322 130.872 308.58L154.09 338.697C154.898 320.497 154.081 307.893 154.069 307.712Z" fill="#44DF76"/>
<path d="M141.053 415.907C139.194 421.138 137.051 426.264 134.634 431.262L168.847 412.577L168.893 413.075C171.402 408.61 173.336 403.845 174.648 398.894C175.155 396.946 175.614 394.994 176.024 393.038L141.628 414.255C141.437 414.807 141.248 415.362 141.053 415.907Z" fill="#44DF76"/>
<path d="M154.027 340.053L130.276 309.244L130.483 308.794C124.681 312.088 119.127 317.438 114.221 324.489L151.95 364.756C153.028 355.931 153.666 347.546 154.027 340.053Z" fill="#44DF76"/>
<path d="M30.4032 346.096C23.8092 346.001 17.8314 347.202 12.8718 349.853C12.6138 349.99 12.3628 350.134 12.1127 350.279C13.9168 351.279 24.467 357.223 38.2689 366.863L30.4032 346.096Z" fill="#44DF76"/>
<path d="M59.713 383.886L5.07008 394.292L4.77161 393.88C7.17733 399.407 10.1352 404.678 13.6001 409.61L74.1026 396.618C69.2149 391.974 64.3418 387.711 59.713 383.886Z" fill="#44DF76"/>
<path d="M78.4358 400.835C77.2651 399.667 76.0924 398.52 74.9176 397.395L14.1918 410.435L13.8878 410.025C15.1076 411.764 16.4061 413.502 17.7833 415.237L17.4763 414.829L78.4358 400.835Z" fill="#44DF76"/>
<path d="M105.385 434.236C102.164 428.99 98.6323 423.942 94.8078 419.119L35.3473 432.31C39.8548 435.515 44.5719 438.415 49.4669 440.989L49.1579 440.524L105.385 434.236Z" fill="#44DF76"/>
<path d="M11.7557 350.798L11.7968 350.462C4.45586 354.839 0.612375 362.053 0.0700684 370.862L37.9297 367.367C22.9944 356.941 11.9148 350.884 11.7557 350.798Z" fill="#44DF76"/>
<path d="M39.0409 368.146L0.312587 371.72L0.0423213 371.305C-0.282239 377.97 1.2625 385.527 4.58978 393.446L58.7877 383.125C51.9133 377.49 45.1747 372.462 39.0409 368.146Z" fill="#44DF76"/>
<path d="M94.1361 418.274C89.4652 412.458 84.4845 406.897 79.2156 401.617L18.1061 415.646C19.9823 417.989 21.9991 420.318 24.1565 422.633C27.2705 425.919 30.6776 428.913 34.3354 431.579L94.1357 418.312L94.1361 418.274Z" fill="#44DF76"/>
<path d="M347.498 291.855H336.952V369.215H347.498V291.855Z" fill="#3F3D56"/>
<path d="M471.937 291.855H461.391V369.215H471.937V291.855Z" fill="#3F3D56"/>
<path d="M596.375 279.9H212.513V297.481H596.375V279.9Z" fill="#E6E6E6"/>
<path d="M596.375 335.458H212.513V353.04H596.375V335.458Z" fill="#E6E6E6"/>
<path d="M596.375 303.108H212.513V313.657H596.375V303.108Z" fill="#E6E6E6"/>
<path d="M596.375 319.283H212.513V329.832H596.375V319.283Z" fill="#E6E6E6"/>
<path d="M223.41 276.735H211.459V369.566H223.41V276.735Z" fill="#3F3D56"/>
<path d="M596.375 276.383H584.423V369.215H596.375V276.383Z" fill="#3F3D56"/>
<path d="M190.719 393.829H178.767V490.176H190.719V393.829Z" fill="#3F3D56"/>
<path d="M230.089 390.313H218.138V441.651H230.089V390.313Z" fill="#3F3D56"/>
<path d="M593.563 390.313H581.611V441.651H593.563V390.313Z" fill="#3F3D56"/>
<path d="M627.309 393.829H615.357V490.176H627.309V393.829Z" fill="#3F3D56"/>
<path d="M627.309 393.829H178.767V406.488H627.309V393.829Z" fill="#3F3D56"/>
<path d="M211.107 365.698L178.767 393.829H627.309L596.375 365.698H211.107Z" fill="#E6E6E6"/>
<path opacity="0.1" d="M140.437 19.5086L140.346 19.0022L131.692 14.4169H130.333L129.814 13.421H111.978L107.842 14.4169H92.6093L88.4825 19.2343L88.4403 19.5297C88.1732 21.2527 82.2043 61.7678 97.9525 74.6587L104.519 77.7109H108.765L107.935 76.0529L111.627 77.7109H123.578L123.791 77.3922L130.883 74.736L131.066 74.5251C131.706 73.7656 146.779 55.4455 140.437 19.5086Z" fill="#44DF76"/>
<path d="M119.009 59.7776H111.978V78.0625H119.009V59.7776Z" fill="#E6E6E6"/>
<path d="M121.469 101.622H108.814V453.255H121.469V101.622Z" fill="#3F3D56"/>
<path d="M124.633 95.6442H105.651V107.6H124.633V95.6442Z" fill="#3F3D56"/>
<path d="M98.6201 73.8429L110.572 86.5017L105.651 95.6441L115.493 97.7539L124.633 95.6441L119.008 85.7984L130.257 73.8429H98.6201Z" fill="#3F3D56"/>
<path d="M89.4807 19.6914L83.8563 14.0653L88.0746 9.8457H141.506L145.724 14.7686L139.397 19.6914C139.397 19.6914 105.651 18.2849 89.4807 19.6914Z" fill="#3F3D56"/>
<path d="M140.437 19.5086L140.346 19.0022L131.691 14.4169L127.74 12.3212L105.559 10.8936L93.1224 13.8191L92.6092 14.4169L88.4824 19.2343L88.4402 19.5297C88.173 21.2527 82.2042 61.7678 97.9524 74.6587L104.519 77.7109L110.045 80.2778L108.765 77.7109L106.663 73.5124C104.463 60.6989 99.6256 27.0335 102.712 20.0008L115.465 15.8867L126.784 20.0923C127.565 25.1488 132.612 60.6004 123.768 73.2381L123.578 73.5124V77.4717L130.883 74.736L131.066 74.5251C131.706 73.7655 146.779 55.4455 140.437 19.5086ZM129.61 72.9568L125.687 74.4336V74.1664C135.389 59.6861 129.048 20.8026 128.774 19.1429L128.675 18.5381L117.581 14.4169L115.521 13.6504L113.145 14.4169L101.25 18.2567L101.046 18.6154C96.5252 26.7241 104.28 72.0918 104.61 74.0187L104.638 74.1734L105.475 75.8472L99.1827 72.9427C85.1569 61.2615 89.9657 23.8547 90.4789 20.1485L94.2755 15.718L99.8013 14.4169L105.742 13.0174L115.521 13.6504L127.15 14.4029L127.178 14.4169L138.448 20.3806C144.03 52.977 131.22 70.8751 129.61 72.9568V72.9568Z" fill="#3F3D56"/>
<path d="M115.493 19.6914C125.977 19.6914 134.475 15.2834 134.475 9.84572C134.475 4.40808 125.977 0 115.493 0C105.01 0 96.5111 4.40808 96.5111 9.84572C96.5111 15.2834 105.01 19.6914 115.493 19.6914Z" fill="#3F3D56"/>
<path d="M105.651 435.322L94.402 471.188C94.402 471.188 111.978 481.034 135.882 471.188L124.633 435.322H105.651Z" fill="#3F3D56"/>
<path d="M115.493 61.8874C118.6 61.8874 121.118 59.3685 121.118 56.2613C121.118 53.154 118.6 50.6351 115.493 50.6351C112.387 50.6351 109.869 53.154 109.869 56.2613C109.869 59.3685 112.387 61.8874 115.493 61.8874Z" fill="#44DF76"/>
<path d="M304.83 252.697C306.821 251.28 309.017 250.178 311.343 249.43C326.088 243.941 341.538 240.577 357.229 239.438C370.874 238.47 385.662 239.619 396.318 248.197C397.976 249.414 399.332 250.995 400.283 252.818C401.624 255.712 401.218 259.076 400.784 262.236C400.687 263.462 400.378 264.662 399.871 265.782C398.437 268.513 394.906 269.47 391.839 269.142C388.773 268.815 385.895 267.517 382.87 266.915C380.998 266.589 379.105 266.396 377.205 266.338L358.234 265.311C346.437 264.672 334.484 264.044 322.912 266.425C319.35 267.066 315.908 268.252 312.707 269.943C310.064 271.427 308.284 273.557 305.832 270.816C301.523 265.999 299.138 257.146 304.83 252.697Z" fill="#2F2E41"/>
<path d="M334.228 261.089C334.228 261.089 359.745 249.646 369.424 262.849C379.103 276.052 364.145 270.771 364.145 270.771L347.427 276.052L328.949 272.531L334.228 261.089Z" fill="#F2F2F2"/>
<path d="M335.548 252.727C335.548 252.727 339.068 269.45 336.428 273.851C333.788 278.252 351.386 284.414 351.386 284.414L368.105 277.372C368.105 277.372 363.705 250.086 368.105 244.805L335.548 252.727Z" fill="#FFB9B9"/>
<path opacity="0.1" d="M335.548 252.727C335.548 252.727 339.068 269.45 336.428 273.851C333.788 278.252 351.386 284.414 351.386 284.414L368.105 277.372C368.105 277.372 363.705 250.086 368.105 244.805L335.548 252.727Z" fill="black"/>
<path d="M319.06 453.815C321.578 458.643 323.209 463.874 324.875 469.058C324.899 469.231 324.96 469.397 325.054 469.544C325.147 469.692 325.27 469.818 325.415 469.915C325.561 470.012 325.725 470.077 325.897 470.106C326.069 470.135 326.246 470.127 326.415 470.083L342.066 470.065C343.997 470.063 346.589 469.442 346.569 467.51C346.555 466.153 345.167 465.306 344.135 464.425C341.27 461.98 340.524 457.948 339.338 454.372C337.031 447.484 332.587 441.513 326.651 437.327C325.849 436.699 324.925 436.243 323.939 435.986C322.947 435.843 321.936 435.897 320.965 436.148C318.218 436.702 307.958 438.6 309.896 442.597C310.731 444.318 313.824 446.11 315.12 447.718C316.631 449.615 317.951 451.658 319.06 453.815Z" fill="#575A89"/>
<path d="M373.485 435.657C372.933 436.817 372.319 437.947 371.645 439.041C369.378 442.782 366.702 446.271 364.591 450.102C363.273 452.492 362.165 455.075 362.019 457.799C361.874 460.524 362.833 463.425 365.006 465.074C367.278 466.799 370.393 466.878 373.217 466.477C376.04 466.075 378.848 465.265 381.692 465.478C380.733 460.051 385.309 455.273 386.454 449.881C386.775 448.367 386.823 446.797 387.254 445.31C387.718 443.95 388.311 442.638 389.025 441.392C391.304 436.952 392.915 432.2 393.805 427.29C393.913 426.695 379.893 426.597 378.578 426.881C374.473 427.769 375.074 432.253 373.485 435.657Z" fill="#575A89"/>
<path d="M265.424 350.382C261.421 356.647 262.343 364.95 265.154 371.833C267.966 378.717 272.44 384.801 275.502 391.576C277.454 395.896 278.823 400.475 281.021 404.675C283.743 409.875 287.718 414.458 289.545 420.036C290.709 423.592 290.976 427.489 292.862 430.72C294.003 432.447 295.304 434.062 296.749 435.543C300.811 440.199 303.862 445.649 305.706 451.547C307.43 446.41 312.592 443.042 317.894 441.931C323.196 440.82 328.69 441.575 334.054 442.333C331.062 437.696 328.04 433 326.257 427.778C324.532 422.727 324.023 417.353 322.861 412.144C320.478 401.461 315.388 391.607 310.349 381.892L336.25 379.836C340.478 379.411 344.728 379.254 348.976 379.364C355.661 379.68 362.211 381.319 368.861 382.077C375.511 382.834 382.545 382.636 388.472 379.524C377.14 395.789 371.238 415.221 371.61 435.042C374.143 433.079 377.083 431.708 380.214 431.028C383.345 430.348 386.588 430.377 389.707 431.113C392.825 431.85 395.74 433.274 398.237 435.282C400.734 437.291 402.75 439.832 404.138 442.721C414.289 428.846 413.082 409.529 421.125 394.334C422.779 391.209 424.806 388.299 426.591 385.247C430.122 379.212 432.682 372.668 435.228 366.156C437.478 360.399 439.744 353.994 437.586 348.203C436.69 346.005 435.385 343.998 433.741 342.288C429.1 337.17 422.641 333.384 415.735 333.226C405.134 332.984 396.376 340.845 387.077 345.942C376.123 351.945 363.345 354.332 350.886 353.449C338.112 352.545 325.912 348.362 313.742 344.678C307.654 342.75 301.466 341.153 295.206 339.895C289.987 338.916 285.016 340.001 279.873 341.336C274.274 342.789 268.646 345.337 265.424 350.382Z" fill="#2F2E41"/>
<path d="M376.024 236.003C376.018 243.005 373.235 249.718 368.286 254.669C363.337 259.619 356.626 262.403 349.627 262.409C348.054 262.412 346.484 262.27 344.937 261.986C339.997 261.094 335.413 258.811 331.724 255.405C328.036 251.999 325.394 247.611 324.11 242.757C322.826 237.902 322.952 232.782 324.474 227.997C325.996 223.212 328.851 218.96 332.703 215.74C336.555 212.52 341.245 210.466 346.223 209.818C351.202 209.171 356.261 209.957 360.808 212.084C365.356 214.211 369.203 217.591 371.898 221.828C374.593 226.064 376.024 230.982 376.024 236.003V236.003Z" fill="#FFB9B9"/>
<path d="M334.228 261.089C334.228 261.089 339.068 263.289 340.828 265.049C342.587 266.81 347.867 276.492 356.666 270.331C365.465 264.169 366.345 260.649 368.984 260.649C371.624 260.649 375.144 265.93 375.144 265.93L399.341 338.545C392.82 345.908 385.261 352.283 376.904 357.469C362.825 366.27 346.107 370.671 338.188 367.151C330.269 363.63 315.31 360.989 312.671 353.948C310.031 346.906 305.631 325.782 305.631 325.782L317.95 272.091L334.228 261.089Z" fill="#F2F2F2"/>
<path d="M330.831 334.529C332.749 330.384 333.028 325.693 333.19 321.128C333.449 316.607 333.329 312.072 332.832 307.571C332.053 301.684 330.136 296.011 328.925 290.197C327.864 285.097 327.348 279.899 327.387 274.691C327.404 272.314 327.576 269.812 328.871 267.819C329.774 266.428 331.187 265.352 331.752 263.792C332.858 260.736 330.124 257.535 327.127 256.276C323.562 254.778 319.487 254.879 315.737 255.818C311.986 256.758 308.488 258.487 305.023 260.203C302.519 261.443 299.963 262.721 298.022 264.73C295.291 267.557 294.09 271.495 293.12 275.305C292.344 278.354 291.654 281.534 292.245 284.625C293.204 289.645 297.294 293.42 299.475 298.041C302.007 303.407 301.836 309.661 300.829 315.508C299.822 321.356 298.034 327.074 297.483 332.982C296.931 338.891 297.778 345.242 301.478 349.88C302.986 351.77 307.077 356.249 309.837 355.742C312.006 355.344 315.15 350.568 316.897 349.054C321.944 344.681 327.933 340.791 330.831 334.529Z" fill="#2F2E41"/>
<path d="M376.931 258.218C377.008 263.127 374.845 267.793 372.301 271.992C369.757 276.191 366.769 280.162 364.894 284.699C362.565 290.379 362.089 296.65 363.535 302.616C364.073 304.649 364.721 306.65 365.476 308.612L370.297 321.84C370.946 323.92 371.887 325.897 373.093 327.711C374.183 329.101 375.462 330.332 376.892 331.367C380.554 334.325 384.768 336.524 389.289 337.836C393.825 339.036 398.788 338.96 403.073 337.05C403.538 319.117 406.418 301.329 411.636 284.167C412.6 280.999 413.653 277.663 412.91 274.436C412.077 270.821 409.174 268.108 406.415 265.629C397.977 258.049 388.698 250.088 377.403 249.066C370.866 248.474 376.876 254.669 376.931 258.218Z" fill="#2F2E41"/>
<path d="M319.188 360.552C319.857 361.862 320.274 363.29 320.936 364.604C321.912 366.366 323.12 367.99 324.526 369.433C330.409 375.959 337.601 382.459 346.377 382.853C347.248 382.935 348.128 382.824 348.952 382.529C350.487 381.89 351.394 380.245 351.693 378.609C352.315 375.2 350.811 371.799 349.305 368.679C346.041 361.916 342.368 354.981 336.257 350.62C330.232 346.32 322.16 345.276 315.134 347.441C311.951 348.422 306.672 350.135 310.887 353.04C314.084 355.244 317.334 356.922 319.188 360.552Z" fill="#FFB9B9"/>
<path d="M357.124 274.451C356.049 272.05 354.925 269.579 352.995 267.791C351.17 266.248 349.01 265.154 346.687 264.595C343.677 263.734 340.564 263.288 337.434 263.268C333.707 263.245 329.386 264.245 327.804 267.62C326.547 270.3 327.521 273.473 328.787 276.149C329.327 277.535 330.228 278.752 331.395 279.674C333.002 280.76 335.081 280.726 336.986 281.09C339.972 281.66 342.646 283.261 345.248 284.835L351.775 288.781L362.986 295.56C362.691 295.381 362.796 287.691 362.451 286.431C361.342 282.371 358.845 278.296 357.124 274.451Z" fill="#FFB9B9"/>
<path d="M324.467 467.065C321.844 470.631 322.37 475.728 320.046 479.496C318.032 482.763 314.236 484.475 311.716 487.37C310.912 488.331 310.196 489.362 309.575 490.451C307.238 494.367 305.338 499.386 307.64 503.323C309.491 506.49 313.383 507.727 316.953 508.571C321.464 509.637 326.152 510.491 330.715 509.676C335.279 508.861 339.739 506.066 341.366 501.724C341.686 500.632 342.066 499.559 342.505 498.509C344.979 493.638 352.737 493.585 355.269 488.744C357.04 485.356 355.412 481.261 353.784 477.801L348.812 467.236C347.162 463.729 340.474 465.746 336.987 464.906C332.439 463.81 327.739 462.603 324.467 467.065Z" fill="#2F2E41"/>
<path d="M362.922 457.988C360.812 459.467 359.448 461.788 358.424 464.153C355.963 469.831 355.118 476.056 354.298 482.191C353.969 484.648 353.642 487.163 354.155 489.589C355.216 494.599 359.754 498.288 364.639 499.819C369.523 501.351 374.763 501.115 379.876 500.864C381.518 500.784 383.225 500.685 384.665 499.891C387.235 498.474 388.239 495.142 387.798 492.24C387.357 489.338 385.772 486.756 384.221 484.265C382.67 481.774 381.083 479.193 380.639 476.291C379.892 471.411 382.001 464.247 379.003 459.831C375.999 455.406 366.931 455.178 362.922 457.988Z" fill="#2F2E41"/>
<path d="M375.36 222.242C374.89 220.663 373.856 219.313 372.454 218.448C372.526 216.756 372.319 215.065 371.84 213.441C370.241 208.713 366.454 208.984 362.881 206.894C361.331 205.987 361.427 205.186 360.62 203.696C359.562 201.744 357.978 200.127 356.048 199.03C353.756 197.569 351.336 196.065 348.624 195.88C342.925 195.491 338.555 200.853 333.108 202.574C330.707 203.333 328.127 203.364 325.714 204.081C323.3 204.798 320.892 206.51 320.532 209.003C320.366 210.154 320.659 211.335 320.491 212.485C320.156 214.772 318.151 216.373 316.808 218.254C313.839 222.413 314.179 228.289 316.553 232.814C317.053 233.751 317.626 234.647 318.265 235.494C318.463 237.633 319.077 239.713 320.073 241.616C322.447 246.141 326.532 249.523 330.8 252.332C330.451 250.832 330.239 249.302 330.167 247.763C330.107 247.25 330.174 246.73 330.361 246.249C330.837 245.255 332.093 244.99 333.05 244.446C335.033 243.319 335.811 240.824 335.869 238.543C335.926 236.261 335.443 233.976 335.682 231.707C335.691 231.185 335.809 230.671 336.03 230.198C336.25 229.725 336.567 229.303 336.96 228.96C337.692 228.542 338.528 228.342 339.37 228.385C343.433 228.219 347.679 228.144 351.263 226.222C352.486 225.566 353.623 224.699 354.965 224.349C358.012 223.554 361.125 225.69 362.88 228.304C364.636 230.918 365.511 234.028 367.131 236.728C368.751 239.429 371.549 241.837 374.681 241.517C374.857 241.517 375.032 241.48 375.193 241.409C375.354 241.337 375.498 241.232 375.616 241.101C375.751 240.858 375.811 240.581 375.788 240.304L375.963 228.329C376.109 226.28 375.905 224.222 375.36 222.242Z" fill="#2F2E41"/>
<path d="M291.821 284.881C289.302 288.598 286.398 292.171 285.014 296.443C284.2 298.953 283.948 301.607 283.358 304.18C281.396 312.748 275.728 320.359 275.158 329.131C274.958 331.08 275.244 333.049 275.991 334.86C277.617 338.398 281.509 340.263 285.221 341.436C288.933 342.609 292.92 343.454 295.883 345.98C297.375 347.41 298.727 348.979 299.923 350.665C304.757 356.68 311.261 361.131 318.616 363.459C318.035 359.454 317.763 354.627 320.963 352.151C322.696 350.811 325.011 350.573 327.192 350.384L337.502 349.493C330.627 342.823 323.05 336.918 314.902 331.882C312.051 330.12 308.948 328.262 307.647 325.173C306.833 323.242 306.844 321.079 306.825 318.984C306.754 311.314 306.105 303.66 304.883 296.088C304.034 290.83 302.91 285.62 301.625 280.451C301.264 279 299.131 272.492 296.506 274.015C295.888 274.374 295.309 278.502 294.948 279.359C294.089 281.297 293.041 283.147 291.821 284.881V284.881Z" fill="#2F2E41"/>
<path d="M410.564 270.835L414.774 279.594C416.803 283.195 417.726 287.315 417.429 291.438L417.679 317.711C417.712 321.222 417.739 324.786 416.815 328.174C416.553 329.304 416.058 330.368 415.363 331.298C414.649 332.099 413.808 332.777 412.873 333.304C404.905 338.284 394.572 341.115 386.154 336.942C384.226 335.913 382.393 334.716 380.676 333.365C377.321 330.879 373.916 328.345 371.406 325.008C368.779 321.515 367.273 317.333 365.506 313.336C362.334 306.165 358.236 299.441 353.316 293.336C352.601 292.449 351.833 291.482 351.807 290.343C351.755 288.04 354.486 286.906 356.616 286.03C360.254 284.533 363.685 281.644 364.295 277.756C372.032 287.906 380.57 298.63 392.779 302.339C392.971 302.461 393.192 302.529 393.419 302.536C393.646 302.543 393.87 302.488 394.069 302.378C394.268 302.268 394.433 302.106 394.547 301.909C394.661 301.712 394.72 301.489 394.717 301.261C395.41 298.361 395.655 295.374 396.162 292.435C397.092 287.083 398.882 281.918 401.464 277.139C402.91 274.46 407.592 264.652 410.564 270.835Z" fill="#2F2E41"/>
<path opacity="0.1" d="M306.088 296.164C306.204 302.382 304.884 308.542 302.23 314.165C301.539 315.408 301.03 316.744 300.719 318.131C300.257 321.09 301.94 323.955 303.865 326.25C307.66 330.762 312.584 334.188 318.133 336.18" fill="black"/>
<path opacity="0.1" d="M397.512 290.924C396.891 292.592 397.455 294.438 397.933 296.153C399.318 301.127 399.965 306.278 399.852 311.441C399.872 311.531 399.87 311.625 399.844 311.714C399.819 311.803 399.772 311.884 399.707 311.95C399.643 312.016 399.563 312.065 399.475 312.093C399.386 312.12 399.292 312.125 399.202 312.107C397.171 312.232 394.846 312.245 393.468 310.747" fill="black"/>
<path d="M716 89.6664H464.799V139.278H716V89.6664Z" fill="#E6E6E6"/>
<path d="M716 147.654H464.799V197.266H716V147.654Z" fill="#E6E6E6"/>
<path d="M491.207 128.969C499.389 128.969 506.022 122.335 506.022 114.15C506.022 105.966 499.389 99.3311 491.207 99.3311C483.025 99.3311 476.393 105.966 476.393 114.15C476.393 122.335 483.025 128.969 491.207 128.969Z" fill="#44DF76"/>
<path d="M672.845 108.351H526.633V111.573H672.845V108.351Z" fill="#44DF76"/>
<path d="M672.845 116.727H526.633V119.949H672.845V116.727Z" fill="#44DF76"/>
<path d="M491.207 187.601C499.389 187.601 506.022 180.967 506.022 172.782C506.022 164.598 499.389 157.963 491.207 157.963C483.025 157.963 476.393 164.598 476.393 172.782C476.393 180.967 483.025 187.601 491.207 187.601Z" fill="#CCCCCC"/>
<path d="M672.845 166.984H526.633V170.205H672.845V166.984Z" fill="#CCCCCC"/>
<path d="M672.845 175.36H526.633V178.581H672.845V175.36Z" fill="#CCCCCC"/>
<path d="M716 204.619H464.799V254.231H716V204.619Z" fill="#E6E6E6"/>
<path d="M491.207 244.566C499.389 244.566 506.022 237.931 506.022 229.747C506.022 221.562 499.389 214.928 491.207 214.928C483.025 214.928 476.393 221.562 476.393 229.747C476.393 237.931 483.025 244.566 491.207 244.566Z" fill="#CCCCCC"/>
<path d="M672.845 223.948H526.633V227.17H672.845V223.948Z" fill="#CCCCCC"/>
<path d="M672.845 232.324H526.633V235.546H672.845V232.324Z" fill="#CCCCCC"/>
<path d="M489.857 119.753L484.551 112.676L485.808 111.733L490.13 117.498L507.148 103.57L508.143 104.787L489.857 119.753Z" fill="#F2F2F2"/>
</svg>
