<svg width="1122" height="1146" viewBox="0 0 1122 1146" fill="none" xmlns="http://www.w3.org/2000/svg">
<g clip-path="url(#clip0)">
<circle cx="708.5" cy="389.5" r="389.5" fill="#F4F4F4"/>
<ellipse cx="614.842" cy="133.128" rx="49.3007" ry="49.3007" fill="#E81410"/>
<ellipse cx="963.421" cy="295.812" rx="49.3007" ry="49.3007" fill="#FFD11F"/>
<circle cx="452.128" cy="481.737" r="49.3007" fill="#0995E3"/>
<ellipse cx="800.737" cy="644.421" rx="49.3007" ry="49.3007" fill="#21BF54"/>
<rect x="638.053" y="226.09" width="98.6014" height="197.203" rx="49.3007" transform="rotate(-45 638.053 226.09)" fill="#E81410"/>
<rect x="870.458" y="319.053" width="98.6014" height="197.203" rx="49.3007" transform="rotate(45 870.458 319.053)" fill="#FFD11F"/>
<rect x="545.09" y="458.496" width="98.6014" height="197.203" rx="49.3007" transform="rotate(-135 545.09 458.496)" fill="#0995E3"/>
<rect x="777.496" y="551.458" width="98.6014" height="197.203" rx="49.3007" transform="rotate(135 777.496 551.458)" fill="#21BF54"/>
<path opacity="0.8" d="M544.34 1085.83C585.888 1085.83 619.57 1078.27 619.57 1068.94C619.57 1059.61 585.888 1052.05 544.34 1052.05C502.792 1052.05 469.11 1059.61 469.11 1068.94C469.11 1078.27 502.792 1085.83 544.34 1085.83Z" fill="#E81410"/>
<path opacity="0.8" d="M719.15 1133.72C794.106 1133.72 854.87 1128.73 854.87 1122.58C854.87 1116.43 794.106 1111.44 719.15 1111.44C644.194 1111.44 583.43 1116.43 583.43 1122.58C583.43 1128.73 644.194 1133.72 719.15 1133.72Z" fill="#FFD11F"/>
<path opacity="0.8" d="M174.22 1122.58C249.176 1122.58 309.94 1115.02 309.94 1105.69C309.94 1096.36 249.176 1088.8 174.22 1088.8C99.2639 1088.8 38.5 1096.36 38.5 1105.69C38.5 1115.02 99.2639 1122.58 174.22 1122.58Z" fill="#21BF54"/>
<path opacity="0.8" d="M381.15 1038.03C437.549 1038.03 483.27 1030.47 483.27 1021.14C483.27 1011.81 437.549 1004.25 381.15 1004.25C324.751 1004.25 279.03 1011.81 279.03 1021.14C279.03 1030.47 324.751 1038.03 381.15 1038.03Z" fill="#0995E3"/>
<path d="M457.46 619.33C455.3 604.79 442.09 570.86 442.09 570.86C441.86 569.86 441.6 568.86 441.31 567.86C431.94 535.66 418.97 532.86 418.97 532.86L372.51 522.86C372.9 523.103 373.239 523.419 373.51 523.79C373.265 523.813 373.021 523.849 372.78 523.9C370.653 521.389 369.246 518.347 368.71 515.1C368.62 514.62 368.54 514.1 368.48 513.61C371.817 510.357 374.42 506.429 376.114 502.088C377.808 497.747 378.554 493.094 378.302 488.441C378.05 483.788 376.806 479.243 374.653 475.11C372.5 470.978 369.489 467.353 365.82 464.48C365.33 464.1 364.82 463.73 364.33 463.38C366.52 461.05 366.59 457.81 364.95 454.57C361.29 446.97 353.33 442.16 345.15 439.81C338.9 438.02 332.15 437.44 325.93 439.4C322.4 440.52 319.18 442.4 315.87 444.07C309.7 447.15 302.87 449.59 298.26 454.66C297.18 455.84 296.18 457.35 296.5 458.91C296.74 460.07 297.66 460.97 298.25 462C299.58 464.31 299.25 467.22 298.34 469.74C297.43 472.26 296.1 474.6 295.47 477.18C294.84 479.76 295.08 482.8 297.02 484.65C297.95 485.368 298.918 486.036 299.92 486.65C300.982 487.555 301.914 488.601 302.69 489.76C304.53 492.227 306.363 494.703 308.19 497.19C310.769 500.486 313.074 503.987 315.08 507.66C316.45 510.36 317.51 513.24 319.34 515.66C319.876 516.366 320.49 517.01 321.17 517.58L320.63 517.37C321.425 518.179 322.377 518.817 323.428 519.246C324.479 519.674 325.606 519.883 326.74 519.86C326.84 519.86 326.93 519.86 327.02 519.86C327.438 519.851 327.837 519.687 328.14 519.4C328.14 519.74 328.14 520.08 328.14 520.4C328.25 523.97 328.23 527.77 327.98 531.34L327.55 531.12C326.912 530.803 326.197 530.674 325.489 530.748C324.781 530.823 324.108 531.097 323.55 531.54L280.78 565.86C280.78 565.86 271.48 578.58 272.78 600.54L265.28 633.47C265.28 633.47 255.91 661.41 263.12 681.36C270.33 701.31 274.51 712.72 274.51 712.72C274.51 712.72 277.39 735.39 281.72 737.24C286.05 739.09 287.92 740.09 287.92 740.09L288.78 745.51C288.78 745.51 289.07 746.04 289.58 746.93C292.73 752.41 304.4 771.75 311.18 769.68C312.034 774.932 312.402 780.251 312.28 785.57L318.99 830.62C318.99 830.62 323.67 842.87 323.38 849.29C323.09 855.71 328.84 864.86 328.84 864.86C325.347 871.255 324.322 878.71 325.96 885.81C328.7 897.81 332.16 953.09 332.16 953.09L337.16 966.49L337.02 982.2C336.61 984.762 335.542 987.174 333.92 989.2C330.68 992.72 330.92 996.79 323.11 1001.6C315.3 1006.41 310.35 1008.23 310.35 1014.6C310.341 1015.49 310.26 1016.37 310.11 1017.25C309.39 1021.93 307.99 1024.47 322.35 1025.83C339.22 1027.43 350.47 1016.43 350.47 1016.43C350.47 1016.43 352.95 1011.93 364.63 1010.11C364.63 1010.11 368.63 1009.9 368.84 1006.37C368.92 1005.15 368.9 1002.82 368.84 1000.25C368.65 995.36 368.18 989.65 367.56 989.37C366.78 989.02 365.42 984.1 364.95 982.32H368.2C368.2 982.32 371.2 959.65 368.2 944.97C365.2 930.29 367.91 919.88 367.91 919.88L367.33 881.11C367.33 881.11 363.33 876.83 366.47 869.27C369.61 861.71 366.47 824.37 366.47 824.37C366.47 824.37 367.63 810.97 370.94 807.83C374.25 804.69 371.1 788.2 370.94 787.34L376.84 807.13C376.84 807.13 379.43 846.47 384.92 853.59L386.5 871.41C386.5 871.41 397.74 887.81 395.58 896.64C393.42 905.47 397.89 937.41 397.89 937.41V970.06C397.89 970.06 392.84 983.17 399.89 987.88L402.89 987.76C401.89 988.69 401.12 990.09 399.95 991.3C398.6 992.69 397.83 997.98 397.4 1002.53C397.04 1006.38 396.92 1009.69 396.92 1009.69C396.92 1009.69 399.92 1014.49 405.57 1014.82C411.22 1015.15 429.84 1029.31 429.84 1029.31C429.84 1029.31 448.23 1029.31 452.99 1028.31L453.27 1028.24C454.798 1027.76 456.083 1026.71 456.86 1025.31C457.814 1023.69 458.121 1021.76 457.72 1019.92C457.13 1017.11 454.9 1014.03 449.96 1011.41C437.67 1004.93 435.84 998.86 435.84 998.86L427.77 986.75H428.92C428.92 986.75 428.21 973.92 436.99 959.52L436.42 896.09C436.42 896.09 440.02 874.28 433.83 862.44C433.83 862.44 433.32 849.9 437.46 846.05C441.6 842.2 431.95 803.29 431.95 803.29C431.95 803.29 429.95 782.4 427.6 763.34C437.33 772.57 447.42 739.34 449.12 733.43H449.37L449.26 733C449.33 732.72 449.37 732.58 449.37 732.58C449.37 732.58 447.21 724.9 448.79 726.46C450.37 728.02 454.27 722.18 454.27 722.18C454.27 722.18 453.69 690.39 460.47 674.37C467.25 658.35 457.46 619.33 457.46 619.33ZM428.46 639.56L428.51 639.47C429.51 658.88 428.32 700.3 428.32 700.3C428.32 700.3 426.98 705.61 425.55 711.86L424.55 672.51L423.55 635.44L428.46 639.56ZM304.35 626.18C304.35 626.18 309.25 687.47 304.35 696.31C302.96 698.83 301.79 703.31 300.82 708.42C299.2 704.17 295.77 694.19 297 688.9C298.59 682.06 293.83 664.09 293.83 663.67C293.83 663.25 293.4 653.67 296.83 646.35C300.26 639.03 298.01 635.86 298.01 635.86C298.01 635.86 300.89 623.86 304.35 626.18Z" fill="url(#paint0_linear)"/>
<path d="M316.29 764.22C312.02 782.99 295.04 754.61 291.17 747.8C290.67 746.91 290.39 746.39 290.39 746.39L292.23 737.76L301.96 733.76C303.501 734.565 304.961 735.516 306.32 736.6C311.65 740.79 319.58 749.68 316.29 764.22Z" fill="#D38884"/>
<path d="M448.02 733.51C448.02 733.51 448.02 733.65 447.91 733.93C447.91 734.05 447.83 734.21 447.78 734.38C446.11 740.24 436.21 773.23 426.65 764.07C416.19 754.07 421.27 730.95 421.27 730.95H421.34L443.34 728.7L447.7 733.18L448.02 733.51Z" fill="#D38884"/>
<path d="M435.29 895.86L435.85 958.86C427.22 973.16 427.93 985.86 427.93 985.86L399.49 986.98C392.55 982.31 397.49 969.3 397.49 969.3V936.86C397.49 936.86 393.1 905.17 395.22 896.39C397.34 887.61 386.31 871.39 386.31 871.39L384.75 853.7C379.37 846.63 376.82 807.58 376.82 807.58L371.05 787.86C371.21 788.71 374.21 805.17 371.05 808.2C367.89 811.23 366.66 824.61 366.66 824.61C366.66 824.61 369.77 861.69 366.66 869.18C363.55 876.67 367.5 880.93 367.5 880.93L368.07 919.42C368.07 919.42 365.38 929.75 368.35 944.32C371.32 958.89 368.35 981.4 368.35 981.4H337.84L337.98 965.69L333.04 952.39C333.04 952.39 329.64 897.49 326.95 885.6C325.34 878.554 326.342 871.163 329.77 864.8C329.77 864.8 324.12 855.75 324.4 849.38C324.68 843.01 320.04 830.86 320.04 830.86L313.46 786.15C313.641 777.545 312.542 768.962 310.2 760.68C306.38 747.94 300.72 731.24 300.72 731.24L307.11 731.81L339.35 734.68C339.35 734.68 417.74 729.41 421.25 733.79C421.99 735.222 422.49 736.766 422.73 738.36C426.25 754.17 430.9 803.7 430.9 803.7C430.9 803.7 440.38 842.33 436.31 846.15C432.24 849.97 432.74 862.41 432.74 862.41C438.84 874.16 435.29 895.86 435.29 895.86Z" fill="#444053"/>
<path d="M369.02 1005.29C368.8 1008.8 364.89 1009.01 364.89 1009.01C353.43 1010.81 350.99 1015.27 350.99 1015.27C350.99 1015.27 339.99 1026.2 323.4 1024.61C309.3 1023.25 310.67 1020.74 311.4 1016.09C311.542 1015.22 311.619 1014.35 311.63 1013.47C311.63 1007.1 316.51 1005.29 324.15 1000.47C331.79 995.65 331.58 991.66 334.76 988.16C337.94 984.66 338.27 977.87 338.27 977.87C341.87 971.6 351 978.87 351 978.87C351.43 981.09 365 980.78 365 980.78C365 980.78 366.8 988 367.73 988.42C368.34 988.7 368.8 994.36 368.98 999.22C369.08 1001.77 369.1 1004.08 369.02 1005.29Z" fill="#B07473"/>
<path opacity="0.1" d="M369.02 1005.29C368.8 1008.8 364.89 1009.01 364.89 1009.01C353.43 1010.81 350.99 1015.27 350.99 1015.27C350.99 1015.27 339.99 1026.2 323.4 1024.61C309.3 1023.25 310.67 1020.74 311.4 1016.09C317.7 1017.65 329.74 1019.83 336.77 1016.01C346.54 1010.71 353.55 1007.01 353.55 1007.01L368.99 999.24C369.08 1001.77 369.1 1004.08 369.02 1005.29Z" fill="black"/>
<path d="M455.39 1024.18C454.638 1025.57 453.376 1026.61 451.87 1027.09L451.6 1027.16C446.93 1028.16 428.88 1028.16 428.88 1028.16C428.88 1028.16 410.63 1014.05 405.11 1013.73C399.59 1013.41 396.62 1008.63 396.62 1008.63C396.62 1008.63 396.73 1005.35 397.08 1001.53C397.51 997.01 398.26 991.76 399.59 990.38C402.03 987.83 402.59 984.38 408.08 986.56C408.08 986.56 415.92 972.74 425.16 983.42L434.72 997.92C434.72 997.92 436.52 1003.92 448.63 1010.43C453.47 1013.03 455.63 1016.09 456.24 1018.88C456.625 1020.69 456.322 1022.58 455.39 1024.18Z" fill="#B07473"/>
<path opacity="0.1" d="M455.39 1024.18C454.31 1025.09 453.12 1026.07 451.87 1027.09L451.6 1027.16C446.93 1028.16 428.88 1028.16 428.88 1028.16C428.88 1028.16 410.63 1014.05 405.11 1013.73C399.59 1013.41 396.62 1008.63 396.62 1008.63C396.62 1008.63 396.73 1005.35 397.08 1001.53C402.7 1003.21 411.21 1006.18 413.49 1009.38C416.99 1014.25 427.62 1021.05 427.62 1021.05C427.62 1021.05 447.44 1019.14 456.24 1018.88C456.625 1020.69 456.322 1022.58 455.39 1024.18Z" fill="black"/>
<path d="M378.26 530.39L352.16 557.98C352.16 557.98 320.53 555.65 326.05 546.31C328.86 541.55 329.3 531.59 329.05 522.93C328.82 514.58 327.96 507.47 327.96 507.47C327.96 507.47 372.32 485.39 368.96 505.98C368.236 509.86 368.196 513.836 368.84 517.73C370.73 528.13 378.26 530.39 378.26 530.39Z" fill="#D38884"/>
<path opacity="0.1" d="M368.92 505.98C368.196 509.86 368.155 513.836 368.8 517.73C365.766 520.805 362.15 523.245 358.164 524.909C354.177 526.572 349.9 527.426 345.58 527.42C339.58 527.42 333.09 522.49 328.24 519.64C328.01 511.28 327.96 507.47 327.96 507.47C327.96 507.47 372.32 485.39 368.92 505.98Z" fill="black"/>
<path d="M378.26 493.03C378.263 500.437 375.75 507.625 371.133 513.417C366.517 519.209 360.071 523.261 352.85 524.911C345.629 526.56 338.063 525.709 331.389 522.496C324.716 519.283 319.331 513.899 316.118 507.226C312.904 500.553 312.051 492.986 313.7 485.765C315.349 478.544 319.4 472.098 325.192 467.48C330.983 462.863 338.171 460.35 345.578 460.352C352.984 460.353 360.171 462.87 365.96 467.49C369.796 470.551 372.893 474.436 375.022 478.857C377.152 483.279 378.258 488.123 378.26 493.03Z" fill="#D38884"/>
<path opacity="0.1" d="M422.73 738.36C414.59 757.73 362.23 758.13 362.23 758.13V737.01L359.06 736.8C360.43 742.85 357.14 757.6 357.14 757.6C315.76 763.44 305.67 739.86 305.67 739.86L307.11 731.79L339.35 734.66C339.35 734.66 417.74 729.39 421.25 733.77C421.992 735.208 422.492 736.759 422.73 738.36Z" fill="black"/>
<path d="M362.23 755.58V734.46L359.06 734.26C360.43 740.26 357.14 755.06 357.14 755.06C326 759.45 312.58 747.19 307.85 740.85C306.999 739.758 306.269 738.578 305.67 737.33L318.31 666.23L321.31 561.59L325.84 543.23L326.89 534.42V534.32H327L330.22 535.7L349.49 544.03L371.38 527.5L371.7 527.27L372.79 526.44L374.6 527.89L379.1 531.5L393.53 624.69C393.53 624.69 418.53 696.44 423.21 725.4C423.4 726.56 423.55 727.64 423.67 728.65C426.76 755.09 362.23 755.58 362.23 755.58Z" fill="#0995E3"/>
<path d="M351.83 547.95C352.857 547.95 353.69 547.117 353.69 546.09C353.69 545.063 352.857 544.23 351.83 544.23C350.803 544.23 349.97 545.063 349.97 546.09C349.97 547.117 350.803 547.95 351.83 547.95Z" fill="#67647E"/>
<path d="M352.69 564.93C353.717 564.93 354.55 564.097 354.55 563.07C354.55 562.043 353.717 561.21 352.69 561.21C351.663 561.21 350.83 562.043 350.83 563.07C350.83 564.097 351.663 564.93 352.69 564.93Z" fill="#67647E"/>
<path d="M354.55 592.42C355.577 592.42 356.41 591.587 356.41 590.56C356.41 589.533 355.577 588.7 354.55 588.7C353.523 588.7 352.69 589.533 352.69 590.56C352.69 591.587 353.523 592.42 354.55 592.42Z" fill="#67647E"/>
<path d="M357.62 622.03C358.647 622.03 359.48 621.197 359.48 620.17C359.48 619.143 358.647 618.31 357.62 618.31C356.593 618.31 355.76 619.143 355.76 620.17C355.76 621.197 356.593 622.03 357.62 622.03Z" fill="#67647E"/>
<path d="M359.48 649.83C360.507 649.83 361.34 648.997 361.34 647.97C361.34 646.943 360.507 646.11 359.48 646.11C358.453 646.11 357.62 646.943 357.62 647.97C357.62 648.997 358.453 649.83 359.48 649.83Z" fill="#67647E"/>
<path d="M361.34 679.44C362.367 679.44 363.2 678.607 363.2 677.58C363.2 676.553 362.367 675.72 361.34 675.72C360.313 675.72 359.48 676.553 359.48 677.58C359.48 678.607 360.313 679.44 361.34 679.44Z" fill="#67647E"/>
<path d="M360.6 708.73C361.627 708.73 362.46 707.897 362.46 706.87C362.46 705.843 361.627 705.01 360.6 705.01C359.573 705.01 358.74 705.843 358.74 706.87C358.74 707.897 359.573 708.73 360.6 708.73Z" fill="#67647E"/>
<path opacity="0.1" d="M328.13 676.57C328.13 676.57 326.05 703.8 322.23 711.72C318.41 719.64 316.71 741.86 316.71 741.86L307.84 740.86C306.989 739.768 306.259 738.588 305.66 737.34L318.3 666.24L321.3 561.6L325.84 543.23L326.89 534.42L327.01 534.37C327.505 534.136 328.048 534.019 328.596 534.027C329.144 534.036 329.682 534.17 330.17 534.42L330.59 534.64C330.463 535 330.343 535.37 330.23 535.75C326.77 546.58 325.48 566.54 325.48 566.54C325.48 566.54 330.48 603.05 331 620.03C331.52 637.01 328.13 676.57 328.13 676.57Z" fill="black"/>
<path opacity="0.1" d="M306.32 736.63C306.223 736.858 306.109 737.079 305.98 737.29C302.54 743.1 293.82 746.79 291.17 747.8C290.67 746.91 290.39 746.39 290.39 746.39L292.23 737.76L301.96 733.76C303.502 734.575 304.962 735.536 306.32 736.63Z" fill="black"/>
<path d="M282.75 597.67L274.68 602.48L267.33 635.17C267.33 635.17 258.13 662.9 265.2 682.71C272.27 702.52 276.38 713.86 276.38 713.86C276.38 713.86 279.21 736.36 283.46 738.2C287.71 740.04 289.54 741.03 289.54 741.03L290.39 746.41C290.39 746.41 301.91 742.5 305.98 735.61C310.05 728.72 302.98 711.61 302.98 711.61C302.98 711.61 296.9 697.03 298.46 690.24C300.02 683.45 295.34 665.62 295.34 665.24C295.34 664.86 294.92 655.33 298.34 648.04C301.76 640.75 299.48 637.64 299.48 637.64L297.35 616.84L282.75 597.67Z" fill="#67647E"/>
<path opacity="0.1" d="M423.4 732.24C423.4 732.24 402.03 740.3 395.24 733.24C388.45 726.18 389.15 693.05 389.15 693.05C389.15 693.05 382.65 631.92 378.54 621.88C374.43 611.84 376.54 539.38 376.54 539.38C376.54 539.38 373.78 530.01 371.37 527.56C371.218 527.403 371.047 527.265 370.86 527.15L371.69 527.33L374.59 527.95L379.09 531.56L393.52 624.75C393.52 624.75 418.52 696.5 423.2 725.46L423.4 732.24Z" fill="black"/>
<path opacity="0.1" d="M448.02 734.36H447.78C445.09 734.71 421.35 737.58 421.25 732.64C421.246 732.069 421.276 731.498 421.34 730.93L443.34 728.68L447.7 733.16C447.78 733.45 447.84 733.7 447.9 733.9L448.02 734.36Z" fill="black"/>
<path d="M425.24 564.93L440.84 573.07C440.84 573.07 453.84 606.73 455.92 621.16C455.92 621.16 465.55 659.82 458.92 675.72C452.29 691.62 452.84 723.18 452.84 723.18C452.84 723.18 449.02 728.98 447.46 727.43C445.9 725.88 448.03 733.51 448.03 733.51C448.03 733.51 421.36 737.05 421.25 731.81C421.14 726.57 427.37 701.53 427.37 701.53C427.37 701.53 429.07 641.96 426.66 632.62C424.25 623.28 425.24 564.93 425.24 564.93Z" fill="#67647E"/>
<path opacity="0.1" d="M378.69 628.38C378.69 628.38 369.91 649.88 367.08 651.3C364.25 652.72 367.65 658.37 367.65 658.37C367.65 658.37 383.64 636.02 378.69 628.38Z" fill="black"/>
<path opacity="0.1" d="M373.45 552.96C373.55 552.55 362.98 563.33 360.15 564.96C357.32 566.59 370.48 564.86 373.45 552.96Z" fill="black"/>
<path opacity="0.1" d="M344.02 626.68C344.02 626.68 327.89 637.11 330.02 641.24C332.15 645.37 344.02 626.68 344.02 626.68Z" fill="black"/>
<path opacity="0.1" d="M373.31 778.93C373.31 778.93 387.04 787.76 408.4 789.93L373.31 778.93Z" fill="black"/>
<path opacity="0.1" d="M340.34 800.16C340.34 800.16 353.07 816.16 358.88 816.57C364.69 816.98 340.34 800.16 340.34 800.16Z" fill="black"/>
<path opacity="0.1" d="M358.17 862.86C357.6 863.14 350.95 877.29 344.17 877.72C337.39 878.15 358.17 862.86 358.17 862.86Z" fill="black"/>
<path opacity="0.1" d="M417.17 893.86C417.17 893.86 429.79 891.03 432.6 900.08C432.6 900.05 431.75 897.22 417.17 893.86Z" fill="black"/>
<path opacity="0.1" d="M408.68 945.62C408.68 945.62 423.97 942.5 427.22 946.75C430.47 951 408.68 945.62 408.68 945.62Z" fill="black"/>
<path opacity="0.1" d="M365.43 952.86C365.43 953 349.87 955.98 350.43 957.96C350.99 959.94 367.03 959.66 367.6 956.54C367.702 956.156 367.727 955.755 367.673 955.361C367.618 954.968 367.487 954.588 367.285 954.246C367.083 953.904 366.815 953.605 366.496 953.367C366.178 953.129 365.816 952.957 365.43 952.86Z" fill="black"/>
<path opacity="0.1" d="M403.59 966.28C403.59 966.28 429.16 963.16 427.59 968.54C426.02 973.92 403.59 966.28 403.59 966.28Z" fill="black"/>
<path opacity="0.1" d="M269.73 651.3C269.87 651.72 286.57 653.99 288.83 659.37C288.83 659.37 272.42 651.72 269.83 651.72" fill="black"/>
<path opacity="0.1" d="M293.22 695.02C293.22 695.02 279.35 699.41 280.34 706.02C281.33 712.63 278.93 702.96 293.22 695.02Z" fill="black"/>
<path opacity="0.1" d="M286.76 728.7C286.76 728.7 291.81 721.77 296.62 723.04C301.43 724.31 286.76 728.7 286.76 728.7Z" fill="black"/>
<path opacity="0.1" d="M365.96 467.49C365.474 467.961 364.93 468.368 364.34 468.7C360.34 471.03 359.24 474.62 357.34 478.76C355.57 482.55 353.62 486.56 350.05 488.71C345.44 491.49 339.37 490.47 334.58 492.89C332.454 493.997 330.708 495.716 329.567 497.824C328.426 499.933 327.943 502.334 328.18 504.72C328.484 506.561 328.939 508.374 329.54 510.14C330.629 513.965 331.122 517.935 331 521.91C331.01 522.026 331.01 522.144 331 522.26C326.902 520.212 323.28 517.326 320.369 513.788C317.459 510.25 315.324 506.14 314.105 501.724C312.886 497.308 312.608 492.685 313.291 488.155C313.974 483.625 315.602 479.289 318.069 475.428C320.536 471.568 323.787 468.269 327.611 465.747C331.435 463.224 335.747 461.533 340.267 460.785C344.786 460.036 349.413 460.246 353.846 461.402C358.279 462.557 362.42 464.631 366 467.49H365.96Z" fill="black"/>
<path d="M365.11 457.65C361.52 450.11 353.71 445.33 345.68 443C339.55 441.23 332.89 440.65 326.81 442.6C323.34 443.7 320.19 445.6 316.94 447.23C310.88 450.29 304.22 452.71 299.66 457.74C298.59 458.91 297.66 460.41 297.93 461.96C298.16 463.11 299.06 463.96 299.64 465.02C300.95 467.32 300.64 470.21 299.73 472.71C298.82 475.21 297.53 477.53 296.91 480.1C296.29 482.67 296.53 485.68 298.43 487.51C299.28 488.32 300.37 488.83 301.29 489.51C302.33 490.408 303.241 491.444 304 492.59L309.4 499.97C311.937 503.24 314.198 506.716 316.16 510.36C317.5 513.04 318.54 515.9 320.34 518.29C322.14 520.68 324.94 522.6 327.92 522.34C328.151 522.346 328.379 522.297 328.588 522.198C328.796 522.099 328.979 521.952 329.12 521.77C329.231 521.536 329.282 521.278 329.27 521.02C329.402 517.06 328.919 513.103 327.84 509.29C327.238 507.524 326.783 505.711 326.48 503.87C326.25 501.485 326.736 499.086 327.876 496.979C329.016 494.872 330.758 493.152 332.88 492.04C337.68 489.62 343.75 490.64 348.35 487.87C351.93 485.71 353.88 481.7 355.64 477.87C357.57 473.73 358.64 470.14 362.64 467.81C366.64 465.48 367.1 461.62 365.11 457.65Z" fill="#585268"/>
<path opacity="0.1" d="M350.47 991.92C350.47 991.92 355.47 998.29 354.17 1001.92C352.87 1005.55 350.47 991.92 350.47 991.92Z" fill="black"/>
<path opacity="0.1" d="M418.12 1007.86C418.12 1007.86 419.23 999.32 423.68 999.24C428.13 999.16 428.35 998.78 431.75 1000.09C435.15 1001.4 438.34 1003.43 437.32 1003.73C436.3 1004.03 431.47 998.85 426.51 1001.5C423.415 1003.19 420.587 1005.34 418.12 1007.86Z" fill="black"/>
<path opacity="0.1" d="M335.55 554.74L349.55 544.93C349.55 544.93 329.07 532.83 326.63 534.53C324.19 536.23 322.51 551.53 322.51 551.53L335.55 554.74Z" fill="black"/>
<path d="M335.49 554.11L349.49 544.11C349.49 544.11 329.01 532.01 326.57 533.71C324.13 535.41 322.45 551.55 322.45 551.55L335.49 554.11Z" fill="#E1E7EF"/>
<path d="M335.49 554.11L349.49 544.11C349.49 544.11 329.01 532.01 326.57 533.71C324.13 535.41 322.45 551.55 322.45 551.55L335.49 554.11Z" fill="#0995E3"/>
<path d="M328.89 533.79L328.47 533.58C327.845 533.261 327.142 533.131 326.444 533.203C325.747 533.276 325.086 533.549 324.54 533.99L282.54 568.06C282.54 568.06 273.41 580.69 274.68 602.48L299.45 637.57C299.45 637.57 302.28 625.69 305.67 627.95C305.67 627.95 310.48 688.8 305.67 697.57C300.86 706.34 298.74 739.17 298.74 739.17L315.01 741.01C315.01 741.01 316.71 718.79 320.53 710.87C324.35 702.95 326.43 675.72 326.43 675.72C326.43 675.72 329.87 636.16 329.3 619.18C328.73 602.2 323.78 565.69 323.78 565.69C323.78 565.69 325.17 544.29 328.89 533.79Z" fill="#67647E"/>
<path opacity="0.1" d="M370.73 548.54L353.28 542.08C353.28 542.08 375.5 517.74 378.28 531.24L370.73 548.54Z" fill="black"/>
<path d="M370.73 547.69L353.28 541.23C353.28 541.23 375.5 516.89 378.28 530.39L370.73 547.69Z" fill="#E1E7EF"/>
<path d="M370.73 547.69L353.28 541.23C353.28 541.23 375.5 516.89 378.28 530.39L370.73 547.69Z" fill="#0995E3"/>
<path opacity="0.1" d="M370.16 526.98C370.412 526.94 370.669 526.997 370.88 527.14L370.16 526.98Z" fill="black"/>
<path d="M371.84 525.29L418.14 535.29C418.14 535.29 430.88 538.12 440.08 570.1C449.28 602.08 427.48 641.26 427.48 641.26L422.67 637.17L425.08 730.56C425.08 730.56 403.71 738.62 396.92 731.56C390.13 724.5 390.84 691.34 390.84 691.34C390.84 691.34 384.33 630.22 380.22 620.17C376.11 610.12 378.22 537.68 378.22 537.68C378.22 537.68 374.44 524.73 371.84 525.29Z" fill="#67647E"/>
<path opacity="0.1" d="M414.2 584.8C413.55 585.4 412.79 613.66 415.62 635.17C417.35 648.269 420.024 661.226 423.62 673.94L419.42 587.77C419.42 587.77 416.18 582.96 414.2 584.8Z" fill="black"/>
<path opacity="0.1" d="M408.54 560.46C409.67 561.17 414.63 572.91 412.36 577.72C410.09 582.53 408.54 560.46 408.54 560.46Z" fill="black"/>
<path opacity="0.1" d="M364.84 457.65C362.567 453.174 359.026 449.467 354.66 446.99C357.907 449.315 360.528 452.407 362.29 455.99C364.29 459.99 363.7 463.99 359.81 466.18C355.92 468.37 354.71 472.1 352.81 476.24C351.04 480.03 349.09 484.04 345.51 486.24C340.91 489.02 334.84 487.99 330.04 490.41C327.919 491.526 326.178 493.248 325.038 495.356C323.899 497.464 323.412 499.864 323.64 502.25C323.948 504.088 324.406 505.897 325.01 507.66C326.099 511.485 326.591 515.455 326.47 519.43C326.479 519.689 326.424 519.947 326.31 520.18C326.172 520.364 325.992 520.511 325.785 520.61C325.577 520.71 325.349 520.758 325.12 520.75C323.92 520.842 322.716 520.618 321.63 520.1C322.417 520.88 323.355 521.491 324.387 521.896C325.419 522.3 326.522 522.488 327.63 522.45C327.81 522.476 327.994 522.46 328.167 522.404C328.34 522.347 328.498 522.251 328.628 522.123C328.758 521.995 328.856 521.839 328.915 521.667C328.975 521.494 328.993 521.311 328.97 521.13C329.099 517.155 328.61 513.184 327.52 509.36C326.91 507.596 326.452 505.782 326.15 503.94C325.92 501.555 326.406 499.156 327.546 497.049C328.686 494.942 330.428 493.222 332.55 492.11C337.35 489.69 343.42 490.71 348.02 487.94C351.6 485.78 353.55 481.77 355.31 477.94C357.24 473.8 358.31 470.21 362.31 467.88C366.31 465.55 366.84 461.62 364.84 457.65Z" fill="black"/>
<path d="M649.71 583.23C635.93 582.96 623.77 573.23 616.88 561.34C615.073 558.511 613.937 555.306 613.56 551.97C613.608 551.212 613.735 550.461 613.94 549.73C614.361 548.614 614.695 547.467 614.94 546.3C614.995 545.835 614.995 545.365 614.94 544.9C614.94 544.9 614.94 544.9 614.94 544.82C615.27 542.29 613.78 539.82 611.94 538.09C610.1 536.36 607.79 535.09 605.87 533.37C599.95 528.17 598.15 519.83 598.04 511.89V511.47C598.11 508.07 598.38 504.66 598.35 501.26C598.397 499.33 598.313 497.399 598.1 495.48C597.53 490.67 595.7 485.77 591.92 482.7C582.06 474.7 565.48 483.03 555.27 475.47C552.79 473.62 550.78 470.89 547.77 470.17C545.5 469.62 543.14 470.36 540.92 471.1C533.4 473.58 525.01 476.84 522.07 484.1C520.39 488.27 520.86 493.03 519.32 497.25C518.32 500.08 516.41 502.51 515.02 505.19C513.879 507.208 513.325 509.504 513.42 511.82C513.297 513.019 513.465 514.23 513.91 515.35C514.433 516.7 515.273 517.904 516.36 518.86C515.968 519.695 515.478 520.481 514.9 521.2C512.98 523.55 510.03 525.2 508.03 527.54C504.33 531.83 504.47 537.66 506.29 542.7C508.11 547.74 511.4 552.33 513.67 557.24C514.67 559.37 515.43 561.75 514.42 563.87C513.71 565.34 512.24 566.46 511.1 567.73C509.432 569.6 508.384 571.94 508.1 574.43C485.59 579.57 485.57 597.66 485.57 597.66L473.41 628.24C473.41 628.24 471.46 633.39 469.17 640.19L454.78 637.61L464.78 654.35C462.89 661.17 461.55 667.49 461.99 670.67C461.99 670.67 457.52 691.67 465.47 695.34L483.01 703.23C483.77 703.696 484.587 704.062 485.44 704.32L486.15 704.64C486.406 704.764 486.686 704.828 486.97 704.828C487.254 704.828 487.534 704.764 487.79 704.64H487.84H488.03C488.37 704.663 488.711 704.612 489.03 704.49C489.421 704.28 489.73 703.945 489.91 703.54C489.904 703.507 489.904 703.473 489.91 703.44L495.16 701.92L499.61 707.19C501.61 708.6 503.61 709.82 505.5 710.92L498.61 779.34C498.61 779.34 497.5 870.34 494.14 891.08C492.9 898.76 492.89 904 493.36 907.56L493.23 907.78C494.06 913.63 496.23 914.78 496.23 914.78V914.7C496.27 914.732 496.314 914.758 496.36 914.78C497.372 912.123 498.575 909.543 499.96 907.06C499.96 907.55 499.96 908.06 499.96 908.56C499.89 916.28 499.65 927.09 498.85 934.12C497.49 946.12 502.33 985.67 502.33 985.67L504 1021.67C504.272 1027.78 502.853 1033.85 499.9 1039.21C495.9 1046.4 490.79 1056.52 490.42 1061.01C490.4 1061.25 490.4 1061.5 490.42 1061.74L481.84 1072.06C481.84 1072.06 478.49 1077.24 486.06 1079.33C490.13 1080.46 497.15 1079.33 502.79 1078C505.252 1077.43 507.449 1076.05 509.023 1074.07C510.598 1072.1 511.457 1069.65 511.46 1067.12C512.886 1062.16 515.293 1057.54 518.54 1053.53L519.95 1061.82L529.39 1064.16L530.6 1041.44C531.087 1040.16 531.309 1038.8 531.25 1037.44C533.11 1021.28 526.87 1022.73 526.87 1022.73C527.037 1022.87 527.144 1023.07 527.17 1023.29L526.87 1022.74C523.04 1015.18 524.87 1002.74 524.87 1002.74C524.87 1002.74 529.87 966.74 531.58 957.23C532.81 950.51 532.3 928.51 531.89 916.23C531.89 915.72 531.89 915.23 531.84 914.74C546.48 914.55 564.42 914.06 577.01 912.84V914.32L574.69 999.37C574.531 1004.79 573.428 1010.15 571.43 1015.19C571.43 1015.29 571.36 1015.38 571.32 1015.48C568.56 1022.6 567.002 1030.14 566.71 1037.77L565.63 1064.77V1065.52C563.75 1066.24 560.78 1068.33 560.7 1074.39C560.57 1083.27 576.22 1080.31 576.22 1080.31C591.86 1080.31 591.99 1064.03 591.99 1064.03C591.99 1064.03 592.48 1049.1 593.23 1039.11C593.98 1029.12 590.87 1031.32 590.87 1031.32L590.63 1059.74C590.63 1059.81 590.63 1059.88 590.63 1059.96V1035.05L590.87 1031.44V1031.34V1030.57L592.84 1001.26C592.84 1001.26 607.25 952.42 609.48 943.05C611.07 936.39 610.41 916.33 609.89 905.24C609.89 904.73 609.89 904.24 609.81 903.77C614.28 903.37 618.23 903.33 619.81 903.33H620.54C620.54 903.33 619.8 824.89 617.93 795.33C616.06 765.77 613.09 738.72 605.64 730.58C601.14 725.66 594.87 710.47 590.64 699.22C599.532 703.065 608.762 706.078 618.21 708.22C641.8 713.16 638.57 692.68 638.57 692.68L636.18 653.95H636.34C636.252 643.805 635.383 633.682 633.74 623.67C632.49 615.99 630.58 608.05 627.66 601.67C630.22 600.67 632.75 599.6 635.23 598.5C641.64 595.67 648.86 591.66 649.78 584.75H649.47C649.594 584.251 649.674 583.743 649.71 583.23ZM503.48 639.23C503.53 643.23 503.38 650.17 503.14 657.84L495.65 647.84L503.16 635.66L503.48 639.23ZM606.96 674.67L594.48 670.67C596.693 667.217 599.278 664.018 602.19 661.13L603.27 660.13L602.88 660.21L603.48 659.66L603.84 659.58L603.27 660.13L603.95 659.99C604.701 663.125 606.154 666.048 608.2 668.54C612.68 673.43 606.97 674.67 606.97 674.67H606.96Z" fill="url(#paint1_linear)"/>
<path d="M531.15 1034.66L529.69 1062.34L520.38 1060.01L518.42 1048.5L531.15 1034.66Z" fill="#A27772"/>
<path opacity="0.1" d="M531.15 1034.66L529.69 1062.34L520.38 1060.01L518.42 1048.5L531.15 1034.66Z" fill="black"/>
<path d="M565.32 1066.01L579.52 1068.95L590.05 1059.65V1033.44L590.29 1029.86V1029.75V1028.99L592.25 999.86C592.25 999.86 606.46 951.37 608.67 942.06C610.23 935.46 609.58 915.54 609.06 904.53C608.85 900.02 608.67 897 608.67 897L577.32 889.41L576.66 913.51L574.37 997.95C574.212 1003.33 573.126 1008.65 571.16 1013.66L571.05 1013.95C568.324 1021.02 566.787 1028.5 566.5 1036.07L565.44 1062.92V1063.66L565.32 1066.01Z" fill="#CC818C"/>
<path opacity="0.1" d="M565.32 1066.01L579.52 1068.95L590.05 1059.65V1057.42C590.016 1057.91 589.86 1058.39 589.597 1058.81C589.333 1059.23 588.97 1059.58 588.54 1059.82L588.39 1059.91C583.499 1062.5 577.957 1063.59 572.45 1063.06L566.91 1062.59C566.405 1062.64 565.91 1062.76 565.44 1062.95V1063.69L565.32 1066.01Z" fill="black"/>
<path d="M588.39 1060.64L588.54 1060.56C589.002 1060.3 589.387 1059.92 589.656 1059.47C589.924 1059.01 590.067 1058.49 590.07 1057.96L590.3 1029.75C590.3 1029.75 593.36 1027.56 592.62 1037.48C591.88 1047.4 591.4 1062.22 591.4 1062.22C591.4 1062.22 591.28 1078.38 575.85 1078.38C575.85 1078.38 560.42 1081.32 560.54 1072.5C560.66 1063.68 566.91 1063.32 566.91 1063.32L572.45 1063.8C577.958 1064.33 583.501 1063.23 588.39 1060.64Z" fill="#B07473"/>
<path d="M491.36 1060.01C491.72 1066.38 510.46 1062.7 510.46 1062.7L523.07 1038.22C523.07 1038.22 533.6 1030.13 528.33 1023.03C528.048 1022.64 527.791 1022.24 527.56 1021.82C527.56 1021.82 527.56 1021.82 527.51 1021.76C527.4 1021.58 527.3 1021.39 527.2 1021.19C523.42 1013.69 525.28 1001.39 525.28 1001.39C525.28 1001.39 530.17 965.63 531.89 956.2C533.1 949.54 532.6 927.69 532.2 915.47C532.04 910.39 531.89 906.98 531.89 906.98L500.78 898.65C500.78 898.65 500.78 902.53 500.78 907.93C500.71 915.6 500.47 926.33 499.68 933.31C498.34 945.18 503.11 984.49 503.11 984.49L504.76 1020.26C505.046 1026.32 503.662 1032.34 500.76 1037.67C496.86 1044.81 491.76 1054.87 491.41 1059.32C491.375 1059.55 491.358 1059.78 491.36 1060.01Z" fill="#CC818C"/>
<path opacity="0.1" d="M491.36 1060.01C491.72 1066.38 510.46 1062.7 510.46 1062.7L523.07 1038.22C523.07 1038.22 533.6 1030.13 528.33 1023.03C528.048 1022.64 527.791 1022.24 527.56 1021.82C527.39 1025.53 523.32 1034.82 523.32 1034.82C523.32 1034.82 512.91 1055.65 509.6 1060.42C506.29 1065.19 491.91 1059.53 491.37 1059.33C491.349 1059.56 491.346 1059.78 491.36 1060.01Z" fill="black"/>
<path d="M527.2 1021.16C527.2 1021.16 533.36 1019.73 531.52 1035.77C531.59 1037.59 531.176 1039.4 530.321 1041.01C529.465 1042.62 528.199 1043.98 526.65 1044.94C522.24 1047.71 515.44 1053.67 512 1065.26C512.003 1067.76 511.16 1070.19 509.607 1072.15C508.055 1074.11 505.885 1075.49 503.45 1076.06C497.89 1077.36 490.96 1078.5 486.95 1077.38C479.48 1075.3 482.79 1070.16 482.79 1070.16L491.36 1059.99C491.36 1059.99 506.3 1065.87 509.6 1061.09C512.9 1056.31 523.32 1035.5 523.32 1035.5C523.32 1035.5 529.03 1022.51 527.2 1021.16Z" fill="#B07473"/>
<path opacity="0.1" d="M577.32 892.38L576.66 916.48C585.01 915.67 590.99 914.54 592.01 912.95C594.22 909.53 602.24 908.09 609.06 907.5C608.85 902.99 608.67 899.97 608.67 899.97L577.32 892.38Z" fill="black"/>
<path opacity="0.1" d="M500.78 910.86C501.578 909.227 502.754 907.808 504.21 906.72C507.51 904.89 507.15 918.48 507.15 918.48C507.15 918.48 518.15 918.58 532.2 918.4C532.04 913.32 531.89 909.9 531.89 909.9L500.78 901.58C500.78 901.58 500.84 905.44 500.78 910.86Z" fill="black"/>
<path d="M497.23 914.08C497.23 914.08 500.91 904.08 504.23 902.3C507.55 900.52 507.17 914.05 507.17 914.05C507.17 914.05 587.99 914.79 592.03 908.54C596.07 902.29 619.58 902.66 619.58 902.66C619.58 902.66 618.85 824.78 617.01 795.4C615.17 766.02 612.24 739.19 604.89 731.11C600.14 725.88 593.38 708.96 589.2 697.68C586.93 691.52 585.42 687.03 585.42 687.03L508.28 691.43L507.65 697.68L499.46 779.6C499.46 779.6 498.36 869.97 495.05 890.54C491.74 911.11 497.23 914.08 497.23 914.08Z" fill="#444053"/>
<g opacity="0.1">
<path opacity="0.1" d="M585.75 908.54C589.75 902.3 613.3 902.66 613.3 902.66C613.3 902.66 612.57 824.78 610.73 795.4C608.89 766.02 605.96 739.19 598.61 731.11C593.84 725.86 587.1 708.96 582.92 697.68C581.01 692.5 579.64 688.51 579.26 687.37L585.26 687.03C585.26 687.03 586.77 691.52 589.05 697.68C593.23 708.96 599.98 725.88 604.73 731.11C612.08 739.19 615.02 766.01 616.85 795.4C618.68 824.79 619.43 902.66 619.43 902.66C619.43 902.66 595.92 902.3 591.87 908.54C588.42 913.87 528.95 914.12 511.69 914.07C533.84 914.02 582.63 913.36 585.75 908.54Z" fill="black"/>
<path opacity="0.1" d="M497.95 902.3C499.44 901.47 500.18 903.77 500.55 906.56C499.215 908.98 498.055 911.493 497.08 914.08C497.08 914.08 494.95 912.93 494.08 907.08C495.3 904.99 496.65 903.02 497.95 902.3Z" fill="black"/>
</g>
<path d="M521.07 498.6C515.73 505.88 521.13 516.23 515.4 523.31C513.51 525.65 510.6 527.31 508.63 529.61C504.98 533.87 505.12 539.66 506.91 544.66C508.7 549.66 511.91 554.22 514.19 559.1C515.19 561.21 515.93 563.58 514.93 565.68C514.23 567.14 512.78 568.25 511.65 569.51C507.97 573.62 507.87 579.33 509.85 584.17C511.83 589.01 515.61 593.17 519.34 597.27C520.81 598.88 522.67 600.66 525.12 600.61C526.408 600.512 527.654 600.104 528.75 599.42C537.234 595.087 543.719 587.648 546.856 578.653C549.993 569.658 549.539 559.799 545.59 551.13C542.49 543.7 537.32 536.58 537.27 528.73C537.27 522.5 540.47 516.55 541.04 510.35C541.73 502.81 537.27 490.84 528.17 487.55C528.77 492.39 523.78 494.86 521.07 498.6Z" fill="#585268"/>
<path opacity="0.1" d="M521.07 498.6C515.73 505.88 521.13 516.23 515.4 523.31C513.51 525.65 510.6 527.31 508.63 529.61C504.98 533.87 505.12 539.66 506.91 544.66C508.7 549.66 511.91 554.22 514.19 559.1C515.19 561.21 515.93 563.58 514.93 565.68C514.23 567.14 512.78 568.25 511.65 569.51C507.97 573.62 507.87 579.33 509.85 584.17C511.83 589.01 515.61 593.17 519.34 597.27C520.81 598.88 522.67 600.66 525.12 600.61C526.408 600.512 527.654 600.104 528.75 599.42C537.234 595.087 543.719 587.648 546.856 578.653C549.993 569.658 549.539 559.799 545.59 551.13C542.49 543.7 537.32 536.58 537.27 528.73C537.27 522.5 540.47 516.55 541.04 510.35C541.73 502.81 537.27 490.84 528.17 487.55C528.77 492.39 523.78 494.86 521.07 498.6Z" fill="black"/>
<path opacity="0.1" d="M580.29 763.41C569.6 763.97 559.54 768.57 550.18 773.77C540.82 778.97 531.76 784.86 521.69 788.55" fill="black"/>
<path opacity="0.1" d="M573.65 788.6C563.075 789.608 553.221 794.403 545.9 802.1C543.3 804.85 541.06 807.93 538.35 810.57C534.202 814.619 529.075 817.523 523.47 819" fill="black"/>
<path opacity="0.1" d="M575.84 807.77C567.312 810.137 559.593 814.792 553.52 821.23C551.88 823 550.39 824.89 548.75 826.66C539.9 836.16 527.4 841.2 515.33 845.97" fill="black"/>
<path d="M574.93 541.92C575.166 550.462 575.9 558.983 577.13 567.44C578.13 573.44 579.53 578.84 581.54 581.23C587.42 588.23 552.89 597.58 552.89 597.58L532.5 581.78C532.5 581.78 548.66 566.9 541.13 552.39C533.6 537.88 574.93 541.92 574.93 541.92Z" fill="#CC818C"/>
<path opacity="0.1" d="M507.63 697.68H589.18C586.91 691.52 585.4 687.03 585.4 687.03L508.26 691.43L507.63 697.68Z" fill="black"/>
<path d="M502.38 696.21H589.57C587.12 687.44 589.57 679.33 593.06 673.09C595.506 668.717 598.583 664.728 602.19 661.25L602.79 660.7L633.23 653.96L634.87 653.6C634.87 653.6 635.12 598.25 615.52 590.65C595.92 583.05 584.17 572.78 584.17 572.78L557.24 581.1L537.4 571.1C531.03 577.95 514.13 575.26 514.13 575.26C486.46 578.44 486.46 599.26 486.46 599.26C486.46 599.26 502.62 636.97 503.85 636.97C505.08 636.97 502.38 696.21 502.38 696.21Z" fill="#E81410"/>
<path opacity="0.1" d="M532.48 661.02C532.48 661.02 514.7 657.08 508.65 650.19L532.48 661.02Z" fill="black"/>
<path opacity="0.1" d="M622.13 640.37L601.51 657.27C601.659 658.615 601.886 659.951 602.19 661.27L602.79 660.72L633.23 653.98L622.13 640.37Z" fill="black"/>
<path opacity="0.1" d="M566.3 690.33C566.3 690.33 570.81 692.87 577.72 696.21H589.57C587.12 687.44 589.57 679.33 593.06 673.09L572.17 666.33C579.28 672.94 566.3 690.33 566.3 690.33Z" fill="black"/>
<path d="M498.7 592.62L486.46 599.23L474.46 629.6C474.46 629.6 461.97 662.9 463.19 671.72C463.19 671.72 458.79 692.54 466.62 696.21L487.02 705.45C487.381 705.609 487.782 705.652 488.168 705.573C488.554 705.494 488.906 705.297 489.175 705.009C489.444 704.722 489.617 704.357 489.67 703.967C489.723 703.576 489.653 703.179 489.47 702.83C486.56 697.32 483.36 688.7 488.47 683.96L482.59 671.72L503.84 636.94L510.94 624.94L498.7 592.62Z" fill="#E81410"/>
<path opacity="0.1" d="M525.93 654.07C526.99 658.39 530.57 665.07 542.42 667.56L555.42 678.21L569.25 684.48L574.89 687.03L577.28 669.76L571.85 666.76L565.52 663.3C565.52 663.3 551.24 637.43 528.63 648.3C527.579 648.798 526.735 649.646 526.242 650.699C525.75 651.752 525.639 652.944 525.93 654.07Z" fill="black"/>
<path d="M526.67 652.6C527.73 656.93 531.3 663.6 543.15 666.09L556.15 676.74L569.99 683.01L575.62 685.56L578.01 668.29L572.58 665.29L566.3 661.86C566.3 661.86 552.01 635.99 529.4 646.91C528.36 647.4 527.521 648.233 527.024 649.27C526.526 650.306 526.402 651.482 526.67 652.6Z" fill="#CC818C"/>
<path opacity="0.1" d="M552.15 564.32C569.597 564.32 583.74 550.177 583.74 532.73C583.74 515.283 569.597 501.14 552.15 501.14C534.703 501.14 520.56 515.283 520.56 532.73C520.56 550.177 534.703 564.32 552.15 564.32Z" fill="black"/>
<path d="M552.15 563.59C569.597 563.59 583.74 549.447 583.74 532C583.74 514.553 569.597 500.41 552.15 500.41C534.703 500.41 520.56 514.553 520.56 532C520.56 549.447 534.703 563.59 552.15 563.59Z" fill="#CC818C"/>
<path opacity="0.1" d="M571.72 599.5L562.22 581.04C562.22 581.04 576.12 575.42 577.13 568.91C578.14 562.4 590.45 576.54 587.79 581.23C585.13 585.92 571.72 599.5 571.72 599.5Z" fill="black"/>
<path d="M571.72 598.03L562.22 579.57C562.22 579.57 576.12 573.95 577.13 567.44C578.14 560.93 590.45 575.08 587.79 579.76C585.13 584.44 571.72 598.03 571.72 598.03Z" fill="#E81410"/>
<path d="M493.97 645.72L546.46 716.29C546.46 716.29 527.11 726.82 500.46 707.97L488.95 694.25L456.09 638.86L493.97 645.72Z" fill="#F6F8FB"/>
<path d="M483.64 684.09L488.42 683.96C488.42 683.96 517.62 655.62 524.79 669.96C531.96 684.3 506.6 697.7 506.6 697.7L498.89 701.86L488.84 704.86L482.41 696.23L483.64 684.09Z" fill="#CC818C"/>
<path opacity="0.1" d="M490.69 699.4C491.13 701.03 491.55 702.83 490.81 704.34C490.633 704.744 490.327 705.078 489.94 705.29C489.622 705.412 489.28 705.46 488.94 705.43C486.41 705.215 484.056 704.05 482.35 702.17C480.674 700.296 479.24 698.22 478.08 695.99C476.78 693.72 475.43 691.21 475.89 688.63C476.41 685.82 478.89 683.87 481.32 682.29C486.16 679.09 486.32 682.82 487.38 686.94C488.44 691.06 489.58 695.24 490.69 699.4Z" fill="black"/>
<path d="M489.96 699.4C490.39 701.03 490.82 702.83 490.08 704.34C489.903 704.744 489.597 705.078 489.21 705.29C488.892 705.412 488.55 705.46 488.21 705.43C485.679 705.22 483.323 704.054 481.62 702.17C479.938 700.299 478.5 698.223 477.34 695.99C476.04 693.72 474.69 691.21 475.16 688.63C475.67 685.82 478.16 683.87 480.58 682.29C485.43 679.09 485.58 682.82 486.65 686.94C487.72 691.06 488.84 695.24 489.96 699.4Z" fill="#E81410"/>
<path opacity="0.1" d="M503.85 636.94L506.29 632.81L504.16 640.48L503.85 636.94Z" fill="black"/>
<path opacity="0.1" d="M570.03 683.01L575.66 685.56L578.05 668.29L572.62 665.29C576.37 669.59 573.09 677.54 570.03 683.01Z" fill="black"/>
<path opacity="0.1" d="M592.63 662.96C592.63 662.96 574.45 664.07 566.73 659.11L592.63 662.96Z" fill="black"/>
<g opacity="0.1">
<path opacity="0.1" d="M590.37 674.56C592.817 670.184 595.893 666.192 599.5 662.71C600.365 662.167 601.264 661.68 602.19 661.25L630.53 655.43L632.17 655.07C632.17 655.07 632.42 599.72 612.83 592.12C601.841 587.942 591.54 582.14 582.27 574.91L584.42 574.25C584.42 574.25 596.17 584.53 615.77 592.12C635.37 599.71 635.11 655.07 635.11 655.07H632.17L603.17 660.62C603.17 660.62 601.92 661.83 601.54 662.18C597.903 665.823 594.784 669.948 592.27 674.44C588.433 681.565 587.559 689.915 589.84 697.68H586.84C584.42 688.91 586.92 680.8 590.37 674.56Z" fill="black"/>
<path opacity="0.1" d="M512.97 576.86C513.44 576.79 513.89 576.72 514.38 576.67C516.368 576.952 518.372 577.116 520.38 577.16C517.906 577.228 515.43 577.128 512.97 576.86Z" fill="black"/>
<path opacity="0.1" d="M554.54 582.57L536.6 573.49C536.956 573.198 537.29 572.881 537.6 572.54L556.32 582.01L554.54 582.57Z" fill="black"/>
</g>
<path d="M622.84 638.86L634.84 653.56L637.29 693.48C637.29 693.48 640.47 713.8 617.21 708.9C593.95 704 567.03 688.86 567.03 688.86C567.03 688.86 580.03 671.47 572.91 664.86L606.22 675.64C606.22 675.64 611.85 674.41 607.44 669.52C603.03 664.63 602.25 655.8 602.25 655.8L622.84 638.86Z" fill="#E81410"/>
<path opacity="0.1" d="M628.26 681.03L634.87 688.62C633.17 688.098 631.649 687.11 630.481 685.769C629.313 684.427 628.544 682.786 628.26 681.03Z" fill="black"/>
<path opacity="0.1" d="M616.99 679.8L627.28 693.02L622.14 694.25L616.99 679.8Z" fill="black"/>
<path opacity="0.1" d="M514.42 517.5C513.29 514.73 514.16 511.5 515.52 508.89C516.88 506.28 518.75 503.81 519.77 501C521.28 496.82 520.82 492.09 522.47 488C525.38 480.75 533.65 477.51 541.06 475C543.25 474.27 545.58 473.54 547.82 474.08C550.82 474.79 552.77 477.51 555.22 479.34C565.28 486.84 581.64 478.58 591.37 486.52C595.09 489.52 596.9 494.43 597.46 499.2C598.02 503.97 597.46 508.81 597.4 513.62C597.24 522.04 598.82 531.25 605.12 536.83C607.02 538.51 609.26 539.77 611.12 541.51C612.98 543.25 614.44 545.68 614.12 548.2C613.874 549.357 613.54 550.494 613.12 551.6C611.87 555.99 613.74 560.6 616.02 564.6C622.82 576.37 634.81 586.07 648.4 586.34C647.49 593.2 640.4 597.18 634.05 599.99C626.05 603.58 617.53 607.1 608.72 606.65C599.91 606.2 590.72 600.56 589.18 591.88C588.65 588.88 588.72 585.27 586.18 583.71C584.62 582.76 582.6 583 580.92 582.29C578.49 581.29 577.29 578.56 576.49 576.05C574.851 570.871 573.972 565.481 573.88 560.05C573.77 553.61 574.62 546.58 570.97 541.28C567.59 536.37 561.59 533.88 557.69 529.37C554.09 525.19 550.18 520.15 544.28 519.37C536.12 518.22 519.24 529.31 514.42 517.5Z" fill="black"/>
<path d="M514.42 516.03C513.29 513.26 514.16 510.03 515.52 507.42C516.88 504.81 518.75 502.34 519.77 499.53C521.28 495.35 520.82 490.62 522.47 486.53C525.38 479.27 533.65 476.03 541.06 473.53C543.25 472.8 545.58 472.07 547.82 472.61C550.82 473.32 552.77 476.04 555.22 477.87C565.28 485.37 581.64 477.11 591.37 485.05C595.09 488.05 596.9 492.96 597.46 497.74C598.02 502.52 597.46 507.34 597.4 512.15C597.24 520.57 598.82 529.78 605.12 535.36C607.02 537.04 609.26 538.3 611.12 540.04C612.98 541.78 614.44 544.21 614.12 546.73C613.874 547.887 613.54 549.024 613.12 550.13C611.87 554.52 613.74 559.13 616.02 563.13C622.84 574.86 634.78 584.59 648.37 584.86C647.46 591.72 640.37 595.7 634.02 598.52C626.02 602.1 617.5 605.62 608.69 605.17C599.88 604.72 590.69 599.08 589.15 590.4C588.62 587.4 588.69 583.79 586.15 582.23C584.59 581.28 582.57 581.52 580.89 580.81C578.46 579.81 577.26 577.08 576.46 574.57C574.82 569.391 573.941 564.002 573.85 558.57C573.74 552.13 574.59 545.1 570.94 539.8C567.56 534.89 561.56 532.4 557.66 527.89C554.06 523.71 550.15 518.67 544.25 517.89C536.12 516.75 519.24 527.86 514.42 516.03Z" fill="#585268"/>
<path opacity="0.1" d="M536.84 597.21L554.95 582.51C554.95 582.51 542.55 575.79 541.07 570.06C539.59 564.33 529.67 572.78 530.68 577.92C531.69 583.06 536.84 597.21 536.84 597.21Z" fill="black"/>
<path d="M537.55 595L555.66 580.31C555.66 580.31 543.26 573.59 541.84 567.86C540.42 562.13 530.44 570.58 531.45 575.72C532.46 580.86 537.55 595 537.55 595Z" fill="#E81410"/>
<path opacity="0.1" d="M556.37 594.05C557.165 594.05 557.81 593.405 557.81 592.61C557.81 591.815 557.165 591.17 556.37 591.17C555.575 591.17 554.93 591.815 554.93 592.61C554.93 593.405 555.575 594.05 556.37 594.05Z" fill="black"/>
<path opacity="0.1" d="M556.37 602.05C557.165 602.05 557.81 601.405 557.81 600.61C557.81 599.815 557.165 599.17 556.37 599.17C555.575 599.17 554.93 599.815 554.93 600.61C554.93 601.405 555.575 602.05 556.37 602.05Z" fill="black"/>
<path opacity="0.1" d="M556.37 610.04C557.165 610.04 557.81 609.395 557.81 608.6C557.81 607.805 557.165 607.16 556.37 607.16C555.575 607.16 554.93 607.805 554.93 608.6C554.93 609.395 555.575 610.04 556.37 610.04Z" fill="black"/>
<g opacity="0.1">
<path opacity="0.1" d="M521.73 495.61C523.16 491.68 522.85 487.27 524.19 483.31C523.569 484.186 523.056 485.132 522.66 486.13C521 490.26 521.47 494.99 519.95 499.13L519.85 499.37C520.591 498.177 521.22 496.918 521.73 495.61Z" fill="black"/>
<path opacity="0.1" d="M635.98 594.6C627.98 598.18 619.46 601.7 610.65 601.25C601.84 600.8 592.65 595.16 591.11 586.49C590.58 583.49 590.65 579.87 588.11 578.31C586.55 577.36 584.53 577.6 582.85 576.89C580.42 575.89 579.22 573.16 578.42 570.65C576.78 565.471 575.901 560.082 575.81 554.65C575.7 548.22 576.56 541.19 572.91 535.88C569.52 530.97 563.52 528.49 559.62 523.97C556.02 519.8 552.11 514.75 546.21 513.97C538.12 512.87 521.21 523.97 516.43 512.15C515.662 509.917 515.773 507.475 516.74 505.32C516.39 505.91 516.05 506.5 515.74 507.1C514.38 509.76 513.52 512.95 514.65 515.72C519.46 527.52 536.34 516.43 544.43 517.54C550.33 518.34 554.24 523.39 557.84 527.54C561.74 532.06 567.74 534.54 571.12 539.46C574.78 544.76 573.92 551.79 574.03 558.22C574.121 563.652 575 569.041 576.64 574.22C577.44 576.74 578.64 579.44 581.07 580.46C582.75 581.17 584.77 580.94 586.33 581.88C588.91 583.44 588.84 587.09 589.33 590.06C590.89 598.73 600.07 604.37 608.87 604.82C617.67 605.27 626.15 601.76 634.2 598.17C640 595.59 646.46 592.02 648.2 586.17C645.42 589.97 640.5 592.59 635.98 594.6Z" fill="black"/>
</g>
<path d="M812.71 651.04C791.54 638.86 783.54 635.86 783.5 635.86L783.06 635.55C780.754 633.778 778.923 631.462 777.73 628.81C777.705 628.327 777.705 627.843 777.73 627.36C777.725 627.407 777.725 627.454 777.73 627.5C778.06 621.05 782.65 615.18 787 610.06L798.13 596.97C799.395 595.675 800.372 594.128 801 592.43C801.225 591.518 801.326 590.579 801.3 589.64C801.3 589.26 801.3 588.88 801.3 588.5C801.24 585.25 801.15 581.99 801.03 578.74C800.93 575.9 800.2 572.32 797.36 571.74C795.88 571.44 793.92 571.97 793.14 570.74C792.875 570.218 792.808 569.618 792.95 569.05C792.944 569.097 792.944 569.144 792.95 569.19V569.03C793.5 566.836 793.852 564.597 794 562.34C794.062 561.191 793.906 560.041 793.54 558.95C791.9 554.24 786.23 552.3 781.22 551.41C776.21 550.52 770.59 549.76 767.45 545.84C766.609 544.532 765.695 543.273 764.71 542.07C763.261 540.783 761.493 539.909 759.59 539.54C753.371 538.008 746.821 538.578 740.96 541.16C738.54 542.24 736.11 543.7 733.45 543.54C730.79 543.38 728.33 541.46 725.61 541C721.21 540.25 717 543.48 714.83 547.31C713.545 549.581 712.857 552.141 712.83 554.75V555.19C712.767 557.998 713.792 560.721 715.69 562.79C717.59 564.79 720.41 566.11 721.2 568.7C721.52 569.75 721.44 570.89 721.73 571.96C721.761 572.093 721.801 572.223 721.85 572.35L721.71 572.54C717.17 578.348 714.706 585.508 714.71 592.88C714.759 600.04 717.084 606.999 721.348 612.751C725.611 618.503 731.594 622.751 738.43 624.88C738.43 625.21 738.43 625.54 738.43 625.88C738.43 629.88 737.28 634.05 733.83 637.08L703.84 649.06C703.84 649.06 685.76 646.91 679.24 673.33C678.198 677.716 677.821 682.232 678.12 686.73C678.36 690.73 677.81 697.73 673.12 706.8C665.71 721.32 667.4 754.65 682.56 757.95C696.87 761.07 702.47 759.77 703.06 759.62V760.2C702.82 766.46 700.55 820.4 692.3 826.92C690.02 828.73 690.44 829.92 692.3 830.77C692.3 830.77 692.3 831.12 692.25 831.77C692 835.77 690.73 850.77 685.25 859.29C678.84 869.19 679.51 926.29 679.51 926.29L675.14 959.95C675.14 959.95 677.83 980.74 675.14 984.37C672.73 987.6 669.53 1064.51 668.86 1081.19H668.58C667.255 1081.28 665.972 1081.69 664.842 1082.38C663.712 1083.08 662.771 1084.04 662.1 1085.19C658.56 1090.94 646.16 1101.57 646.16 1101.57C643.47 1105.39 633.52 1109.05 628.26 1110.77C627.566 1111 626.896 1111.29 626.26 1111.65C624.291 1112.72 622.709 1114.39 621.74 1116.41C621.393 1117.01 621.172 1117.67 621.089 1118.36C621.007 1119.05 621.065 1119.75 621.26 1120.41C622.6 1123.7 650.57 1126.02 657.65 1122.71C663.21 1120.12 685.25 1116.71 694.4 1115.37C696.062 1115.16 697.606 1114.4 698.791 1113.22C699.975 1112.04 700.731 1110.49 700.94 1108.83C701.027 1108.26 700.998 1107.67 700.853 1107.11C700.709 1106.55 700.453 1106.02 700.1 1105.56C698.35 1103.39 697.46 1097.46 697.1 1093.56C697.843 1093.26 698.537 1092.85 699.16 1092.34C698.395 1080.35 700.097 1068.33 704.16 1057.03C710.9 1039.21 712.92 1006.21 711.24 984.76C711.24 984.76 731.79 896.32 747.97 888.07C748.22 888.39 756.07 898.46 757.07 929.65C758.07 961.33 769.53 982.12 769.53 982.12C769.53 982.12 764.47 1035.91 769.53 1056.04L762.92 1087.79C762.43 1087.38 762.12 1087.06 762.12 1087.06C762.12 1087.06 762.32 1087.94 762.59 1089.35L762.45 1090.03L762.74 1090.09C763.49 1094.09 764.6 1100.98 764.14 1105.09C763.88 1107.4 763.23 1110.57 762.79 1113.68C762.09 1118.57 761.9 1123.31 764.47 1124.35C768.69 1126.05 793.47 1128.35 797.67 1122.91C798.615 1121.8 799.23 1120.45 799.446 1119.01C799.662 1117.57 799.469 1116.1 798.89 1114.76C798.587 1114.01 798.176 1113.31 797.67 1112.68C797.67 1112.68 791.09 1101.93 792.95 1094.35C793.122 1093.61 793.14 1092.84 793.004 1092.09C792.868 1091.35 792.581 1090.63 792.16 1090C792.45 1086.28 793.95 1069.06 797.83 1054.44C802.05 1038.56 810.94 1003.74 804.4 980.85C804.153 979.95 803.873 979.07 803.56 978.21C799.785 965.711 798.524 952.589 799.85 939.6C797.422 928.511 797.422 917.029 799.85 905.94C803.9 887.46 806.73 869.31 806.73 869.31C806.73 869.31 808.96 844.89 807.01 829.92C807.01 829.6 806.92 829.28 806.88 828.92L807.94 828.68C807.94 828.68 802.21 803.27 800.19 787.1C799.71 783.28 799.09 778.45 798.41 773.29C800.274 772.981 802.11 772.523 803.9 771.92C822.09 765.65 827.82 708.92 827.82 708.92V690.92C827.82 690.92 833.94 663.25 812.71 651.04ZM677.15 1089.28C676.59 1089 676.26 1088.81 676.26 1088.81L677.15 1089.28Z" fill="url(#paint2_linear)"/>
<path d="M801.73 978.57C809.62 1001.26 800.41 1038.09 796.13 1054.57C791.85 1071.05 790.54 1090.75 790.54 1090.75C773.77 1093.38 761.6 1090.09 761.6 1090.09L768.51 1056.22C763.57 1036.16 768.51 982.55 768.51 982.55C768.51 982.55 757.33 961.83 756.34 930.26C755.34 899.19 747.71 889.14 747.47 888.83C731.69 897.05 711.63 985.19 711.63 985.19C713.27 1006.56 711.29 1039.45 704.72 1057.19C700.729 1068.47 699.053 1080.43 699.79 1092.37C697.49 1094.37 694.29 1094.65 690.79 1094.09C681.4 1092.57 670.14 1084.48 670.14 1084.48C670.14 1084.48 673.75 988.48 676.39 984.84C679.03 981.2 676.39 960.5 676.39 960.5L680.66 926.96C680.66 926.96 680 870.06 686.25 860.2C691.65 851.68 692.89 836.7 693.13 832.77C693.13 832.15 693.13 831.77 693.13 831.77L702.65 820.37C702.65 820.37 794.73 813.46 801.65 820.37C803.34 822.06 804.39 825.92 805.01 830.77C806.91 845.69 804.73 870.02 804.73 870.02C804.73 870.02 801.97 888.11 798.02 906.52C795.652 917.578 795.652 929.012 798.02 940.07C796.751 953.023 798.011 966.098 801.73 978.57Z" fill="#65617D"/>
<path d="M795.97 1122.77C791.86 1128.2 767.69 1125.9 763.57 1124.21C761.06 1123.21 761.25 1118.44 761.93 1113.57C762.36 1110.48 762.99 1107.32 763.25 1105.02C763.9 1099.1 761.25 1087.09 761.25 1087.09C761.25 1087.09 766.67 1092.85 767.98 1087.09C768.56 1084.57 770.58 1083.28 772.68 1082.63C775.498 1081.78 778.529 1081.97 781.22 1083.16C785.49 1085.02 792.61 1088.97 791.34 1094.31C789.53 1101.86 795.94 1112.58 795.94 1112.58C796.437 1113.21 796.841 1113.9 797.14 1114.64C797.71 1115.97 797.903 1117.44 797.696 1118.87C797.49 1120.3 796.893 1121.65 795.97 1122.77Z" fill="#A27772"/>
<path opacity="0.1" d="M795.97 1122.77C791.86 1128.2 767.69 1125.9 763.57 1124.21C761.06 1123.21 761.25 1118.44 761.93 1113.57C764.53 1114.79 768.93 1115.8 776.3 1115.12C778.018 1114.96 779.745 1114.9 781.47 1114.96C786.705 1115.2 791.949 1115.09 797.17 1114.64C797.736 1115.97 797.924 1117.44 797.712 1118.87C797.5 1120.31 796.898 1121.66 795.97 1122.77Z" fill="black"/>
<path opacity="0.1" d="M711.62 985.15C713.26 1006.52 711.28 1039.41 704.71 1057.15C700.719 1068.43 699.043 1080.39 699.78 1092.33C697.48 1094.33 694.28 1094.61 690.78 1094.05C692.78 1080.18 701.22 1020.42 706.63 973.2C712.8 919.43 741.63 882.44 741.63 882.44L747.38 888.77C731.68 897.01 711.62 985.15 711.62 985.15Z" fill="black"/>
<path d="M786.1 639.51L782.1 659.24L762.43 692.29L738.18 681.93C738.18 681.93 705.18 647.4 725.93 642.47C728.41 641.936 730.753 640.894 732.81 639.41C736.88 636.34 738.16 631.88 738.18 627.51C738.026 622.62 736.89 617.812 734.84 613.37L777.26 600.05C775.528 605.624 774.519 611.398 774.26 617.23C773.93 628.79 778.26 634.48 781.75 637.23C783.038 638.265 784.516 639.039 786.1 639.51Z" fill="#FBBEBE"/>
<path opacity="0.1" d="M777.22 600.05C775.488 605.624 774.48 611.398 774.22 617.23C773.446 618.152 772.622 619.03 771.75 619.86C767.37 624.043 761.94 626.963 756.035 628.309C750.13 629.656 743.971 629.38 738.21 627.51C738.047 622.618 736.901 617.81 734.84 613.37L777.22 600.05Z" fill="black"/>
<path d="M782.09 594.62C782.092 601.256 780.126 607.743 776.441 613.262C772.755 618.781 767.516 623.082 761.386 625.623C755.256 628.164 748.51 628.83 742.001 627.537C735.492 626.243 729.513 623.049 724.82 618.357C720.127 613.665 716.931 607.687 715.635 601.179C714.34 594.671 715.004 587.924 717.543 581.793C720.082 575.662 724.382 570.422 729.9 566.735C735.417 563.048 741.904 561.08 748.54 561.08C752.951 561.059 757.322 561.912 761.402 563.59C765.481 565.268 769.188 567.737 772.307 570.856C775.427 573.974 777.897 577.68 779.576 581.759C781.256 585.838 782.11 590.209 782.09 594.62Z" fill="#FBBEBE"/>
<path opacity="0.1" d="M786.1 639.51L782.1 659.24L762.43 692.29L738.18 681.93C738.18 681.93 705.18 647.4 725.93 642.47C728.41 641.936 730.753 640.894 732.81 639.41C729.07 649.69 744.51 671.08 744.51 671.08C746.31 673.73 750.43 672.08 750.43 672.08C760.38 670.57 778.69 641.96 781.68 637.2C782.987 638.254 784.489 639.039 786.1 639.51Z" fill="black"/>
<path opacity="0.1" d="M805.09 830.79C799.25 832.12 766.94 839.27 754.69 837.48C741.21 835.48 715 834.2 715 834.2C715 834.2 698.31 835.1 693.17 832.75C693.17 832.13 693.17 831.75 693.17 831.75L702.69 820.35C702.69 820.35 794.77 813.44 801.69 820.35C803.42 822.08 804.47 825.94 805.09 830.79Z" fill="black"/>
<path d="M744.5 672.07C744.5 672.07 727.15 648.07 733.69 638.67L704.38 650.67C704.38 650.67 686.74 648.53 680.38 674.86C679.364 679.236 678.996 683.737 679.29 688.22C679.53 692.22 678.99 699.22 674.46 708.22C667.23 722.69 668.87 755.91 683.67 759.22C698.47 762.53 703.72 760.86 703.72 760.86C703.72 760.86 701.72 821.04 693.2 827.95C684.68 834.86 715 833.21 715 833.21C715 833.21 741.21 834.53 754.7 836.5C768.19 838.47 806 829.59 806 829.59C806 829.59 800.41 804.27 798.43 788.16C796.45 772.05 791.84 737.73 791.84 737.73L825.38 692.29C825.38 692.29 831.3 664.83 810.58 652.66C789.86 640.49 782.07 637.51 782.07 637.51C782.07 637.51 761.25 671.41 750.4 673.05C750.42 673.05 746.3 674.71 744.5 672.07Z" fill="#FFD11F"/>
<path opacity="0.1" d="M706.02 681.6C706.02 681.6 705.7 692.46 707.67 696.73C709.64 701 716.88 724.73 716.88 724.73H700.43C700.43 724.73 709.31 715.19 708.66 710.58C708.01 705.97 706.02 681.6 706.02 681.6Z" fill="black"/>
<path d="M754.7 763.49C754.7 763.49 718.38 754.61 715 747.05C711.62 739.49 702.29 722.56 702.29 722.56L706.12 717.4L723.78 731.26C723.78 731.26 744.78 748.03 754.7 749.68C764.62 751.33 754.7 763.49 754.7 763.49Z" fill="#FBBEBE"/>
<path opacity="0.05" d="M754.7 763.49C754.7 763.49 718.38 754.61 715 747.05C711.62 739.49 702.29 722.56 702.29 722.56L706.12 717.4L723.78 731.26C723.78 731.26 744.78 748.03 754.7 749.68C764.62 751.33 754.7 763.49 754.7 763.49Z" fill="black"/>
<path d="M786.1 720.74V740.44H782.94C767.291 740.437 751.9 744.422 738.22 752.02L732.28 755.31L730.69 756.2L720.49 733.2L730.03 724.65H730.52C732.85 724.88 742.94 725.72 747.22 724.28C751.28 722.9 756.32 718.53 768.28 721.58C774.17 723.09 779.21 729.69 784.92 727.63L786.1 720.74Z" fill="#FBBEBE"/>
<path opacity="0.1" d="M817.84 684.86L824.41 692.26V710.19C824.41 710.19 818.82 766.75 801.07 773C783.32 779.25 751.61 769.38 751.61 769.38C751.61 769.38 743.42 747.68 747.25 746.38C751.08 745.08 781.1 737.14 781.1 737.14C781.1 737.14 780.68 703.96 787.25 694.09C787.25 694.09 782.98 663.18 797.78 662.52C812.58 661.86 817.84 684.86 817.84 684.86Z" fill="black"/>
<path d="M818.84 684.86L825.42 692.26V710.19C825.42 710.19 819.83 766.75 802.07 773C784.31 779.25 752.61 769.38 752.61 769.38C752.61 769.38 744.42 747.68 748.26 746.38C752.1 745.08 782.11 737.14 782.11 737.14C782.11 737.14 781.68 703.96 788.26 694.09C788.26 694.09 783.98 663.18 798.78 662.52C813.58 661.86 818.84 684.86 818.84 684.86Z" fill="#FFD11F"/>
<path opacity="0.1" d="M772.89 608.86C773.173 606.694 772.916 604.492 772.14 602.45C771.21 600.45 769.04 598.94 766.92 599.45C764.11 600.11 762.92 603.77 760.14 604.65C757.81 605.39 755.27 603.74 754.14 601.57C753.01 599.4 753 596.85 753 594.41C753 591.67 753 588.92 753 586.17C753 583.17 752.9 579.95 751.06 577.6C748.77 574.68 743.38 573.4 739.78 573.52C737.385 573.547 735.087 574.471 733.34 576.11C731.42 577.75 729.19 578.95 726.57 578.52C725.478 578.357 724.454 577.887 723.618 577.164C722.783 576.442 722.17 575.497 721.85 574.44V574.34C724.64 570.63 728.17 567.54 732.216 565.265C736.262 562.99 740.736 561.58 745.355 561.124C749.975 560.667 754.638 561.174 759.051 562.613C763.464 564.052 767.531 566.391 770.993 569.483C774.455 572.574 777.238 576.351 779.166 580.573C781.093 584.796 782.123 589.373 782.191 594.014C782.258 598.655 781.361 603.26 779.557 607.537C777.753 611.813 775.081 615.669 771.71 618.86C772.289 615.551 772.683 612.213 772.89 608.86Z" fill="black"/>
<path d="M726.57 577.55C725.477 577.382 724.453 576.909 723.616 576.186C722.78 575.462 722.164 574.518 721.84 573.46C721.57 572.4 721.64 571.27 721.33 570.22C720.56 567.63 717.8 566.29 715.95 564.32C712.25 560.39 712.49 553.93 715.11 549.2C717.23 545.39 721.33 542.2 725.63 542.92C728.29 543.38 730.63 545.27 733.29 545.45C735.95 545.63 738.29 544.16 740.62 543.08C746.333 540.486 752.759 539.915 758.84 541.46C760.705 541.835 762.433 542.709 763.84 543.99C764.795 545.192 765.687 546.444 766.51 547.74C769.57 551.64 775.06 552.41 779.95 553.29C784.84 554.17 790.37 556.11 791.95 560.81C793.02 563.93 791.95 567.31 791.37 570.55C791.178 571.211 791.224 571.919 791.5 572.55C792.27 573.81 794.18 573.28 795.62 573.55C798.39 574.14 799.1 577.71 799.21 580.55C799.323 583.79 799.41 587.033 799.47 590.28C799.55 591.488 799.452 592.701 799.18 593.88C798.58 595.57 797.629 597.114 796.39 598.41L785.53 611.46C780.71 617.24 775.6 623.98 776.53 631.46C774.25 632.46 771.53 630.51 770.79 628.12C770.05 625.73 770.64 623.12 771.15 620.71C772.035 616.474 772.617 612.179 772.89 607.86C773.174 605.697 772.916 603.498 772.14 601.46C771.21 599.46 769.04 597.95 766.92 598.46C764.1 599.12 762.92 602.78 760.14 603.66C757.81 604.4 755.27 602.75 754.14 600.58C753.01 598.41 753 595.87 753 593.43V585.18C753 582.18 752.9 578.96 751.06 576.61C748.77 573.69 743.38 572.41 739.78 572.53C737.388 572.559 735.095 573.483 733.35 575.12C731.42 576.77 729.19 577.98 726.57 577.55Z" fill="#7C5C5C"/>
<path opacity="0.1" d="M734.14 680.78L744.44 723.09C744.44 723.09 752.56 723.04 734.14 680.78Z" fill="black"/>
<path opacity="0.1" d="M769.33 673.71C769.33 673.71 755.85 695.79 761.11 718.63L763.62 718.81C763.62 718.81 759.14 708.24 769.33 673.71Z" fill="black"/>
<path opacity="0.1" d="M777.84 798.68C777.84 798.68 794.4 793.2 795.6 805.91C795.64 805.91 792.52 797.2 777.84 798.68Z" fill="black"/>
<path opacity="0.1" d="M730.03 725.67C730.03 725.67 726.74 748.67 732.66 757.9C732.66 757.9 720.66 762.83 703.72 761.85L701.72 725.67H730.03Z" fill="black"/>
<path opacity="0.1" d="M732.28 755.31L730.69 756.2L720.49 733.2L730.03 724.65H730.52C730.37 725.79 727.71 745.56 732.28 755.31Z" fill="black"/>
<path d="M730.03 724.69C730.03 724.69 726.74 747.69 732.66 756.91C732.66 756.91 720.66 761.85 703.72 760.86L692.21 724.69H730.03Z" fill="#FFD11F"/>
<path d="M701.59 1108.77C701.399 1110.41 700.667 1111.94 699.511 1113.12C698.354 1114.3 696.837 1115.07 695.2 1115.29C686.27 1116.62 664.76 1120.02 659.33 1122.61C652.42 1125.9 625.13 1123.61 623.81 1120.31C623.619 1119.65 623.563 1118.95 623.644 1118.26C623.724 1117.58 623.941 1116.91 624.28 1116.31C625.216 1114.31 626.759 1112.65 628.69 1111.57C629.328 1111.21 629.997 1110.92 630.69 1110.69C635.83 1108.98 645.54 1105.34 648.16 1101.52C648.16 1101.52 660.27 1090.93 663.72 1085.21C664.368 1084.08 665.284 1083.14 666.386 1082.45C667.489 1081.76 668.744 1081.36 670.04 1081.27C672.92 1081.14 676.13 1082.59 677.45 1088.9C677.45 1088.9 693.22 1097.9 697.45 1090.01C697.45 1090.01 698.11 1102.13 700.73 1105.45C701.088 1105.92 701.349 1106.45 701.497 1107.02C701.644 1107.59 701.676 1108.19 701.59 1108.77Z" fill="#A27772"/>
<path opacity="0.1" d="M701.59 1108.77C701.399 1110.41 700.667 1111.94 699.511 1113.12C698.354 1114.3 696.837 1115.07 695.2 1115.29C686.27 1116.62 664.76 1120.02 659.33 1122.61C652.42 1125.9 625.13 1123.61 623.81 1120.31C623.619 1119.65 623.563 1118.95 623.644 1118.26C623.724 1117.58 623.941 1116.91 624.28 1116.31C625.216 1114.31 626.759 1112.65 628.69 1111.57C633.14 1114.57 643.02 1117.41 664.75 1114.02C685.48 1110.78 695.75 1107.61 700.75 1105.45C701.105 1105.92 701.362 1106.45 701.506 1107.02C701.65 1107.6 701.679 1108.19 701.59 1108.77Z" fill="black"/>
<g opacity="0.1">
<path opacity="0.1" d="M791.32 571.01V570.85C791.79 568.39 792.5 565.85 792.32 563.38C792.11 565.399 791.776 567.402 791.32 569.38C791.197 569.916 791.197 570.474 791.32 571.01Z" fill="black"/>
<path opacity="0.1" d="M772.13 601.79C772.653 602.975 772.929 604.255 772.94 605.55C773.088 603.764 772.81 601.968 772.13 600.31C771.21 598.31 769.04 596.8 766.92 597.31C764.1 597.97 762.92 601.63 760.13 602.51C757.81 603.25 755.27 601.6 754.13 599.43C752.99 597.26 752.99 594.71 752.99 592.27C752.99 589.52 752.99 586.78 752.99 584.03C752.99 581.03 752.89 577.81 751.05 575.46C748.75 572.53 743.37 571.26 739.77 571.37C737.374 571.401 735.076 572.328 733.33 573.97C731.4 575.61 729.18 576.81 726.55 576.38C725.459 576.213 724.437 575.742 723.602 575.02C722.767 574.299 722.153 573.356 721.83 572.3C721.56 571.24 721.63 570.1 721.32 569.05C720.55 566.47 717.79 565.12 715.94 563.16C714.205 561.236 713.221 558.751 713.17 556.16C713.034 557.68 713.209 559.211 713.685 560.661C714.162 562.11 714.929 563.447 715.94 564.59C717.79 566.59 720.55 567.9 721.32 570.48C721.63 571.48 721.56 572.67 721.83 573.73C722.153 574.786 722.767 575.729 723.602 576.45C724.437 577.172 725.459 577.643 726.55 577.81C729.18 578.24 731.4 577.04 733.33 575.4C735.076 573.758 737.374 572.831 739.77 572.8C743.37 572.69 748.77 573.96 751.05 576.89C752.89 579.24 752.98 582.47 752.99 585.46C752.99 588.21 752.99 590.95 752.99 593.7C752.99 596.14 752.99 598.7 754.13 600.85C755.27 603 757.78 604.68 760.13 603.94C762.89 603.06 764.13 599.4 766.92 598.74C769.04 598.28 771.21 599.86 772.13 601.79Z" fill="black"/>
<path opacity="0.1" d="M799.16 592.74C798.558 594.428 797.603 595.969 796.36 597.26L785.5 610.31C780.93 615.8 776.1 622.16 776.5 629.17C776.83 622.74 781.31 616.89 785.5 611.79L796.36 598.74C797.603 597.449 798.558 595.908 799.16 594.22C799.432 593.037 799.529 591.821 799.45 590.61C799.434 591.329 799.337 592.043 799.16 592.74Z" fill="black"/>
<path opacity="0.1" d="M770.84 626.97C770.662 626.398 770.551 625.807 770.51 625.21C770.419 626.301 770.531 627.4 770.84 628.45C771.58 630.83 774.29 632.8 776.58 631.78C776.515 631.302 776.475 630.822 776.46 630.34C774.18 631.25 771.54 629.31 770.84 626.97Z" fill="black"/>
</g>
<path opacity="0.1" d="M661.53 1088.22C661.53 1088.22 664.97 1094.22 677.43 1088.94L661.53 1088.22Z" fill="black"/>
<path opacity="0.1" d="M766.84 1089.68C766.84 1089.68 777.58 1102.33 791.12 1093.83L766.84 1089.68Z" fill="black"/>
<path opacity="0.1" d="M798.1 940.09C798.1 940.09 790.51 944.83 790.27 947.54C790.03 950.25 794.19 945.54 794.19 945.54L798.1 940.09Z" fill="black"/>
<path opacity="0.1" d="M801.1 976.45C798.46 978.646 795.18 979.927 791.75 980.1C786.07 980.35 786.55 987.75 790.26 985.53C793.97 983.31 801.1 976.45 801.1 976.45Z" fill="black"/>
<path opacity="0.1" d="M802.54 981.2C802.54 981.2 798.9 999.09 795.94 995.64L802.54 981.2Z" fill="black"/>
<path d="M99.32 1115.28C99.32 1115.28 122.17 1121.55 133.17 1113.21C144.17 1104.87 148.94 1107.55 148.94 1107.55C148.94 1107.55 175.17 1106.1 177.33 1099.9C179.49 1093.7 167.27 1071.18 167.27 1071.18C166.4 1069.18 165.13 1066.64 164.56 1066.64L164.68 1057.14L168.48 1017.39C177.25 994.9 168.64 965.84 168.64 965.84L167.07 958.63C166.188 954.577 166.713 950.344 168.56 946.63L184.49 914.63C185.342 912.515 186.345 910.463 187.49 908.49C188.49 906.66 189.82 904.4 191.49 901.69C191.98 900.91 192.49 900.1 193.05 899.25C194.98 896.25 197.32 892.85 200.15 888.93C207.2 879.16 210.91 866.93 212.83 857.93L213.68 860.75H213.73H213.87L214.1 860.8H214.42H214.48L214.89 860.87H215.04L219.94 923.23C220.24 947.55 229.17 961.01 229.17 961.01L227.94 1014.7C229.62 1027.63 225.94 1044.87 224.25 1051.75L220.39 1060.46C218.87 1061.22 217.558 1062.34 216.567 1063.72C215.575 1065.1 214.935 1066.7 214.7 1068.38C213.94 1074.81 207.17 1088.67 207.17 1088.67C204.55 1091.99 198.86 1100.96 198.86 1100.96C198.86 1100.96 196.18 1109.62 197.84 1112.86C199.5 1116.1 213.38 1115.77 213.38 1115.77C229.23 1119.28 241.38 1110.77 240.61 1104.91C239.84 1099.05 243.08 1097.56 243.08 1097.56C249.38 1095.56 248.77 1091.29 248.77 1091.29C250.126 1082.48 248.444 1073.47 244 1065.75L243 1068.06C242.73 1063.44 243.375 1058.8 244.9 1054.43L244.32 1054.83L244.14 1054.94H244.08C245.08 1046.17 254.29 1029.94 254.29 1029.94C271.21 1000.26 265.06 960.04 265.06 960.04L262.44 947.5L262.29 942.77C261.932 931.478 262.787 920.18 264.84 909.07C265.75 904.15 266.69 898.21 267.41 891.66C268.93 877.82 273.83 863.54 276.09 857.49L276.76 857.37H276.84C277.76 857.21 278.69 857.05 279.63 856.87H279.81C279.81 856.87 280.35 853.95 280.81 848.98C281.08 845.81 281.3 841.79 281.3 837.17C281.368 823.22 279.238 809.347 274.99 796.06L275.5 795.33C275.5 795.33 276.71 793.69 278.92 790.85C282.98 785.69 289.3 777.85 297.09 769.01C311.04 753.1 306.94 737.01 306.94 737.01C306.94 737.01 296.84 700 292.34 677.78C289.77 665.12 284.95 656.51 281.26 651.43C282.092 647.927 282.561 644.349 282.66 640.75C282.96 634.17 282.73 627.31 279.77 621.4C276.81 615.49 270.51 610.82 263.93 611.61C262.997 611.835 262.023 611.835 261.09 611.61C260.321 611.261 259.671 610.694 259.22 609.98C255.37 604.67 255.12 597.53 256.32 591.09C257.52 584.65 259.98 578.49 261.08 572.03C262.18 565.57 261.68 558.4 257.57 553.28C252.74 547.28 244.32 545.59 238.04 541.08C233.63 537.91 230.32 533.36 225.67 530.55C221.02 527.74 216.67 528.81 211.62 529.87C203.13 531.66 195.06 532.48 187.03 536.13C178.899 539.812 171.606 545.117 165.6 551.72C163.468 553.848 161.835 556.424 160.82 559.26C158.82 565.87 162.73 572.91 161.91 579.75C161.33 584.6 158.47 588.82 156.2 593.15C153.93 597.48 152.2 602.62 153.98 607.15C156.78 614.23 165.91 615.73 172.55 619.5C173.437 619.934 174.196 620.593 174.75 621.41C176.39 624.27 173.04 627.24 170.93 629.78C169.722 631.262 168.867 632.999 168.43 634.86C165.681 635.988 163.252 637.775 161.357 640.063C159.461 642.351 158.157 645.07 157.56 647.98C155.31 658.05 158.77 670.76 161.82 679.16C158.49 697.87 162.82 705.25 166.01 708.08C169.239 710.846 171.239 714.781 171.57 719.02V719.37C171.78 722.77 172.14 726.16 172.62 729.54C172.51 728.75 172.4 727.91 172.34 727.54C169.73 732.37 164.76 744.71 161.96 765.47C161.377 769.919 160.533 774.33 159.43 778.68C157.427 786.383 156.711 794.364 157.31 802.3L157.81 809.03C157.318 809.042 156.837 808.883 156.45 808.58L159.96 815.01V825.86C159.956 830.753 159.054 835.603 157.3 840.17C157.05 840.83 156.78 841.49 156.49 842.17C155.588 843.996 155.181 846.027 155.31 848.06C147.76 859.63 130.45 924.47 130.45 924.47C121.06 945.73 131.22 959.47 131.22 959.47C131.22 959.47 136.14 1018.66 137.06 1021.72C137.98 1024.78 140.02 1060.86 140.02 1060.86C140.02 1061.81 140.02 1062.8 140.02 1063.73C139.474 1063.49 138.899 1063.33 138.31 1063.24C130.08 1062.78 127.85 1075.78 127.85 1075.78L111.01 1091.86C111.01 1091.86 103.32 1090.56 92.01 1099.05C80.7 1107.54 99.32 1115.28 99.32 1115.28ZM267.47 773.19L267.42 773.01L266.96 773.28L266.77 773.39L266.68 773.45L258.92 746.06C256.843 738.717 256.647 730.969 258.35 723.53L264.35 697.25V690.93L283.42 741.75C284.64 748.6 273.31 765.19 267.47 773.19Z" fill="url(#paint3_linear)"/>
<path d="M275.84 855.86C275.84 855.86 268.14 874.59 266.18 892.56C265.47 899.04 264.55 904.9 263.65 909.76C261.652 920.731 260.827 931.884 261.19 943.03L261.34 947.7L263.84 960.07C263.84 960.07 269.84 999.8 253.27 1029.07C253.27 1029.07 243.45 1046.6 243.15 1054.9L236.5 1057.47L223.06 1053.7C223.06 1053.7 229.55 1030.43 227.44 1014.12L228.65 961.12C228.65 961.12 219.92 947.86 219.62 923.86L214.49 858L275.84 855.86Z" fill="#FDC2CC"/>
<path d="M214.49 846.48C214.49 846.48 212.84 872.16 200.14 889.86C187.44 907.56 184.74 915.24 184.74 915.24L169.1 946.86C167.289 950.524 166.771 954.694 167.63 958.69L169.17 965.81C169.17 965.81 177.63 994.51 169.02 1016.72L164.94 1059.62H141.08C141.08 1059.62 139.08 1023.97 138.21 1020.95C137.34 1017.93 132.47 959.47 132.47 959.47C132.47 959.47 122.47 945.87 131.71 924.88C131.71 924.88 152.56 846.33 158.14 847.69C163.72 849.05 214.49 846.48 214.49 846.48Z" fill="#FDC2CC"/>
<g opacity="0.1">
<path opacity="0.1" d="M166.75 965.86L165.22 958.74C164.337 954.729 164.852 950.537 166.68 946.86L182.32 915.21C182.32 915.21 185.03 907.51 197.72 889.83C209.91 872.83 211.92 848.47 212.06 846.6L214.49 846.48C214.49 846.48 212.84 872.16 200.14 889.86C187.44 907.56 184.74 915.24 184.74 915.24L169.1 946.86C167.289 950.524 166.771 954.694 167.63 958.69L169.17 965.81C169.17 965.81 177.63 994.51 169.02 1016.72L164.94 1059.62H162.52L166.6 1016.72C175.21 994.51 166.75 965.86 166.75 965.86Z" fill="black"/>
</g>
<path opacity="0.1" d="M240.77 1054.93C241.07 1046.63 250.89 1029.1 250.89 1029.1C267.51 999.8 261.46 960.1 261.46 960.1L258.9 947.72L258.75 943.05C258.388 931.904 259.212 920.751 261.21 909.78C262.1 904.92 263.02 899.06 263.73 892.58C265.62 875.28 272.83 857.28 273.36 855.96L275.84 855.86C275.84 855.86 268.14 874.59 266.18 892.56C265.47 899.04 264.55 904.9 263.65 909.76C261.652 920.731 260.828 931.884 261.19 943.03L261.34 947.7L263.84 960.07C263.84 960.07 269.84 999.8 253.27 1029.07C253.27 1029.07 243.45 1046.6 243.15 1054.9L236.5 1057.47L235.1 1057.08L240.77 1054.93Z" fill="black"/>
<path d="M233.07 1054.63C234.871 1055.34 236.822 1055.59 238.744 1055.35C240.666 1055.12 242.497 1054.4 244.07 1053.27C241.869 1059.69 241.557 1066.61 243.17 1073.21C245.89 1084.09 217.79 1064.45 217.79 1064.45L223.79 1050.74C223.79 1050.74 226.12 1055.08 233.07 1054.63Z" fill="#D39999"/>
<path opacity="0.1" d="M235.16 1055.24C236.706 1055.55 238.299 1055.54 239.838 1055.19C241.377 1054.85 242.825 1054.18 244.09 1053.24C241.889 1059.66 241.577 1066.58 243.19 1073.18C245.91 1084.06 217.81 1064.42 217.81 1064.42L223.81 1050.71C223.81 1050.71 225.55 1054.05 230.66 1054.57C232.21 1054.75 233.69 1054.96 235.16 1055.24Z" fill="black"/>
<path d="M169.32 800.5H181.06V733.89L172.25 732.31L169.32 800.5Z" fill="#FDC2CC"/>
<path opacity="0.05" d="M169.32 800.5H181.06V733.89L172.25 732.31L169.32 800.5Z" fill="black"/>
<path d="M226.42 1059.77C226.42 1059.77 233.82 1059.31 237.14 1065.96L241.22 1069.13L243.22 1064.45C247.561 1072.1 249.189 1080.99 247.84 1089.68C247.84 1089.68 248.44 1093.9 242.25 1095.87C242.25 1095.87 239.08 1097.38 239.83 1103.12C240.58 1108.86 228.66 1117.32 213.1 1113.84C213.1 1113.84 199.5 1114.15 197.84 1110.97C196.18 1107.79 198.9 1099.34 198.9 1099.34C198.9 1099.34 204.49 1090.48 207.05 1087.21C207.05 1087.21 213.7 1073.51 214.46 1067.21C215.22 1060.91 222.49 1056.29 226.42 1059.77Z" fill="#7E5659"/>
<path d="M165.17 1065.36L165.29 1055.97C165.29 1055.97 151.78 1059.86 140.84 1055.46C140.84 1055.46 141.76 1064.9 140.24 1066.19C138.72 1067.48 145.3 1079.63 145.3 1079.63L152.65 1087.33L165.29 1082.73L168.72 1071.93C168.72 1071.93 166.07 1065.36 165.17 1065.36Z" fill="#D39999"/>
<path opacity="0.1" d="M165.17 1065.36L165.29 1055.97C165.29 1055.97 151.78 1059.86 140.84 1055.46C140.84 1055.46 141.76 1064.9 140.24 1066.19C138.72 1067.48 145.3 1079.63 145.3 1079.63L152.65 1087.33L165.29 1082.73L168.72 1071.93C168.72 1071.93 166.07 1065.36 165.17 1065.36Z" fill="black"/>
<path d="M139.41 1061.96C139.41 1061.96 146.59 1062.79 145.68 1071.96C144.77 1081.13 146.06 1071.96 146.06 1071.96C146.06 1071.96 153.69 1075.05 156.41 1079.36C159.13 1083.67 164.04 1075.51 164.41 1073.17C164.78 1070.83 167.84 1069.86 167.84 1069.86C167.84 1069.86 179.84 1092.11 177.72 1098.23C175.6 1104.35 149.84 1105.76 149.84 1105.76C149.84 1105.76 145.15 1103.12 134.35 1111.35C123.55 1119.58 101.12 1113.35 101.12 1113.35C101.12 1113.35 82.8399 1105.72 93.9499 1097.35C105.06 1088.98 112.6 1090.25 112.6 1090.25L129.14 1074.31C129.14 1074.31 131.33 1061.5 139.41 1061.96Z" fill="#7E5659"/>
<path d="M225.16 535.95C229.73 538.72 232.98 543.22 237.31 546.35C243.47 550.8 251.74 552.46 256.48 558.4C260.48 563.46 261 570.53 259.92 576.91C258.84 583.29 256.42 589.38 255.25 595.74C254.08 602.1 254.32 609.15 258.1 614.39C258.539 615.095 259.175 615.654 259.93 616C260.847 616.219 261.803 616.219 262.72 616C269.18 615.22 275.38 619.84 278.28 625.67C281.18 631.5 281.41 638.28 281.11 644.78C280.86 650.11 280.26 655.55 277.92 660.35C273.92 668.51 265.6 673.55 257.39 677.41C252.054 679.919 246.582 682.129 241 684.03C237.16 685.33 233.11 686.5 229.12 685.82C222.29 684.64 217.45 678.43 210.97 676C205.66 674 199.77 674.72 194.12 675.22C189.3 675.64 183.79 675.63 180.47 672.11C176.21 667.59 178.13 660.3 180.31 654.48C178.001 654.334 175.778 653.552 173.885 652.221C171.993 650.891 170.505 649.063 169.586 646.939C168.667 644.816 168.353 642.48 168.678 640.19C169.004 637.899 169.956 635.743 171.43 633.96C173.49 631.45 176.78 628.52 175.17 625.69C174.629 624.883 173.884 624.234 173.01 623.81C166.5 620.09 157.53 618.6 154.79 611.62C153.03 607.13 154.73 602.05 156.96 597.78C159.19 593.51 161.96 589.33 162.57 584.55C163.37 577.79 159.57 570.84 161.5 564.32C162.498 561.52 164.099 558.973 166.19 556.86C172.068 550.353 179.215 545.116 187.19 541.47C195.08 537.86 202.99 537.05 211.33 535.29C216.33 534.23 220.47 533.11 225.16 535.95Z" fill="#865A61"/>
<path d="M181.05 636.62C181.05 636.62 161.92 635.62 158.3 651.93C154.68 668.24 166.15 691.6 166.15 691.6L181.05 636.62Z" fill="#FDC2CC"/>
<path opacity="0.05" d="M181.05 636.62C181.05 636.62 161.92 635.62 158.3 651.93C154.68 668.24 166.15 691.6 166.15 691.6L181.05 636.62Z" fill="black"/>
<path d="M168.84 685.16L176.09 690.9L209.92 692.41L231.04 677.91L252.52 641.05C239.39 637.7 234.08 628.63 232.1 620.15C230.84 614.411 230.698 608.483 231.68 602.69C231.68 602.69 197.24 584.86 201.47 612.69C202.05 616.106 202.158 619.585 201.79 623.03C199.79 639.33 183.97 636.26 183.97 636.26L177.9 645.62L170.95 668.62L168.84 685.16Z" fill="#FDC2CC"/>
<path opacity="0.1" d="M201.5 612.65C202.08 616.066 202.188 619.545 201.82 622.99C206.679 625.21 212.035 626.116 217.354 625.617C222.673 625.119 227.768 623.234 232.13 620.15C230.87 614.411 230.728 608.483 231.71 602.69C231.71 602.69 197.27 584.86 201.5 612.65Z" fill="black"/>
<path d="M214.51 624.54C231.36 624.54 245.02 610.88 245.02 594.03C245.02 577.18 231.36 563.52 214.51 563.52C197.66 563.52 184 577.18 184 594.03C184 610.88 197.66 624.54 214.51 624.54Z" fill="#FDC2CC"/>
<path d="M192.93 679.34C193.67 679.34 194.4 679.45 195.13 679.52C199.13 679.92 215.84 680.82 225.36 669.45C236.01 656.73 250.19 641.02 250.77 640.38L265.2 644.74C265.2 644.74 253.78 640.68 246.2 661.92C244.537 666.375 244.361 671.249 245.701 675.812C247.04 680.375 249.822 684.381 253.63 687.23C256.433 689.261 259.661 690.629 263.07 691.23C263.074 691.238 263.077 691.246 263.077 691.255C263.077 691.264 263.074 691.272 263.07 691.28V700.6L257.17 726.6C255.494 733.947 255.686 741.597 257.73 748.85L266.73 780.66C265.37 781.6 209.53 819.58 172.23 793.35C172.37 792.21 176.98 754.88 173.78 736.61C172.958 731.938 172.401 727.224 172.11 722.49C172.11 722.37 172.11 722.26 172.11 722.14C171.78 717.96 169.814 714.079 166.64 711.34C163.28 708.34 158.73 700.34 163.23 679.2C164.367 673.964 166.042 668.861 168.23 663.97L180.74 635.7L192.27 635.93V636.01C191.27 637.25 177.9 653.95 176.45 664.71C175.03 674.94 173.28 678.08 192.93 679.34Z" fill="#21BF54"/>
<path d="M274.91 649.71C274.91 649.71 286.19 659.38 290.62 681.33C295.05 703.28 304.92 739.74 304.92 739.74C304.92 739.74 308.92 755.65 295.25 771.36C281.58 787.07 272.49 799.36 272.49 799.36L263.49 812.62C261.955 814.88 259.653 816.508 257.01 817.2C252.91 818.28 246.61 819.06 241.15 816.07C239.163 814.959 237.655 813.154 236.917 811C236.179 808.847 236.262 806.496 237.15 804.4L239.15 799.77C239.15 799.77 220.62 811.45 219.01 805C217.4 798.55 240.56 792.11 240.56 792.11C240.56 792.11 259.69 788.89 263.56 779.83C263.56 779.83 284.1 753.44 282.49 744.38L262.65 691.21C262.65 691.21 237.84 687.93 246.3 660.06C254.76 632.19 274.91 649.71 274.91 649.71Z" fill="#FDC2CC"/>
<path d="M156.28 850.31C156.28 850.31 201.6 859.37 212.28 858.16L213.43 861.99C213.43 861.99 230.63 865.84 269.52 859.67C272.06 859.27 274.697 858.82 277.43 858.32L278.34 858.16C278.34 858.16 278.87 855.28 279.29 850.37C280.22 839.22 280.55 817.63 272.7 795.53L266.16 775.39C266.16 775.39 225.74 799.62 198.98 797.39C196.59 797.19 194.22 797 191.83 796.92C186.34 796.71 177.83 796.92 172.3 792.49L160.7 794.49V827.49C160.696 832.317 159.808 837.103 158.08 841.61C157.83 842.27 157.57 842.92 157.28 843.61C156.216 845.672 155.864 848.028 156.28 850.31Z" fill="#65617D"/>
<path opacity="0.1" d="M213.42 851.72V861.99C213.42 861.99 233.22 866.42 278.33 858.16C278.33 858.16 278.86 855.28 279.28 850.37C265.44 852.59 227.27 857.93 213.42 851.72Z" fill="black"/>
<path opacity="0.1" d="M156.28 850.31C156.28 850.31 201.6 859.37 212.28 858.16L213.43 861.99V851.72C208.27 853.86 171.43 844.98 158.08 841.65C157.83 842.31 157.57 842.96 157.28 843.65C156.225 845.7 155.873 848.04 156.28 850.31Z" fill="black"/>
<path d="M266.15 838.86L269.51 859.7C272.05 859.3 274.687 858.85 277.42 858.35C276.37 852.26 274.08 838.35 274.71 836.04L270.48 832.42L266.15 838.86Z" fill="#65617D"/>
<path opacity="0.1" d="M266.62 838.41L269.98 859.26C272.52 858.853 275.157 858.403 277.89 857.91C276.84 851.82 274.55 837.91 275.18 835.6L270.95 831.97L266.62 838.41Z" fill="black"/>
<g opacity="0.05">
<path opacity="0.05" d="M196.55 797.38C194.17 797.18 191.79 796.99 189.4 796.91C184.06 796.71 175.91 796.91 170.35 792.82L172.29 792.48C177.85 796.89 186.29 796.7 191.82 796.91C194.21 796.99 196.58 797.18 198.97 797.38C199.75 797.45 200.55 797.49 201.36 797.51C199.756 797.553 198.15 797.509 196.55 797.38Z" fill="black"/>
<path opacity="0.05" d="M267.09 859.67C269.63 859.27 272.267 858.823 275 858.33L275.92 858.16C275.92 858.16 276.45 855.28 276.86 850.37C277.8 839.22 278.13 817.63 270.27 795.53L264.11 776.53C265.42 775.79 266.11 775.36 266.11 775.36L272.65 795.5C280.5 817.6 280.17 839.19 279.24 850.34C278.82 855.25 278.29 858.13 278.29 858.13L277.38 858.3C274.654 858.793 272.017 859.24 269.47 859.64C251.3 862.52 237.88 863.22 228.72 863.14C241.579 862.945 254.405 861.785 267.09 859.67Z" fill="black"/>
<path opacity="0.05" d="M209.84 858.16V858.27H208.54C209.033 858.237 209.467 858.2 209.84 858.16Z" fill="black"/>
</g>
<path d="M271.78 842.75C272.724 842.75 273.49 841.174 273.49 839.23C273.49 837.286 272.724 835.71 271.78 835.71C270.836 835.71 270.07 837.286 270.07 839.23C270.07 841.174 270.836 842.75 271.78 842.75Z" fill="#D39999"/>
<path d="M162.64 767.95C165.4 747.45 170.27 735.27 172.84 730.5C172.94 731.15 173.2 733.26 173.32 733.91C173.84 736.91 173.38 740.69 173.54 744.5L170.98 790.86L174.41 805.36C177.63 816.84 165.7 807.77 165.7 807.77C163.23 813.21 158.7 812.61 158.7 812.61L158.08 804.29C157.493 796.452 158.195 788.571 160.16 780.96C161.244 776.676 162.073 772.332 162.64 767.95Z" fill="#FDC2CC"/>
<path opacity="0.05" d="M162.64 767.95C165.4 747.45 170.27 735.27 172.84 730.5C172.94 731.15 173.2 733.26 173.32 733.91C173.84 736.91 173.38 740.69 173.54 744.5L170.98 790.86L174.41 805.36C177.63 816.84 165.7 807.77 165.7 807.77C163.23 813.21 158.7 812.61 158.7 812.61L158.08 804.29C157.493 796.452 158.195 788.571 160.16 780.96C161.244 776.676 162.073 772.332 162.64 767.95Z" fill="black"/>
<path d="M277.42 792.96C275.25 795.77 274.06 797.38 274.06 797.38L265.06 810.63C263.529 812.894 261.225 814.522 258.58 815.21C254.48 816.29 248.18 817.08 242.72 814.08C240.732 812.973 239.223 811.169 238.485 809.017C237.746 806.864 237.83 804.515 238.72 802.42L240.72 797.78C240.72 797.78 222.19 809.46 220.58 803.02C218.97 796.58 242.13 790.13 242.13 790.13C242.13 790.13 261.26 786.91 265.13 777.84C265.13 777.84 266.8 775.7 269.13 772.42" fill="#FDC2CC"/>
<path d="M266.15 815.17C266.15 815.17 244.24 813.04 237.3 800.51L234.12 810.86C234.12 810.86 257.12 826.74 262.37 824.68L266.15 815.17Z" fill="#65617D"/>
<path opacity="0.1" d="M265.37 815.07C265.37 815.07 243.47 812.94 236.52 800.4L233.35 810.72C233.35 810.72 256.35 826.6 261.59 824.54L265.37 815.07Z" fill="black"/>
<path d="M166.42 809.32C166.42 809.32 158.75 812.04 157.24 810.53L160.69 816.88L167.21 811.88L166.42 809.32Z" fill="#65617D"/>
<path opacity="0.1" d="M166.42 809.32C166.42 809.32 158.75 812.04 157.24 810.53L160.69 816.88L167.21 811.88L166.42 809.32Z" fill="black"/>
<path opacity="0.1" d="M213.42 851.72V838.47L210.27 852.04L213.42 851.72Z" fill="black"/>
<path opacity="0.1" d="M244.49 577.92C242.64 580.52 239.43 581.84 236.27 582.25C233.11 582.66 229.91 582.31 226.72 582.25C221.72 582.17 216.4 582.94 212.31 585.88C209.7 587.75 207.74 590.38 205.7 592.88C199.52 600.43 190.94 607.5 181.2 606.71C180.352 606.71 179.512 606.54 178.731 606.21C177.949 605.881 177.242 605.398 176.65 604.79C175.856 603.558 175.452 602.115 175.49 600.65C175.071 594.426 175.269 588.175 176.08 581.99C176.471 578.162 177.421 574.412 178.9 570.86C180.641 567.3 182.929 564.033 185.68 561.18C189.007 557.32 193.018 554.106 197.51 551.7C202.049 549.292 207.308 548.614 212.31 549.79C218.14 551.38 222.68 555.94 228.24 558.29C234.59 560.96 251.45 568.09 244.49 577.92Z" fill="black"/>
<path d="M244.49 576.71C242.64 579.31 239.43 580.63 236.27 581.04C233.11 581.45 229.91 581.1 226.72 581.04C221.72 580.95 216.4 581.72 212.31 584.66C209.7 586.53 207.74 589.16 205.7 591.66C199.52 599.21 190.94 606.28 181.2 605.49C180.351 605.492 179.511 605.324 178.729 604.994C177.947 604.664 177.24 604.18 176.65 603.57C175.855 602.339 175.45 600.895 175.49 599.43C175.071 593.206 175.269 586.955 176.08 580.77C176.471 576.942 177.421 573.192 178.9 569.64C180.638 566.081 182.926 562.818 185.68 559.97C189.004 556.104 193.015 552.887 197.51 550.48C202.049 548.073 207.308 547.394 212.31 548.57C218.14 550.16 222.68 554.72 228.24 557.07C234.59 559.75 251.45 566.86 244.49 576.71Z" fill="#865A61"/>
<path d="M172.3 792.47L172.22 796.12L171.4 792.63L172.3 792.47Z" fill="#FDC2CC"/>
<path opacity="0.05" d="M172.3 792.47L172.22 796.12L171.4 792.63L172.3 792.47Z" fill="black"/>
<g opacity="0.05">
<path opacity="0.05" d="M249.42 658.15C240.95 686.02 265.64 689.29 265.64 689.29L285.48 742.46C287.09 751.52 266.54 777.91 266.54 777.91C265.11 781.29 261.54 783.86 257.64 785.76C259.919 784.372 261.751 782.359 262.92 779.96C262.92 779.96 283.46 753.58 281.85 744.52L262.01 691.34C262.01 691.34 237.33 688.07 245.79 660.2C248.62 650.89 252.79 646.65 257.01 645.13C254.1 647.47 251.43 651.52 249.42 658.15Z" fill="black"/>
</g>
<g opacity="0.1">
<path opacity="0.1" d="M249.84 683.47C251 684.905 252.345 686.179 253.84 687.26C256.641 689.295 259.87 690.663 263.28 691.26C263.28 691.26 263.28 691.26 263.28 691.31V692.31C260.194 691.656 257.279 690.365 254.72 688.52C252.818 687.126 251.168 685.418 249.84 683.47Z" fill="black"/>
<path opacity="0.1" d="M173.12 723.34C173.12 723.45 173.12 723.57 173.12 723.69C173.432 728.441 174.006 733.172 174.84 737.86C177.84 755.1 173.91 789.33 173.35 794.06C173.03 793.85 172.71 793.65 172.35 793.42C172.5 792.28 177.11 754.95 173.91 736.69C173.09 732.018 172.532 727.304 172.24 722.57C172.24 722.45 172.24 722.33 172.24 722.22C172.041 719.476 171.113 716.835 169.55 714.57C171.623 717.051 172.871 720.117 173.12 723.34Z" fill="black"/>
<path opacity="0.1" d="M191.53 637.06L181.75 636.87C181.742 636.866 181.734 636.863 181.725 636.863C181.716 636.863 181.708 636.866 181.7 636.87L169.2 665.13C167.014 670.021 165.339 675.125 164.2 680.36C160.56 697.46 162.85 705.98 165.63 710.19C162.5 706.5 159.27 698.09 163.3 679.19C164.416 673.952 166.075 668.844 168.25 663.95L180.84 635.69L192.37 635.92V635.99C192.28 636.11 191.97 636.49 191.53 637.06Z" fill="black"/>
<path opacity="0.1" d="M265.23 644.73L265.4 644.78L265.23 644.73Z" fill="black"/>
<path opacity="0.1" d="M261.64 644.57L251.84 641.62H251.79C251.21 642.26 237.04 657.97 226.39 670.69C216.87 682.06 200.18 681.17 196.16 680.77C195.43 680.69 194.69 680.63 193.96 680.58C183.03 679.88 178.73 678.58 177.29 675.82C179.34 677.82 183.85 678.82 193.05 679.38C193.79 679.38 194.52 679.49 195.25 679.56C199.25 679.96 215.96 680.85 225.48 669.49C236.13 656.76 250.31 641.05 250.89 640.41L265.15 644.73C264.002 644.444 262.809 644.39 261.64 644.57Z" fill="black"/>
</g>
<path opacity="0.1" d="M145.61 1076.49C145.61 1076.49 131.81 1080.26 129.14 1074.34L145.61 1076.49Z" fill="black"/>
<path opacity="0.1" d="M233.22 1073.66C233.22 1073.66 217.22 1077.79 213.52 1071.4L233.22 1073.66Z" fill="black"/>
</g>
<defs>
<linearGradient id="paint0_linear" x1="361.63" y1="1029.31" x2="361.63" y2="438.22" gradientUnits="userSpaceOnUse">
<stop stop-color="#808080" stop-opacity="0.25"/>
<stop offset="0.54" stop-color="#808080" stop-opacity="0.12"/>
<stop offset="1" stop-color="#808080" stop-opacity="0.1"/>
</linearGradient>
<linearGradient id="paint1_linear" x1="137616" y1="478076" x2="137616" y2="104991" gradientUnits="userSpaceOnUse">
<stop stop-color="#808080" stop-opacity="0.25"/>
<stop offset="0.54" stop-color="#808080" stop-opacity="0.12"/>
<stop offset="1" stop-color="#808080" stop-opacity="0.1"/>
</linearGradient>
<linearGradient id="paint2_linear" x1="182477" y1="486682" x2="182477" y2="141414" gradientUnits="userSpaceOnUse">
<stop stop-color="#808080" stop-opacity="0.25"/>
<stop offset="0.54" stop-color="#808080" stop-opacity="0.12"/>
<stop offset="1" stop-color="#808080" stop-opacity="0.1"/>
</linearGradient>
<linearGradient id="paint3_linear" x1="-104704" y1="482556" x2="-104704" y2="135879" gradientUnits="userSpaceOnUse">
<stop stop-color="#808080" stop-opacity="0.25"/>
<stop offset="0.54" stop-color="#808080" stop-opacity="0.12"/>
<stop offset="1" stop-color="#808080" stop-opacity="0.1"/>
</linearGradient>
<clipPath id="clip0">
<rect width="1122" height="1146" fill="white"/>
</clipPath>
</defs>
</svg>
